<?xml version="1.0" encoding="utf-8" standalone="no"?>
<!DOCTYPE svg PUBLIC "-//W3C//DTD SVG 1.1//EN"
  "http://www.w3.org/Graphics/SVG/1.1/DTD/svg11.dtd">
<svg xmlns:xlink="http://www.w3.org/1999/xlink" width="864pt" height="432pt" viewBox="0 0 864 432" xmlns="http://www.w3.org/2000/svg" version="1.1">
 <metadata>
  <rdf:RDF xmlns:dc="http://purl.org/dc/elements/1.1/" xmlns:cc="http://creativecommons.org/ns#" xmlns:rdf="http://www.w3.org/1999/02/22-rdf-syntax-ns#">
   <cc:Work>
    <dc:type rdf:resource="http://purl.org/dc/dcmitype/StillImage"/>
    <dc:date>2026-01-21T01:31:12.222632</dc:date>
    <dc:format>image/svg+xml</dc:format>
    <dc:creator>
     <cc:Agent>
      <dc:title>Matplotlib v3.9.2, https://matplotlib.org/</dc:title>
     </cc:Agent>
    </dc:creator>
   </cc:Work>
  </rdf:RDF>
 </metadata>
 <defs>
  <style type="text/css">*{stroke-linejoin: round; stroke-linecap: butt}</style>
 </defs>
 <g id="figure_1">
  <g id="patch_1">
   <path d="M 0 432 
L 864 432 
L 864 0 
L 0 0 
z
" style="fill: #ffffff"/>
  </g>
  <g id="axes_1">
   <g id="patch_2">
    <path d="M 76.61 374.92 
L 720.8 374.92 
L 720.8 39.12 
L 76.61 39.12 
z
" style="fill: #ffffff"/>
   </g>
   <g id="matplotlib.axis_1">
    <g id="xtick_1">
     <g id="line2d_1">
      <defs>
       <path id="m70488d7687" d="M 0 0 
L 0 3.5 
" style="stroke: #000000; stroke-width: 0.8"/>
      </defs>
      <g>
       <use xlink:href="#m70488d7687" x="76.61" y="374.92" style="stroke: #000000; stroke-width: 0.8"/>
      </g>
     </g>
     <g id="text_1">
      <!-- 1530 -->
      <g transform="translate(56.25 394.0775) scale(0.16 -0.16)">
       <defs>
        <path id="DejaVuSans-31" d="M 794 531 
L 1825 531 
L 1825 4091 
L 703 3866 
L 703 4441 
L 1819 4666 
L 2450 4666 
L 2450 531 
L 3481 531 
L 3481 0 
L 794 0 
L 794 531 
z
" transform="scale(0.015625)"/>
        <path id="DejaVuSans-35" d="M 691 4666 
L 3169 4666 
L 3169 4134 
L 1269 4134 
L 1269 2991 
Q 1406 3038 1543 3061 
Q 1681 3084 1819 3084 
Q 2600 3084 3056 2656 
Q 3513 2228 3513 1497 
Q 3513 744 3044 326 
Q 2575 -91 1722 -91 
Q 1428 -91 1123 -41 
Q 819 9 494 109 
L 494 744 
Q 775 591 1075 516 
Q 1375 441 1709 441 
Q 2250 441 2565 725 
Q 2881 1009 2881 1497 
Q 2881 1984 2565 2268 
Q 2250 2553 1709 2553 
Q 1456 2553 1204 2497 
Q 953 2441 691 2322 
L 691 4666 
z
" transform="scale(0.015625)"/>
        <path id="DejaVuSans-33" d="M 2597 2516 
Q 3050 2419 3304 2112 
Q 3559 1806 3559 1356 
Q 3559 666 3084 287 
Q 2609 -91 1734 -91 
Q 1441 -91 1130 -33 
Q 819 25 488 141 
L 488 750 
Q 750 597 1062 519 
Q 1375 441 1716 441 
Q 2309 441 2620 675 
Q 2931 909 2931 1356 
Q 2931 1769 2642 2001 
Q 2353 2234 1838 2234 
L 1294 2234 
L 1294 2753 
L 1863 2753 
Q 2328 2753 2575 2939 
Q 2822 3125 2822 3475 
Q 2822 3834 2567 4026 
Q 2313 4219 1838 4219 
Q 1578 4219 1281 4162 
Q 984 4106 628 3988 
L 628 4550 
Q 988 4650 1302 4700 
Q 1616 4750 1894 4750 
Q 2613 4750 3031 4423 
Q 3450 4097 3450 3541 
Q 3450 3153 3228 2886 
Q 3006 2619 2597 2516 
z
" transform="scale(0.015625)"/>
        <path id="DejaVuSans-30" d="M 2034 4250 
Q 1547 4250 1301 3770 
Q 1056 3291 1056 2328 
Q 1056 1369 1301 889 
Q 1547 409 2034 409 
Q 2525 409 2770 889 
Q 3016 1369 3016 2328 
Q 3016 3291 2770 3770 
Q 2525 4250 2034 4250 
z
M 2034 4750 
Q 2819 4750 3233 4129 
Q 3647 3509 3647 2328 
Q 3647 1150 3233 529 
Q 2819 -91 2034 -91 
Q 1250 -91 836 529 
Q 422 1150 422 2328 
Q 422 3509 836 4129 
Q 1250 4750 2034 4750 
z
" transform="scale(0.015625)"/>
       </defs>
       <use xlink:href="#DejaVuSans-31"/>
       <use xlink:href="#DejaVuSans-35" x="63.623047"/>
       <use xlink:href="#DejaVuSans-33" x="127.246094"/>
       <use xlink:href="#DejaVuSans-30" x="190.869141"/>
      </g>
     </g>
    </g>
    <g id="xtick_2">
     <g id="line2d_2">
      <g>
       <use xlink:href="#m70488d7687" x="168.637143" y="374.92" style="stroke: #000000; stroke-width: 0.8"/>
      </g>
     </g>
     <g id="text_2">
      <!-- 1535 -->
      <g transform="translate(148.277143 394.0775) scale(0.16 -0.16)">
       <use xlink:href="#DejaVuSans-31"/>
       <use xlink:href="#DejaVuSans-35" x="63.623047"/>
       <use xlink:href="#DejaVuSans-33" x="127.246094"/>
       <use xlink:href="#DejaVuSans-35" x="190.869141"/>
      </g>
     </g>
    </g>
    <g id="xtick_3">
     <g id="line2d_3">
      <g>
       <use xlink:href="#m70488d7687" x="260.664286" y="374.92" style="stroke: #000000; stroke-width: 0.8"/>
      </g>
     </g>
     <g id="text_3">
      <!-- 1540 -->
      <g transform="translate(240.304286 394.0775) scale(0.16 -0.16)">
       <defs>
        <path id="DejaVuSans-34" d="M 2419 4116 
L 825 1625 
L 2419 1625 
L 2419 4116 
z
M 2253 4666 
L 3047 4666 
L 3047 1625 
L 3713 1625 
L 3713 1100 
L 3047 1100 
L 3047 0 
L 2419 0 
L 2419 1100 
L 313 1100 
L 313 1709 
L 2253 4666 
z
" transform="scale(0.015625)"/>
       </defs>
       <use xlink:href="#DejaVuSans-31"/>
       <use xlink:href="#DejaVuSans-35" x="63.623047"/>
       <use xlink:href="#DejaVuSans-34" x="127.246094"/>
       <use xlink:href="#DejaVuSans-30" x="190.869141"/>
      </g>
     </g>
    </g>
    <g id="xtick_4">
     <g id="line2d_4">
      <g>
       <use xlink:href="#m70488d7687" x="352.691429" y="374.92" style="stroke: #000000; stroke-width: 0.8"/>
      </g>
     </g>
     <g id="text_4">
      <!-- 1545 -->
      <g transform="translate(332.331429 394.0775) scale(0.16 -0.16)">
       <use xlink:href="#DejaVuSans-31"/>
       <use xlink:href="#DejaVuSans-35" x="63.623047"/>
       <use xlink:href="#DejaVuSans-34" x="127.246094"/>
       <use xlink:href="#DejaVuSans-35" x="190.869141"/>
      </g>
     </g>
    </g>
    <g id="xtick_5">
     <g id="line2d_5">
      <g>
       <use xlink:href="#m70488d7687" x="444.718571" y="374.92" style="stroke: #000000; stroke-width: 0.8"/>
      </g>
     </g>
     <g id="text_5">
      <!-- 1550 -->
      <g transform="translate(424.358571 394.0775) scale(0.16 -0.16)">
       <use xlink:href="#DejaVuSans-31"/>
       <use xlink:href="#DejaVuSans-35" x="63.623047"/>
       <use xlink:href="#DejaVuSans-35" x="127.246094"/>
       <use xlink:href="#DejaVuSans-30" x="190.869141"/>
      </g>
     </g>
    </g>
    <g id="xtick_6">
     <g id="line2d_6">
      <g>
       <use xlink:href="#m70488d7687" x="536.745714" y="374.92" style="stroke: #000000; stroke-width: 0.8"/>
      </g>
     </g>
     <g id="text_6">
      <!-- 1555 -->
      <g transform="translate(516.385714 394.0775) scale(0.16 -0.16)">
       <use xlink:href="#DejaVuSans-31"/>
       <use xlink:href="#DejaVuSans-35" x="63.623047"/>
       <use xlink:href="#DejaVuSans-35" x="127.246094"/>
       <use xlink:href="#DejaVuSans-35" x="190.869141"/>
      </g>
     </g>
    </g>
    <g id="xtick_7">
     <g id="line2d_7">
      <g>
       <use xlink:href="#m70488d7687" x="628.772857" y="374.92" style="stroke: #000000; stroke-width: 0.8"/>
      </g>
     </g>
     <g id="text_7">
      <!-- 1560 -->
      <g transform="translate(608.412857 394.0775) scale(0.16 -0.16)">
       <defs>
        <path id="DejaVuSans-36" d="M 2113 2584 
Q 1688 2584 1439 2293 
Q 1191 2003 1191 1497 
Q 1191 994 1439 701 
Q 1688 409 2113 409 
Q 2538 409 2786 701 
Q 3034 994 3034 1497 
Q 3034 2003 2786 2293 
Q 2538 2584 2113 2584 
z
M 3366 4563 
L 3366 3988 
Q 3128 4100 2886 4159 
Q 2644 4219 2406 4219 
Q 1781 4219 1451 3797 
Q 1122 3375 1075 2522 
Q 1259 2794 1537 2939 
Q 1816 3084 2150 3084 
Q 2853 3084 3261 2657 
Q 3669 2231 3669 1497 
Q 3669 778 3244 343 
Q 2819 -91 2113 -91 
Q 1303 -91 875 529 
Q 447 1150 447 2328 
Q 447 3434 972 4092 
Q 1497 4750 2381 4750 
Q 2619 4750 2861 4703 
Q 3103 4656 3366 4563 
z
" transform="scale(0.015625)"/>
       </defs>
       <use xlink:href="#DejaVuSans-31"/>
       <use xlink:href="#DejaVuSans-35" x="63.623047"/>
       <use xlink:href="#DejaVuSans-36" x="127.246094"/>
       <use xlink:href="#DejaVuSans-30" x="190.869141"/>
      </g>
     </g>
    </g>
    <g id="xtick_8">
     <g id="line2d_8">
      <g>
       <use xlink:href="#m70488d7687" x="720.8" y="374.92" style="stroke: #000000; stroke-width: 0.8"/>
      </g>
     </g>
     <g id="text_8">
      <!-- 1565 -->
      <g transform="translate(700.44 394.0775) scale(0.16 -0.16)">
       <use xlink:href="#DejaVuSans-31"/>
       <use xlink:href="#DejaVuSans-35" x="63.623047"/>
       <use xlink:href="#DejaVuSans-36" x="127.246094"/>
       <use xlink:href="#DejaVuSans-35" x="190.869141"/>
      </g>
     </g>
    </g>
    <g id="text_9">
     <!-- Wavelength (nm) -->
     <g transform="translate(329.5975 413.5625) scale(0.16 -0.16)">
      <defs>
       <path id="DejaVuSans-57" d="M 213 4666 
L 850 4666 
L 1831 722 
L 2809 4666 
L 3519 4666 
L 4500 722 
L 5478 4666 
L 6119 4666 
L 4947 0 
L 4153 0 
L 3169 4050 
L 2175 0 
L 1381 0 
L 213 4666 
z
" transform="scale(0.015625)"/>
       <path id="DejaVuSans-61" d="M 2194 1759 
Q 1497 1759 1228 1600 
Q 959 1441 959 1056 
Q 959 750 1161 570 
Q 1363 391 1709 391 
Q 2188 391 2477 730 
Q 2766 1069 2766 1631 
L 2766 1759 
L 2194 1759 
z
M 3341 1997 
L 3341 0 
L 2766 0 
L 2766 531 
Q 2569 213 2275 61 
Q 1981 -91 1556 -91 
Q 1019 -91 701 211 
Q 384 513 384 1019 
Q 384 1609 779 1909 
Q 1175 2209 1959 2209 
L 2766 2209 
L 2766 2266 
Q 2766 2663 2505 2880 
Q 2244 3097 1772 3097 
Q 1472 3097 1187 3025 
Q 903 2953 641 2809 
L 641 3341 
Q 956 3463 1253 3523 
Q 1550 3584 1831 3584 
Q 2591 3584 2966 3190 
Q 3341 2797 3341 1997 
z
" transform="scale(0.015625)"/>
       <path id="DejaVuSans-76" d="M 191 3500 
L 800 3500 
L 1894 563 
L 2988 3500 
L 3597 3500 
L 2284 0 
L 1503 0 
L 191 3500 
z
" transform="scale(0.015625)"/>
       <path id="DejaVuSans-65" d="M 3597 1894 
L 3597 1613 
L 953 1613 
Q 991 1019 1311 708 
Q 1631 397 2203 397 
Q 2534 397 2845 478 
Q 3156 559 3463 722 
L 3463 178 
Q 3153 47 2828 -22 
Q 2503 -91 2169 -91 
Q 1331 -91 842 396 
Q 353 884 353 1716 
Q 353 2575 817 3079 
Q 1281 3584 2069 3584 
Q 2775 3584 3186 3129 
Q 3597 2675 3597 1894 
z
M 3022 2063 
Q 3016 2534 2758 2815 
Q 2500 3097 2075 3097 
Q 1594 3097 1305 2825 
Q 1016 2553 972 2059 
L 3022 2063 
z
" transform="scale(0.015625)"/>
       <path id="DejaVuSans-6c" d="M 603 4863 
L 1178 4863 
L 1178 0 
L 603 0 
L 603 4863 
z
" transform="scale(0.015625)"/>
       <path id="DejaVuSans-6e" d="M 3513 2113 
L 3513 0 
L 2938 0 
L 2938 2094 
Q 2938 2591 2744 2837 
Q 2550 3084 2163 3084 
Q 1697 3084 1428 2787 
Q 1159 2491 1159 1978 
L 1159 0 
L 581 0 
L 581 3500 
L 1159 3500 
L 1159 2956 
Q 1366 3272 1645 3428 
Q 1925 3584 2291 3584 
Q 2894 3584 3203 3211 
Q 3513 2838 3513 2113 
z
" transform="scale(0.015625)"/>
       <path id="DejaVuSans-67" d="M 2906 1791 
Q 2906 2416 2648 2759 
Q 2391 3103 1925 3103 
Q 1463 3103 1205 2759 
Q 947 2416 947 1791 
Q 947 1169 1205 825 
Q 1463 481 1925 481 
Q 2391 481 2648 825 
Q 2906 1169 2906 1791 
z
M 3481 434 
Q 3481 -459 3084 -895 
Q 2688 -1331 1869 -1331 
Q 1566 -1331 1297 -1286 
Q 1028 -1241 775 -1147 
L 775 -588 
Q 1028 -725 1275 -790 
Q 1522 -856 1778 -856 
Q 2344 -856 2625 -561 
Q 2906 -266 2906 331 
L 2906 616 
Q 2728 306 2450 153 
Q 2172 0 1784 0 
Q 1141 0 747 490 
Q 353 981 353 1791 
Q 353 2603 747 3093 
Q 1141 3584 1784 3584 
Q 2172 3584 2450 3431 
Q 2728 3278 2906 2969 
L 2906 3500 
L 3481 3500 
L 3481 434 
z
" transform="scale(0.015625)"/>
       <path id="DejaVuSans-74" d="M 1172 4494 
L 1172 3500 
L 2356 3500 
L 2356 3053 
L 1172 3053 
L 1172 1153 
Q 1172 725 1289 603 
Q 1406 481 1766 481 
L 2356 481 
L 2356 0 
L 1766 0 
Q 1100 0 847 248 
Q 594 497 594 1153 
L 594 3053 
L 172 3053 
L 172 3500 
L 594 3500 
L 594 4494 
L 1172 4494 
z
" transform="scale(0.015625)"/>
       <path id="DejaVuSans-68" d="M 3513 2113 
L 3513 0 
L 2938 0 
L 2938 2094 
Q 2938 2591 2744 2837 
Q 2550 3084 2163 3084 
Q 1697 3084 1428 2787 
Q 1159 2491 1159 1978 
L 1159 0 
L 581 0 
L 581 4863 
L 1159 4863 
L 1159 2956 
Q 1366 3272 1645 3428 
Q 1925 3584 2291 3584 
Q 2894 3584 3203 3211 
Q 3513 2838 3513 2113 
z
" transform="scale(0.015625)"/>
       <path id="DejaVuSans-20" transform="scale(0.015625)"/>
       <path id="DejaVuSans-28" d="M 1984 4856 
Q 1566 4138 1362 3434 
Q 1159 2731 1159 2009 
Q 1159 1288 1364 580 
Q 1569 -128 1984 -844 
L 1484 -844 
Q 1016 -109 783 600 
Q 550 1309 550 2009 
Q 550 2706 781 3412 
Q 1013 4119 1484 4856 
L 1984 4856 
z
" transform="scale(0.015625)"/>
       <path id="DejaVuSans-6d" d="M 3328 2828 
Q 3544 3216 3844 3400 
Q 4144 3584 4550 3584 
Q 5097 3584 5394 3201 
Q 5691 2819 5691 2113 
L 5691 0 
L 5113 0 
L 5113 2094 
Q 5113 2597 4934 2840 
Q 4756 3084 4391 3084 
Q 3944 3084 3684 2787 
Q 3425 2491 3425 1978 
L 3425 0 
L 2847 0 
L 2847 2094 
Q 2847 2600 2669 2842 
Q 2491 3084 2119 3084 
Q 1678 3084 1418 2786 
Q 1159 2488 1159 1978 
L 1159 0 
L 581 0 
L 581 3500 
L 1159 3500 
L 1159 2956 
Q 1356 3278 1631 3431 
Q 1906 3584 2284 3584 
Q 2666 3584 2933 3390 
Q 3200 3197 3328 2828 
z
" transform="scale(0.015625)"/>
       <path id="DejaVuSans-29" d="M 513 4856 
L 1013 4856 
Q 1481 4119 1714 3412 
Q 1947 2706 1947 2009 
Q 1947 1309 1714 600 
Q 1481 -109 1013 -844 
L 513 -844 
Q 928 -128 1133 580 
Q 1338 1288 1338 2009 
Q 1338 2731 1133 3434 
Q 928 4138 513 4856 
z
" transform="scale(0.015625)"/>
      </defs>
      <use xlink:href="#DejaVuSans-57"/>
      <use xlink:href="#DejaVuSans-61" x="92.501953"/>
      <use xlink:href="#DejaVuSans-76" x="153.78125"/>
      <use xlink:href="#DejaVuSans-65" x="212.960938"/>
      <use xlink:href="#DejaVuSans-6c" x="274.484375"/>
      <use xlink:href="#DejaVuSans-65" x="302.267578"/>
      <use xlink:href="#DejaVuSans-6e" x="363.791016"/>
      <use xlink:href="#DejaVuSans-67" x="427.169922"/>
      <use xlink:href="#DejaVuSans-74" x="490.646484"/>
      <use xlink:href="#DejaVuSans-68" x="529.855469"/>
      <use xlink:href="#DejaVuSans-20" x="593.234375"/>
      <use xlink:href="#DejaVuSans-28" x="625.021484"/>
      <use xlink:href="#DejaVuSans-6e" x="664.035156"/>
      <use xlink:href="#DejaVuSans-6d" x="727.414062"/>
      <use xlink:href="#DejaVuSans-29" x="824.826172"/>
     </g>
    </g>
   </g>
   <g id="matplotlib.axis_2">
    <g id="ytick_1">
     <g id="line2d_9">
      <defs>
       <path id="mc2e05e7f94" d="M 0 0 
L -3.5 0 
" style="stroke: #000000; stroke-width: 0.8"/>
      </defs>
      <g>
       <use xlink:href="#mc2e05e7f94" x="76.61" y="374.92" style="stroke: #000000; stroke-width: 0.8"/>
      </g>
     </g>
     <g id="text_10">
      <!-- −70 -->
      <g transform="translate(35.8425 380.99875) scale(0.16 -0.16)">
       <defs>
        <path id="DejaVuSans-2212" d="M 678 2272 
L 4684 2272 
L 4684 1741 
L 678 1741 
L 678 2272 
z
" transform="scale(0.015625)"/>
        <path id="DejaVuSans-37" d="M 525 4666 
L 3525 4666 
L 3525 4397 
L 1831 0 
L 1172 0 
L 2766 4134 
L 525 4134 
L 525 4666 
z
" transform="scale(0.015625)"/>
       </defs>
       <use xlink:href="#DejaVuSans-2212"/>
       <use xlink:href="#DejaVuSans-37" x="83.789062"/>
       <use xlink:href="#DejaVuSans-30" x="147.412109"/>
      </g>
     </g>
    </g>
    <g id="ytick_2">
     <g id="line2d_10">
      <g>
       <use xlink:href="#mc2e05e7f94" x="76.61" y="326.948571" style="stroke: #000000; stroke-width: 0.8"/>
      </g>
     </g>
     <g id="text_11">
      <!-- −60 -->
      <g transform="translate(35.8425 333.027321) scale(0.16 -0.16)">
       <use xlink:href="#DejaVuSans-2212"/>
       <use xlink:href="#DejaVuSans-36" x="83.789062"/>
       <use xlink:href="#DejaVuSans-30" x="147.412109"/>
      </g>
     </g>
    </g>
    <g id="ytick_3">
     <g id="line2d_11">
      <g>
       <use xlink:href="#mc2e05e7f94" x="76.61" y="278.977143" style="stroke: #000000; stroke-width: 0.8"/>
      </g>
     </g>
     <g id="text_12">
      <!-- −50 -->
      <g transform="translate(35.8425 285.055893) scale(0.16 -0.16)">
       <use xlink:href="#DejaVuSans-2212"/>
       <use xlink:href="#DejaVuSans-35" x="83.789062"/>
       <use xlink:href="#DejaVuSans-30" x="147.412109"/>
      </g>
     </g>
    </g>
    <g id="ytick_4">
     <g id="line2d_12">
      <g>
       <use xlink:href="#mc2e05e7f94" x="76.61" y="231.005714" style="stroke: #000000; stroke-width: 0.8"/>
      </g>
     </g>
     <g id="text_13">
      <!-- −40 -->
      <g transform="translate(35.8425 237.084464) scale(0.16 -0.16)">
       <use xlink:href="#DejaVuSans-2212"/>
       <use xlink:href="#DejaVuSans-34" x="83.789062"/>
       <use xlink:href="#DejaVuSans-30" x="147.412109"/>
      </g>
     </g>
    </g>
    <g id="ytick_5">
     <g id="line2d_13">
      <g>
       <use xlink:href="#mc2e05e7f94" x="76.61" y="183.034286" style="stroke: #000000; stroke-width: 0.8"/>
      </g>
     </g>
     <g id="text_14">
      <!-- −30 -->
      <g transform="translate(35.8425 189.113036) scale(0.16 -0.16)">
       <use xlink:href="#DejaVuSans-2212"/>
       <use xlink:href="#DejaVuSans-33" x="83.789062"/>
       <use xlink:href="#DejaVuSans-30" x="147.412109"/>
      </g>
     </g>
    </g>
    <g id="ytick_6">
     <g id="line2d_14">
      <g>
       <use xlink:href="#mc2e05e7f94" x="76.61" y="135.062857" style="stroke: #000000; stroke-width: 0.8"/>
      </g>
     </g>
     <g id="text_15">
      <!-- −20 -->
      <g transform="translate(35.8425 141.141607) scale(0.16 -0.16)">
       <defs>
        <path id="DejaVuSans-32" d="M 1228 531 
L 3431 531 
L 3431 0 
L 469 0 
L 469 531 
Q 828 903 1448 1529 
Q 2069 2156 2228 2338 
Q 2531 2678 2651 2914 
Q 2772 3150 2772 3378 
Q 2772 3750 2511 3984 
Q 2250 4219 1831 4219 
Q 1534 4219 1204 4116 
Q 875 4013 500 3803 
L 500 4441 
Q 881 4594 1212 4672 
Q 1544 4750 1819 4750 
Q 2544 4750 2975 4387 
Q 3406 4025 3406 3419 
Q 3406 3131 3298 2873 
Q 3191 2616 2906 2266 
Q 2828 2175 2409 1742 
Q 1991 1309 1228 531 
z
" transform="scale(0.015625)"/>
       </defs>
       <use xlink:href="#DejaVuSans-2212"/>
       <use xlink:href="#DejaVuSans-32" x="83.789062"/>
       <use xlink:href="#DejaVuSans-30" x="147.412109"/>
      </g>
     </g>
    </g>
    <g id="ytick_7">
     <g id="line2d_15">
      <g>
       <use xlink:href="#mc2e05e7f94" x="76.61" y="87.091429" style="stroke: #000000; stroke-width: 0.8"/>
      </g>
     </g>
     <g id="text_16">
      <!-- −10 -->
      <g transform="translate(35.8425 93.170179) scale(0.16 -0.16)">
       <use xlink:href="#DejaVuSans-2212"/>
       <use xlink:href="#DejaVuSans-31" x="83.789062"/>
       <use xlink:href="#DejaVuSans-30" x="147.412109"/>
      </g>
     </g>
    </g>
    <g id="ytick_8">
     <g id="line2d_16">
      <g>
       <use xlink:href="#mc2e05e7f94" x="76.61" y="39.12" style="stroke: #000000; stroke-width: 0.8"/>
      </g>
     </g>
     <g id="text_17">
      <!-- 0 -->
      <g transform="translate(59.43 45.19875) scale(0.16 -0.16)">
       <use xlink:href="#DejaVuSans-30"/>
      </g>
     </g>
    </g>
    <g id="text_18">
     <!-- Transmittance (dB) -->
     <g transform="translate(28.515 283.08875) rotate(-90) scale(0.16 -0.16)">
      <defs>
       <path id="DejaVuSans-54" d="M -19 4666 
L 3928 4666 
L 3928 4134 
L 2272 4134 
L 2272 0 
L 1638 0 
L 1638 4134 
L -19 4134 
L -19 4666 
z
" transform="scale(0.015625)"/>
       <path id="DejaVuSans-72" d="M 2631 2963 
Q 2534 3019 2420 3045 
Q 2306 3072 2169 3072 
Q 1681 3072 1420 2755 
Q 1159 2438 1159 1844 
L 1159 0 
L 581 0 
L 581 3500 
L 1159 3500 
L 1159 2956 
Q 1341 3275 1631 3429 
Q 1922 3584 2338 3584 
Q 2397 3584 2469 3576 
Q 2541 3569 2628 3553 
L 2631 2963 
z
" transform="scale(0.015625)"/>
       <path id="DejaVuSans-73" d="M 2834 3397 
L 2834 2853 
Q 2591 2978 2328 3040 
Q 2066 3103 1784 3103 
Q 1356 3103 1142 2972 
Q 928 2841 928 2578 
Q 928 2378 1081 2264 
Q 1234 2150 1697 2047 
L 1894 2003 
Q 2506 1872 2764 1633 
Q 3022 1394 3022 966 
Q 3022 478 2636 193 
Q 2250 -91 1575 -91 
Q 1294 -91 989 -36 
Q 684 19 347 128 
L 347 722 
Q 666 556 975 473 
Q 1284 391 1588 391 
Q 1994 391 2212 530 
Q 2431 669 2431 922 
Q 2431 1156 2273 1281 
Q 2116 1406 1581 1522 
L 1381 1569 
Q 847 1681 609 1914 
Q 372 2147 372 2553 
Q 372 3047 722 3315 
Q 1072 3584 1716 3584 
Q 2034 3584 2315 3537 
Q 2597 3491 2834 3397 
z
" transform="scale(0.015625)"/>
       <path id="DejaVuSans-69" d="M 603 3500 
L 1178 3500 
L 1178 0 
L 603 0 
L 603 3500 
z
M 603 4863 
L 1178 4863 
L 1178 4134 
L 603 4134 
L 603 4863 
z
" transform="scale(0.015625)"/>
       <path id="DejaVuSans-63" d="M 3122 3366 
L 3122 2828 
Q 2878 2963 2633 3030 
Q 2388 3097 2138 3097 
Q 1578 3097 1268 2742 
Q 959 2388 959 1747 
Q 959 1106 1268 751 
Q 1578 397 2138 397 
Q 2388 397 2633 464 
Q 2878 531 3122 666 
L 3122 134 
Q 2881 22 2623 -34 
Q 2366 -91 2075 -91 
Q 1284 -91 818 406 
Q 353 903 353 1747 
Q 353 2603 823 3093 
Q 1294 3584 2113 3584 
Q 2378 3584 2631 3529 
Q 2884 3475 3122 3366 
z
" transform="scale(0.015625)"/>
       <path id="DejaVuSans-64" d="M 2906 2969 
L 2906 4863 
L 3481 4863 
L 3481 0 
L 2906 0 
L 2906 525 
Q 2725 213 2448 61 
Q 2172 -91 1784 -91 
Q 1150 -91 751 415 
Q 353 922 353 1747 
Q 353 2572 751 3078 
Q 1150 3584 1784 3584 
Q 2172 3584 2448 3432 
Q 2725 3281 2906 2969 
z
M 947 1747 
Q 947 1113 1208 752 
Q 1469 391 1925 391 
Q 2381 391 2643 752 
Q 2906 1113 2906 1747 
Q 2906 2381 2643 2742 
Q 2381 3103 1925 3103 
Q 1469 3103 1208 2742 
Q 947 2381 947 1747 
z
" transform="scale(0.015625)"/>
       <path id="DejaVuSans-42" d="M 1259 2228 
L 1259 519 
L 2272 519 
Q 2781 519 3026 730 
Q 3272 941 3272 1375 
Q 3272 1813 3026 2020 
Q 2781 2228 2272 2228 
L 1259 2228 
z
M 1259 4147 
L 1259 2741 
L 2194 2741 
Q 2656 2741 2882 2914 
Q 3109 3088 3109 3444 
Q 3109 3797 2882 3972 
Q 2656 4147 2194 4147 
L 1259 4147 
z
M 628 4666 
L 2241 4666 
Q 2963 4666 3353 4366 
Q 3744 4066 3744 3513 
Q 3744 3084 3544 2831 
Q 3344 2578 2956 2516 
Q 3422 2416 3680 2098 
Q 3938 1781 3938 1306 
Q 3938 681 3513 340 
Q 3088 0 2303 0 
L 628 0 
L 628 4666 
z
" transform="scale(0.015625)"/>
      </defs>
      <use xlink:href="#DejaVuSans-54"/>
      <use xlink:href="#DejaVuSans-72" x="46.333984"/>
      <use xlink:href="#DejaVuSans-61" x="87.447266"/>
      <use xlink:href="#DejaVuSans-6e" x="148.726562"/>
      <use xlink:href="#DejaVuSans-73" x="212.105469"/>
      <use xlink:href="#DejaVuSans-6d" x="264.205078"/>
      <use xlink:href="#DejaVuSans-69" x="361.617188"/>
      <use xlink:href="#DejaVuSans-74" x="389.400391"/>
      <use xlink:href="#DejaVuSans-74" x="428.609375"/>
      <use xlink:href="#DejaVuSans-61" x="467.818359"/>
      <use xlink:href="#DejaVuSans-6e" x="529.097656"/>
      <use xlink:href="#DejaVuSans-63" x="592.476562"/>
      <use xlink:href="#DejaVuSans-65" x="647.457031"/>
      <use xlink:href="#DejaVuSans-20" x="708.980469"/>
      <use xlink:href="#DejaVuSans-28" x="740.767578"/>
      <use xlink:href="#DejaVuSans-64" x="779.78125"/>
      <use xlink:href="#DejaVuSans-42" x="843.257812"/>
      <use xlink:href="#DejaVuSans-29" x="911.861328"/>
     </g>
    </g>
   </g>
   <g id="line2d_17">
    <path d="M 76.61 184.139448 
L 77.89967 176.114211 
L 79.189339 169.389934 
L 80.479009 163.60358 
L 82.413514 156.202173 
L 84.348018 149.923543 
L 86.282523 144.472507 
L 88.217027 139.656991 
L 90.151532 135.344974 
L 92.730871 130.218932 
L 95.31021 125.662164 
L 97.88955 121.562133 
L 100.468889 117.836806 
L 103.693063 113.614575 
L 106.917237 109.792072 
L 110.141411 106.301942 
L 114.01042 102.480823 
L 117.879429 98.996487 
L 121.748438 95.796802 
L 126.262282 92.369762 
L 130.776126 89.224391 
L 135.934805 85.924072 
L 141.093483 82.893477 
L 146.896997 79.761036 
L 152.700511 76.882236 
L 159.148859 73.941212 
L 165.597207 71.23667 
L 172.69039 68.500373 
L 180.428408 65.765337 
L 188.166426 63.259741 
L 196.549279 60.773948 
L 205.576967 58.33275 
L 215.249489 55.958331 
L 225.566847 53.670706 
L 235.884204 51.609958 
L 246.846396 49.644773 
L 258.453423 47.792916 
L 270.705285 46.071505 
L 282.957147 44.570588 
L 295.853844 43.211554 
L 309.395375 42.012478 
L 322.936907 41.033457 
L 337.123273 40.23223 
L 351.30964 39.651486 
L 366.140841 39.272844 
L 380.972042 39.122948 
L 395.803243 39.199446 
L 410.634444 39.502462 
L 425.465646 40.03461 
L 439.652012 40.762816 
L 453.838378 41.712433 
L 467.37991 42.834314 
L 480.921441 44.177861 
L 493.818138 45.676484 
L 506.714835 47.404511 
L 518.966697 49.276199 
L 530.573724 51.27512 
L 541.535916 53.384555 
L 551.853273 55.587096 
L 561.525796 57.864247 
L 571.198318 60.370819 
L 580.226006 62.942858 
L 588.608859 65.55837 
L 596.346877 68.192574 
L 604.084895 71.066965 
L 611.178078 73.942926 
L 617.626426 76.786929 
L 624.074775 79.882443 
L 629.878288 82.916506 
L 635.036967 85.841447 
L 640.195646 89.014618 
L 644.709489 92.026626 
L 649.223333 95.294209 
L 653.737177 98.860814 
L 657.606186 102.19787 
L 661.475195 105.840766 
L 664.699369 109.15189 
L 667.923544 112.759379 
L 671.147718 116.719414 
L 673.727057 120.190264 
L 676.306396 123.983199 
L 678.885736 128.162759 
L 681.465075 132.815238 
L 683.39958 136.684879 
L 685.334084 140.954509 
L 687.268589 145.71558 
L 689.203093 151.095121 
L 691.137598 157.276998 
L 692.427267 161.976591 
L 693.716937 167.275784 
L 695.006607 173.349793 
L 696.296276 180.464095 
L 697.585946 189.049535 
L 698.875616 199.876636 
L 699.52045 206.568577 
L 700.165285 214.544916 
L 700.81012 224.418514 
L 701.454955 237.383035 
L 702.09979 256.304001 
L 702.744625 291.931069 
L 703.389459 335.507864 
L 704.034294 269.754018 
L 704.679129 245.411322 
L 705.323964 230.147426 
L 705.968799 219.001175 
L 706.613634 210.216739 
L 707.903303 196.793093 
L 709.192973 186.658548 
L 710.482643 178.515055 
L 711.772312 171.707841 
L 713.061982 165.860032 
L 714.996486 158.391302 
L 716.930991 152.063953 
L 718.865495 146.575881 
L 720.8 141.731127 
L 720.8 141.731127 
" clip-path="url(#p9808fac6c0)" style="fill: none; stroke: #cd5c5c; stroke-width: 1.5; stroke-linecap: square"/>
   </g>
   <g id="line2d_18">
    <path d="M 76.61 100.548211 
L 80.479009 104.188542 
L 83.703183 107.49817 
L 86.927357 111.104829 
L 90.151532 115.064811 
L 92.730871 118.536282 
L 95.31021 122.330552 
L 97.88955 126.512331 
L 100.468889 131.168158 
L 102.403393 135.04127 
L 104.337898 139.315458 
L 106.272402 144.082524 
L 108.206907 149.470055 
L 110.141411 155.662823 
L 111.431081 160.372031 
L 112.720751 165.683596 
L 114.01042 171.774014 
L 115.30009 178.910993 
L 116.58976 187.529659 
L 117.879429 198.409912 
L 118.524264 205.142416 
L 119.169099 213.176533 
L 119.813934 223.138993 
L 120.458769 236.257719 
L 121.103604 255.512112 
L 122.393273 328.198515 
L 123.038108 266.833638 
L 123.682943 243.026951 
L 124.327778 227.972127 
L 124.972613 216.937259 
L 125.617447 208.222042 
L 126.907117 194.879876 
L 128.196787 184.791815 
L 129.486456 176.678453 
L 130.776126 169.892426 
L 132.065796 164.06039 
L 134.0003 156.60909 
L 135.934805 150.294546 
L 137.869309 144.816406 
L 139.803814 139.979692 
L 141.738318 135.65063 
L 144.317658 130.506437 
L 146.896997 125.935242 
L 149.476336 121.823447 
L 152.055676 118.088327 
L 155.27985 113.855917 
L 158.504024 110.02495 
L 161.728198 106.527646 
L 165.597207 102.699207 
L 169.466216 99.208622 
L 173.335225 96.003508 
L 177.849069 92.57093 
L 182.362913 89.420682 
L 187.521592 86.11541 
L 192.68027 83.080369 
L 198.483784 79.943384 
L 204.287297 77.060409 
L 210.735646 74.115064 
L 217.183994 71.406449 
L 224.277177 68.665873 
L 232.015195 65.92633 
L 239.753213 63.416326 
L 248.136066 60.925809 
L 257.163754 58.479523 
L 266.836276 56.099595 
L 277.153634 53.805972 
L 287.470991 51.73905 
L 298.433183 49.767066 
L 310.04021 47.907694 
L 322.292072 46.177944 
L 334.543934 44.66822 
L 347.440631 43.299355 
L 360.982162 42.089273 
L 374.523694 41.098473 
L 388.71006 40.283993 
L 402.896426 39.688962 
L 417.727628 39.294156 
L 432.558829 39.126696 
L 447.39003 39.184054 
L 462.221231 39.466148 
L 477.052432 39.975343 
L 491.238799 40.679416 
L 505.425165 41.602439 
L 519.611532 42.753719 
L 533.153063 44.076906 
L 546.04976 45.553498 
L 558.946456 47.256482 
L 571.198318 49.101089 
L 582.805345 51.070837 
L 593.767538 53.148959 
L 604.084895 55.318022 
L 614.402252 57.71667 
L 624.074775 60.198504 
L 633.102462 62.743834 
L 641.485315 65.330723 
L 649.223333 67.934511 
L 656.961351 70.773767 
L 664.054535 73.612394 
L 670.502883 76.417176 
L 676.951231 79.467202 
L 682.754745 82.453635 
L 688.558258 85.705267 
L 693.716937 88.854198 
L 698.230781 91.841454 
L 702.744625 95.080127 
L 707.258468 98.612544 
L 711.127477 101.914926 
L 714.996486 105.516755 
L 718.220661 108.7874 
L 720.8 111.609634 
L 720.8 111.609634 
" clip-path="url(#p9808fac6c0)" style="fill: none; stroke: #f4a460; stroke-width: 1.5; stroke-linecap: square"/>
   </g>
   <g id="line2d_19">
    <path d="M 76.61 70.30651 
L 83.703183 73.225275 
L 90.151532 76.117513 
L 95.955045 78.943699 
L 101.758559 82.013093 
L 106.917237 84.976592 
L 112.075916 88.196602 
L 116.58976 91.257973 
L 121.103604 94.584667 
L 124.972613 97.681822 
L 128.841622 101.044142 
L 132.710631 104.718147 
L 135.934805 108.060853 
L 139.158979 111.706499 
L 142.383153 115.71318 
L 144.962492 119.229281 
L 147.541832 123.076681 
L 150.121171 127.32282 
L 152.700511 132.058279 
L 154.635015 136.004769 
L 156.56952 140.36831 
L 158.504024 145.246604 
L 160.438529 150.776439 
L 162.373033 157.157791 
L 163.662703 162.030978 
L 164.952372 167.552008 
L 166.242042 173.919391 
L 167.531712 181.439793 
L 168.821381 190.624428 
L 170.111051 202.424534 
L 170.755886 209.872785 
L 171.400721 218.948747 
L 172.045556 230.568533 
L 172.69039 246.738159 
L 173.335225 273.516505 
L 173.98006 370.096381 
L 174.624895 282.658665 
L 175.26973 251.29834 
L 175.914565 233.610089 
L 176.559399 221.232745 
L 177.204234 211.703185 
L 178.493904 197.421799 
L 179.783574 186.807844 
L 181.073243 178.358225 
L 182.362913 171.338642 
L 183.652583 165.334912 
L 185.587087 157.697179 
L 187.521592 151.249158 
L 189.456096 145.670711 
L 191.390601 140.755838 
L 193.325105 136.364138 
L 195.904444 131.153483 
L 198.483784 126.529687 
L 201.063123 122.375195 
L 203.642462 118.604697 
L 206.866637 114.335735 
L 210.090811 110.474603 
L 213.314985 106.951946 
L 217.183994 103.097913 
L 221.053003 99.585767 
L 224.922012 96.362198 
L 229.435856 92.911138 
L 233.9497 89.744974 
L 239.108378 86.423954 
L 244.267057 83.375205 
L 250.070571 80.224704 
L 255.874084 77.329797 
L 262.322432 74.372649 
L 268.770781 71.653436 
L 275.863964 68.902293 
L 283.601982 66.152238 
L 291.34 63.632543 
L 299.722853 61.132235 
L 308.750541 58.676025 
L 318.423063 56.285986 
L 328.74042 53.98199 
L 339.057778 51.904968 
L 350.01997 49.922412 
L 361.626997 48.051895 
L 373.878859 46.31031 
L 386.130721 44.788563 
L 399.027417 43.406726 
L 412.568949 42.182559 
L 426.11048 41.177084 
L 440.296847 40.346469 
L 454.483213 39.734394 
L 469.314414 39.32064 
L 484.145616 39.132901 
L 498.976817 39.168448 
L 513.808018 39.426967 
L 528.639219 39.910549 
L 543.47042 40.623788 
L 557.656787 41.527622 
L 571.843153 42.657246 
L 585.384685 43.957111 
L 598.281381 45.408694 
L 611.178078 47.083467 
L 623.42994 48.897768 
L 635.036967 50.835048 
L 645.999159 52.878492 
L 656.961351 55.151101 
L 667.278709 57.522671 
L 676.951231 59.975254 
L 685.978919 62.489174 
L 694.361772 65.042556 
L 702.744625 67.834884 
L 710.482643 70.653883 
L 717.575826 73.470842 
L 720.8 74.833644 
L 720.8 74.833644 
" clip-path="url(#p9808fac6c0)" style="fill: none; stroke: #008000; stroke-width: 1.5; stroke-linecap: square"/>
   </g>
   <g id="line2d_20">
    <path d="M 76.61 54.884558 
L 86.282523 57.17003 
L 95.31021 59.516655 
L 104.337898 62.094371 
L 112.720751 64.721211 
L 120.458769 67.371848 
L 127.551952 70.017662 
L 134.645135 72.898854 
L 141.093483 75.751518 
L 147.541832 78.860077 
L 153.345345 81.910357 
L 158.504024 84.854 
L 163.662703 88.050776 
L 168.176547 91.088348 
L 172.69039 94.387157 
L 177.204234 97.992074 
L 181.073243 101.369104 
L 184.942252 105.0604 
L 188.166426 108.420064 
L 191.390601 112.085682 
L 194.614775 116.116281 
L 197.194114 119.655249 
L 199.773453 123.52989 
L 202.352793 127.809073 
L 204.932132 132.585497 
L 206.866637 136.569821 
L 208.801141 140.979557 
L 210.735646 145.915549 
L 212.67015 151.519528 
L 214.604655 157.99972 
L 215.894324 162.959398 
L 217.183994 168.591666 
L 218.473664 175.107449 
L 219.763333 182.835807 
L 221.053003 192.332862 
L 222.342673 204.655068 
L 222.987508 212.522326 
L 223.632342 222.229096 
L 224.277177 234.906618 
L 224.922012 253.217343 
L 225.566847 286.659609 
L 226.211682 347.664667 
L 226.856517 270.819369 
L 227.501351 245.371076 
L 228.146186 229.687618 
L 228.791021 218.320509 
L 229.435856 209.399802 
L 230.725526 195.816869 
L 232.015195 185.592208 
L 233.304865 177.390812 
L 234.594535 170.543308 
L 235.884204 164.665896 
L 237.818709 157.165131 
L 239.753213 150.815026 
L 241.687718 145.31006 
L 243.622222 140.452365 
L 245.556727 136.106421 
L 248.136066 130.944221 
L 250.715405 126.358678 
L 253.294745 122.235144 
L 255.874084 118.490208 
L 259.098258 114.247532 
L 262.322432 110.407961 
L 265.546607 106.903293 
L 269.415616 103.067247 
L 273.284625 99.570068 
L 277.153634 96.359123 
L 281.667477 92.920475 
L 286.181321 89.764752 
L 291.34 86.453763 
L 296.498679 83.41343 
L 302.302192 80.270856 
L 308.105706 77.38256 
L 314.554054 74.431508 
L 321.002402 71.717312 
L 328.095586 68.97066 
L 335.833604 66.224482 
L 343.571622 63.707768 
L 351.954474 61.209833 
L 360.982162 58.755324 
L 370.654685 56.366253 
L 380.972042 54.062434 
L 391.289399 51.984802 
L 402.251592 50.000815 
L 413.858619 48.127969 
L 426.11048 46.383073 
L 439.007177 44.782617 
L 451.903874 43.406363 
L 465.445405 42.186379 
L 479.631772 41.140978 
L 493.818138 40.321569 
L 508.004505 39.718802 
L 522.835706 39.312915 
L 537.666907 39.131266 
L 552.498108 39.171215 
L 567.329309 39.432495 
L 582.160511 39.917216 
L 596.991712 40.629952 
L 611.178078 41.531716 
L 625.364444 42.657629 
L 638.905976 43.952306 
L 652.447508 45.475235 
L 665.344204 47.153152 
L 677.596066 48.969498 
L 689.203093 50.907816 
L 700.165285 52.951372 
L 711.127477 55.223168 
L 720.8 57.437831 
L 720.8 57.437831 
" clip-path="url(#p9808fac6c0)" style="fill: none; stroke: #20b2aa; stroke-width: 1.5; stroke-linecap: square"/>
   </g>
   <g id="line2d_21">
    <path d="M 76.61 45.881107 
L 88.861862 47.598891 
L 100.468889 49.447631 
L 111.431081 51.409347 
L 122.393273 53.601314 
L 132.710631 55.897179 
L 142.383153 58.278131 
L 151.410841 60.723763 
L 159.793694 63.211617 
L 168.176547 65.93533 
L 175.914565 68.687096 
L 183.007748 71.437922 
L 190.100931 74.438837 
L 196.549279 77.41632 
L 202.352793 80.330053 
L 208.156306 83.499911 
L 213.314985 86.566356 
L 218.473664 89.905601 
L 222.987508 93.088216 
L 227.501351 96.556296 
L 231.37036 99.795006 
L 235.239369 103.322927 
L 239.108378 107.193542 
L 242.332553 110.73081 
L 245.556727 114.607494 
L 248.780901 118.893251 
L 251.36024 122.678377 
L 253.93958 126.848918 
L 256.518919 131.49069 
L 258.453423 135.350764 
L 260.387928 139.609011 
L 262.322432 144.356192 
L 264.256937 149.718272 
L 266.191441 155.877366 
L 267.481111 160.557384 
L 268.770781 165.831815 
L 270.06045 171.873425 
L 271.35012 178.943417 
L 272.63979 187.464471 
L 273.929459 198.189306 
L 274.574294 204.8036 
L 275.219129 212.669807 
L 275.863964 222.374973 
L 276.508799 235.049747 
L 277.153634 253.354688 
L 277.798468 286.776929 
L 278.443303 347.97556 
L 279.088138 270.997811 
L 279.732973 245.538162 
L 280.377808 229.85047 
L 281.022643 218.481146 
L 281.667477 209.559074 
L 282.957147 195.974543 
L 284.246817 185.748967 
L 285.536486 177.546972 
L 286.826156 170.699039 
L 288.115826 164.821298 
L 290.05033 157.320154 
L 291.984835 150.96975 
L 293.919339 145.464534 
L 295.853844 140.606617 
L 297.788348 136.260467 
L 300.367688 131.098008 
L 302.947027 126.512213 
L 305.526366 122.388427 
L 308.105706 118.643233 
L 311.32988 114.400226 
L 314.554054 110.560307 
L 317.778228 107.055273 
L 321.647237 103.218761 
L 325.516246 99.721084 
L 329.385255 96.509608 
L 333.899099 93.070295 
L 338.412943 89.91386 
L 343.571622 86.601995 
L 348.7303 83.56072 
L 354.533814 80.417005 
L 360.337327 77.527481 
L 366.785676 74.574961 
L 373.234024 71.859185 
L 380.327207 69.110666 
L 388.065225 66.362294 
L 395.803243 63.843218 
L 404.186096 61.342532 
L 413.213784 58.884832 
L 422.886306 56.492072 
L 433.203664 54.184003 
L 443.521021 52.101786 
L 454.483213 50.112547 
L 466.09024 48.233697 
L 478.342102 46.481948 
L 491.238799 44.873678 
L 504.135495 43.488959 
L 517.677027 42.259343 
L 531.863393 41.202977 
L 546.04976 40.371642 
L 560.880961 39.732916 
L 575.712162 39.322027 
L 590.543363 39.13383 
L 605.374565 39.165633 
L 620.205766 39.41709 
L 635.036967 39.890188 
L 649.868168 40.589338 
L 664.054535 41.476075 
L 678.240901 42.584727 
L 691.782432 43.860558 
L 705.323964 45.361974 
L 718.220661 47.016514 
L 720.8 47.375233 
L 720.8 47.375233 
" clip-path="url(#p9808fac6c0)" style="fill: none; stroke: #0000ff; stroke-width: 1.5; stroke-linecap: square"/>
   </g>
   <g id="line2d_22">
    <path d="M 76.61 40.929714 
L 90.151532 41.900721 
L 103.693063 43.095388 
L 116.58976 44.452614 
L 129.486456 46.038046 
L 141.738318 47.771505 
L 153.345345 49.63526 
L 164.307538 51.611476 
L 175.26973 53.818449 
L 185.587087 56.129119 
L 195.25961 58.524783 
L 204.287297 60.985123 
L 212.67015 63.487735 
L 221.053003 66.22758 
L 228.791021 68.995803 
L 235.884204 71.7634 
L 242.332553 74.497239 
L 248.780901 77.468511 
L 254.584414 80.375515 
L 260.387928 83.537311 
L 265.546607 86.595204 
L 270.705285 89.92426 
L 275.219129 93.096276 
L 279.732973 96.55176 
L 283.601982 99.777661 
L 287.470991 103.290401 
L 291.34 107.142772 
L 294.564174 110.661796 
L 297.788348 114.516613 
L 301.012523 118.775706 
L 303.591862 122.5349 
L 306.171201 126.674027 
L 308.750541 131.27697 
L 311.32988 136.459098 
L 313.264384 140.82232 
L 315.198889 145.700122 
L 317.133393 151.229231 
L 319.067898 157.609521 
L 320.357568 162.481728 
L 321.647237 168.00146 
L 322.936907 174.367076 
L 324.226577 181.884969 
L 325.516246 191.065815 
L 326.805916 202.859609 
L 327.450751 210.302837 
L 328.095586 219.371324 
L 328.74042 230.978819 
L 329.385255 247.124502 
L 330.03009 273.835801 
L 330.674925 369.141861 
L 331.31976 283.296433 
L 331.964595 251.842423 
L 332.609429 234.125336 
L 333.254264 221.733976 
L 333.899099 212.196124 
L 335.188769 197.905349 
L 336.478438 187.286195 
L 337.768108 178.833251 
L 339.057778 171.811339 
L 340.347447 165.805869 
L 342.281952 158.16619 
L 344.216456 151.716702 
L 346.150961 146.137077 
L 348.085465 141.221208 
L 350.01997 136.828631 
L 352.599309 131.616923 
L 355.178649 126.992154 
L 357.757988 122.836731 
L 360.337327 119.06532 
L 363.561502 114.795215 
L 366.785676 110.932922 
L 370.00985 107.409069 
L 373.878859 103.553539 
L 377.747868 100.039818 
L 381.616877 96.814586 
L 386.130721 93.361467 
L 390.644565 90.19311 
L 395.803243 86.869409 
L 400.961922 83.81779 
L 406.765435 80.663824 
L 412.568949 77.765197 
L 419.017297 74.803612 
L 425.465646 72.079634 
L 432.558829 69.322866 
L 440.296847 66.566206 
L 448.034865 64.039408 
L 456.417718 61.530831 
L 465.445405 59.065036 
L 475.117928 56.663922 
L 485.435285 54.34717 
L 495.752643 52.256389 
L 506.714835 50.258078 
L 518.321862 48.369553 
L 530.573724 46.607415 
L 543.47042 44.987913 
L 556.367117 43.591568 
L 569.908649 42.349223 
L 584.095015 41.278844 
L 598.281381 40.432692 
L 613.112583 39.777489 
L 627.943784 39.348972 
L 642.774985 39.141837 
L 657.606186 39.15321 
L 672.437387 39.382533 
L 687.268589 39.831546 
L 702.09979 40.504362 
L 716.286156 41.363469 
L 720.8 41.68231 
L 720.8 41.68231 
" clip-path="url(#p9808fac6c0)" style="fill: none; stroke: #9932cc; stroke-width: 1.5; stroke-linecap: square"/>
   </g>
   <g id="patch_3">
    <path d="M 76.61 374.92 
L 76.61 39.12 
" style="fill: none; stroke: #000000; stroke-width: 0.8; stroke-linejoin: miter; stroke-linecap: square"/>
   </g>
   <g id="patch_4">
    <path d="M 720.8 374.92 
L 720.8 39.12 
" style="fill: none; stroke: #000000; stroke-width: 0.8; stroke-linejoin: miter; stroke-linecap: square"/>
   </g>
   <g id="patch_5">
    <path d="M 76.61 374.92 
L 720.8 374.92 
" style="fill: none; stroke: #000000; stroke-width: 0.8; stroke-linejoin: miter; stroke-linecap: square"/>
   </g>
   <g id="patch_6">
    <path d="M 76.61 39.12 
L 720.8 39.12 
" style="fill: none; stroke: #000000; stroke-width: 0.8; stroke-linejoin: miter; stroke-linecap: square"/>
   </g>
   <g id="text_19">
    <!-- dL=20µm, $\Delta \lambda_{FSR}=34.519$nm -->
    <g transform="translate(259.313 33.12) scale(0.192 -0.192)">
     <defs>
      <path id="DejaVuSans-4c" d="M 628 4666 
L 1259 4666 
L 1259 531 
L 3531 531 
L 3531 0 
L 628 0 
L 628 4666 
z
" transform="scale(0.015625)"/>
      <path id="DejaVuSans-3d" d="M 678 2906 
L 4684 2906 
L 4684 2381 
L 678 2381 
L 678 2906 
z
M 678 1631 
L 4684 1631 
L 4684 1100 
L 678 1100 
L 678 1631 
z
" transform="scale(0.015625)"/>
      <path id="DejaVuSans-b5" d="M 544 -1331 
L 544 3500 
L 1119 3500 
L 1119 1325 
Q 1119 872 1334 640 
Q 1550 409 1972 409 
Q 2434 409 2667 671 
Q 2900 934 2900 1459 
L 2900 3500 
L 3475 3500 
L 3475 806 
Q 3475 619 3529 530 
Q 3584 441 3700 441 
Q 3728 441 3778 458 
Q 3828 475 3916 513 
L 3916 50 
Q 3788 -22 3673 -56 
Q 3559 -91 3450 -91 
Q 3234 -91 3106 31 
Q 2978 153 2931 403 
Q 2775 156 2548 32 
Q 2322 -91 2016 -91 
Q 1697 -91 1473 31 
Q 1250 153 1119 397 
L 1119 -1331 
L 544 -1331 
z
" transform="scale(0.015625)"/>
      <path id="DejaVuSans-2c" d="M 750 794 
L 1409 794 
L 1409 256 
L 897 -744 
L 494 -744 
L 750 256 
L 750 794 
z
" transform="scale(0.015625)"/>
      <path id="DejaVuSans-394" d="M 2188 4044 
L 906 525 
L 3472 525 
L 2188 4044 
z
M 50 0 
L 1831 4666 
L 2547 4666 
L 4325 0 
L 50 0 
z
" transform="scale(0.015625)"/>
      <path id="DejaVuSans-Oblique-3bb" d="M 2350 4316 
L 3125 0 
L 2516 0 
L 2038 2588 
L 328 0 
L -281 0 
L 1903 3356 
L 1794 3975 
Q 1725 4369 1391 4369 
L 1091 4369 
L 1184 4863 
L 1550 4856 
Q 2253 4847 2350 4316 
z
" transform="scale(0.015625)"/>
      <path id="DejaVuSans-Oblique-46" d="M 1081 4666 
L 3756 4666 
L 3653 4134 
L 1606 4134 
L 1338 2759 
L 3188 2759 
L 3084 2228 
L 1234 2228 
L 800 0 
L 172 0 
L 1081 4666 
z
" transform="scale(0.015625)"/>
      <path id="DejaVuSans-Oblique-53" d="M 3859 4513 
L 3738 3897 
Q 3422 4066 3111 4152 
Q 2800 4238 2509 4238 
Q 1944 4238 1609 3991 
Q 1275 3744 1275 3334 
Q 1275 3109 1398 2989 
Q 1522 2869 2034 2731 
L 2413 2638 
Q 3053 2472 3303 2217 
Q 3553 1963 3553 1503 
Q 3553 797 2998 353 
Q 2444 -91 1538 -91 
Q 1166 -91 791 -17 
Q 416 56 38 206 
L 166 856 
Q 513 641 861 531 
Q 1209 422 1556 422 
Q 2147 422 2503 684 
Q 2859 947 2859 1369 
Q 2859 1650 2717 1795 
Q 2575 1941 2106 2059 
L 1728 2156 
Q 1081 2325 845 2545 
Q 609 2766 609 3163 
Q 609 3859 1145 4304 
Q 1681 4750 2541 4750 
Q 2875 4750 3203 4690 
Q 3531 4631 3859 4513 
z
" transform="scale(0.015625)"/>
      <path id="DejaVuSans-Oblique-52" d="M 1613 4147 
L 1294 2491 
L 2106 2491 
Q 2584 2491 2879 2755 
Q 3175 3019 3175 3444 
Q 3175 3784 2976 3965 
Q 2778 4147 2406 4147 
L 1613 4147 
z
M 2772 2241 
Q 2972 2194 3105 2009 
Q 3238 1825 3413 1275 
L 3809 0 
L 3144 0 
L 2778 1197 
Q 2638 1659 2453 1815 
Q 2269 1972 1888 1972 
L 1191 1972 
L 806 0 
L 172 0 
L 1081 4666 
L 2503 4666 
Q 3150 4666 3495 4373 
Q 3841 4081 3841 3531 
Q 3841 3044 3547 2687 
Q 3253 2331 2772 2241 
z
" transform="scale(0.015625)"/>
      <path id="DejaVuSans-2e" d="M 684 794 
L 1344 794 
L 1344 0 
L 684 0 
L 684 794 
z
" transform="scale(0.015625)"/>
      <path id="DejaVuSans-39" d="M 703 97 
L 703 672 
Q 941 559 1184 500 
Q 1428 441 1663 441 
Q 2288 441 2617 861 
Q 2947 1281 2994 2138 
Q 2813 1869 2534 1725 
Q 2256 1581 1919 1581 
Q 1219 1581 811 2004 
Q 403 2428 403 3163 
Q 403 3881 828 4315 
Q 1253 4750 1959 4750 
Q 2769 4750 3195 4129 
Q 3622 3509 3622 2328 
Q 3622 1225 3098 567 
Q 2575 -91 1691 -91 
Q 1453 -91 1209 -44 
Q 966 3 703 97 
z
M 1959 2075 
Q 2384 2075 2632 2365 
Q 2881 2656 2881 3163 
Q 2881 3666 2632 3958 
Q 2384 4250 1959 4250 
Q 1534 4250 1286 3958 
Q 1038 3666 1038 3163 
Q 1038 2656 1286 2365 
Q 1534 2075 1959 2075 
z
" transform="scale(0.015625)"/>
     </defs>
     <use xlink:href="#DejaVuSans-64" transform="translate(0 0.015625)"/>
     <use xlink:href="#DejaVuSans-4c" transform="translate(63.476562 0.015625)"/>
     <use xlink:href="#DejaVuSans-3d" transform="translate(119.189453 0.015625)"/>
     <use xlink:href="#DejaVuSans-32" transform="translate(202.978516 0.015625)"/>
     <use xlink:href="#DejaVuSans-30" transform="translate(266.601562 0.015625)"/>
     <use xlink:href="#DejaVuSans-b5" transform="translate(330.224609 0.015625)"/>
     <use xlink:href="#DejaVuSans-6d" transform="translate(393.847656 0.015625)"/>
     <use xlink:href="#DejaVuSans-2c" transform="translate(491.259766 0.015625)"/>
     <use xlink:href="#DejaVuSans-20" transform="translate(523.046875 0.015625)"/>
     <use xlink:href="#DejaVuSans-394" transform="translate(554.833984 0.015625)"/>
     <use xlink:href="#DejaVuSans-Oblique-3bb" transform="translate(623.242188 0.015625)"/>
     <use xlink:href="#DejaVuSans-Oblique-46" transform="translate(682.421875 -16.390625) scale(0.7)"/>
     <use xlink:href="#DejaVuSans-Oblique-53" transform="translate(722.685547 -16.390625) scale(0.7)"/>
     <use xlink:href="#DejaVuSans-Oblique-52" transform="translate(767.119141 -16.390625) scale(0.7)"/>
     <use xlink:href="#DejaVuSans-3d" transform="translate(837.973633 0.015625)"/>
     <use xlink:href="#DejaVuSans-33" transform="translate(941.245117 0.015625)"/>
     <use xlink:href="#DejaVuSans-34" transform="translate(1004.868164 0.015625)"/>
     <use xlink:href="#DejaVuSans-2e" transform="translate(1068.491211 0.015625)"/>
     <use xlink:href="#DejaVuSans-35" transform="translate(1100.27832 0.015625)"/>
     <use xlink:href="#DejaVuSans-31" transform="translate(1163.901367 0.015625)"/>
     <use xlink:href="#DejaVuSans-39" transform="translate(1227.524414 0.015625)"/>
     <use xlink:href="#DejaVuSans-6e" transform="translate(1291.147461 0.015625)"/>
     <use xlink:href="#DejaVuSans-6d" transform="translate(1354.526367 0.015625)"/>
    </g>
   </g>
   <g id="legend_1">
    <g id="patch_7">
     <path d="M 733.958 300.06 
L 838.438 300.06 
Q 841.638 300.06 841.638 296.86 
L 841.638 117.18 
Q 841.638 113.98 838.438 113.98 
L 733.958 113.98 
Q 730.758 113.98 730.758 117.18 
L 730.758 296.86 
Q 730.758 300.06 733.958 300.06 
z
" style="fill: #ffffff; opacity: 0.8; stroke: #cccccc; stroke-linejoin: miter"/>
    </g>
    <g id="line2d_23">
     <path d="M 737.158 130.46 
L 753.158 130.46 
L 769.158 130.46 
" style="fill: none; stroke: #cd5c5c; stroke-width: 1.5; stroke-linecap: square"/>
    </g>
    <g id="text_20">
     <!-- $\phi=\frac{0\pi}{6}$ -->
     <g transform="translate(781.958 136.06) scale(0.16 -0.16)">
      <defs>
       <path id="DejaVuSans-Oblique-3d5" d="M 2991 4863 
L 2738 3572 
Q 3363 3572 3684 3094 
Q 4016 2606 3850 1747 
Q 3681 888 3159 400 
Q 2653 -78 2028 -78 
L 1784 -1331 
L 1213 -1331 
L 1456 -78 
Q 834 -78 509 400 
Q 178 888 347 1747 
Q 513 2606 1034 3094 
Q 1544 3572 2166 3572 
L 2419 4863 
L 2991 4863 
z
M 2128 434 
Q 2481 434 2784 756 
Q 3116 1116 3244 1747 
Q 3369 2372 3169 2738 
Q 2991 3059 2638 3059 
L 2128 434 
z
M 1556 434 
L 2066 3059 
Q 1716 3059 1413 2738 
Q 1072 2372 953 1747 
Q 834 1116 1028 756 
Q 1203 434 1556 434 
z
" transform="scale(0.015625)"/>
       <path id="DejaVuSans-Oblique-3c0" d="M 584 3500 
L 3938 3500 
L 3825 2925 
L 3384 2925 
L 2966 775 
Q 2922 550 2981 450 
Q 3038 353 3209 353 
Q 3256 353 3325 363 
Q 3397 369 3419 372 
L 3338 -44 
Q 3222 -84 3103 -103 
Q 2981 -122 2866 -122 
Q 2491 -122 2388 81 
Q 2284 288 2391 838 
L 2797 2925 
L 1506 2925 
L 938 0 
L 350 0 
L 919 2925 
L 472 2925 
L 584 3500 
z
" transform="scale(0.015625)"/>
      </defs>
      <use xlink:href="#DejaVuSans-Oblique-3d5" transform="translate(0 0.915625)"/>
      <use xlink:href="#DejaVuSans-3d" transform="translate(85.449219 0.915625)"/>
      <use xlink:href="#DejaVuSans-30" transform="translate(188.720703 46.046875) scale(0.7)"/>
      <use xlink:href="#DejaVuSans-Oblique-3c0" transform="translate(233.256836 46.046875) scale(0.7)"/>
      <use xlink:href="#DejaVuSans-36" transform="translate(209.720703 -38.490625) scale(0.7)"/>
      <path d="M 188.720703 19.7125 
L 188.720703 25.9625 
L 275.400391 25.9625 
L 275.400391 19.7125 
L 188.720703 19.7125 
z
"/>
     </g>
    </g>
    <g id="line2d_24">
     <path d="M 737.158 160.7 
L 753.158 160.7 
L 769.158 160.7 
" style="fill: none; stroke: #f4a460; stroke-width: 1.5; stroke-linecap: square"/>
    </g>
    <g id="text_21">
     <!-- $\phi=\frac{2\pi}{6}$ -->
     <g transform="translate(781.958 166.3) scale(0.16 -0.16)">
      <use xlink:href="#DejaVuSans-Oblique-3d5" transform="translate(0 0.915625)"/>
      <use xlink:href="#DejaVuSans-3d" transform="translate(85.449219 0.915625)"/>
      <use xlink:href="#DejaVuSans-32" transform="translate(188.720703 46.046875) scale(0.7)"/>
      <use xlink:href="#DejaVuSans-Oblique-3c0" transform="translate(233.256836 46.046875) scale(0.7)"/>
      <use xlink:href="#DejaVuSans-36" transform="translate(209.720703 -38.490625) scale(0.7)"/>
      <path d="M 188.720703 19.7125 
L 188.720703 25.9625 
L 275.400391 25.9625 
L 275.400391 19.7125 
L 188.720703 19.7125 
z
"/>
     </g>
    </g>
    <g id="line2d_25">
     <path d="M 737.158 190.78 
L 753.158 190.78 
L 769.158 190.78 
" style="fill: none; stroke: #008000; stroke-width: 1.5; stroke-linecap: square"/>
    </g>
    <g id="text_22">
     <!-- $\phi=\frac{4\pi}{6}$ -->
     <g transform="translate(781.958 196.38) scale(0.16 -0.16)">
      <use xlink:href="#DejaVuSans-Oblique-3d5" transform="translate(0 0.834375)"/>
      <use xlink:href="#DejaVuSans-3d" transform="translate(85.449219 0.834375)"/>
      <use xlink:href="#DejaVuSans-34" transform="translate(188.720703 45.965625) scale(0.7)"/>
      <use xlink:href="#DejaVuSans-Oblique-3c0" transform="translate(233.256836 45.965625) scale(0.7)"/>
      <use xlink:href="#DejaVuSans-36" transform="translate(209.720703 -38.571875) scale(0.7)"/>
      <path d="M 188.720703 19.63125 
L 188.720703 25.88125 
L 275.400391 25.88125 
L 275.400391 19.63125 
L 188.720703 19.63125 
z
"/>
     </g>
    </g>
    <g id="line2d_26">
     <path d="M 737.158 221.02 
L 753.158 221.02 
L 769.158 221.02 
" style="fill: none; stroke: #20b2aa; stroke-width: 1.5; stroke-linecap: square"/>
    </g>
    <g id="text_23">
     <!-- $\phi=\frac{6\pi}{6}$ -->
     <g transform="translate(781.958 226.62) scale(0.16 -0.16)">
      <use xlink:href="#DejaVuSans-Oblique-3d5" transform="translate(0 0.915625)"/>
      <use xlink:href="#DejaVuSans-3d" transform="translate(85.449219 0.915625)"/>
      <use xlink:href="#DejaVuSans-36" transform="translate(188.720703 46.046875) scale(0.7)"/>
      <use xlink:href="#DejaVuSans-Oblique-3c0" transform="translate(233.256836 46.046875) scale(0.7)"/>
      <use xlink:href="#DejaVuSans-36" transform="translate(209.720703 -38.490625) scale(0.7)"/>
      <path d="M 188.720703 19.7125 
L 188.720703 25.9625 
L 275.400391 25.9625 
L 275.400391 19.7125 
L 188.720703 19.7125 
z
"/>
     </g>
    </g>
    <g id="line2d_27">
     <path d="M 737.158 251.26 
L 753.158 251.26 
L 769.158 251.26 
" style="fill: none; stroke: #0000ff; stroke-width: 1.5; stroke-linecap: square"/>
    </g>
    <g id="text_24">
     <!-- $\phi=\frac{8\pi}{6}$ -->
     <g transform="translate(781.958 256.86) scale(0.16 -0.16)">
      <defs>
       <path id="DejaVuSans-38" d="M 2034 2216 
Q 1584 2216 1326 1975 
Q 1069 1734 1069 1313 
Q 1069 891 1326 650 
Q 1584 409 2034 409 
Q 2484 409 2743 651 
Q 3003 894 3003 1313 
Q 3003 1734 2745 1975 
Q 2488 2216 2034 2216 
z
M 1403 2484 
Q 997 2584 770 2862 
Q 544 3141 544 3541 
Q 544 4100 942 4425 
Q 1341 4750 2034 4750 
Q 2731 4750 3128 4425 
Q 3525 4100 3525 3541 
Q 3525 3141 3298 2862 
Q 3072 2584 2669 2484 
Q 3125 2378 3379 2068 
Q 3634 1759 3634 1313 
Q 3634 634 3220 271 
Q 2806 -91 2034 -91 
Q 1263 -91 848 271 
Q 434 634 434 1313 
Q 434 1759 690 2068 
Q 947 2378 1403 2484 
z
M 1172 3481 
Q 1172 3119 1398 2916 
Q 1625 2713 2034 2713 
Q 2441 2713 2670 2916 
Q 2900 3119 2900 3481 
Q 2900 3844 2670 4047 
Q 2441 4250 2034 4250 
Q 1625 4250 1398 4047 
Q 1172 3844 1172 3481 
z
" transform="scale(0.015625)"/>
      </defs>
      <use xlink:href="#DejaVuSans-Oblique-3d5" transform="translate(0 0.915625)"/>
      <use xlink:href="#DejaVuSans-3d" transform="translate(85.449219 0.915625)"/>
      <use xlink:href="#DejaVuSans-38" transform="translate(188.720703 46.046875) scale(0.7)"/>
      <use xlink:href="#DejaVuSans-Oblique-3c0" transform="translate(233.256836 46.046875) scale(0.7)"/>
      <use xlink:href="#DejaVuSans-36" transform="translate(209.720703 -38.490625) scale(0.7)"/>
      <path d="M 188.720703 19.7125 
L 188.720703 25.9625 
L 275.400391 25.9625 
L 275.400391 19.7125 
L 188.720703 19.7125 
z
"/>
     </g>
    </g>
    <g id="line2d_28">
     <path d="M 737.158 281.5 
L 753.158 281.5 
L 769.158 281.5 
" style="fill: none; stroke: #9932cc; stroke-width: 1.5; stroke-linecap: square"/>
    </g>
    <g id="text_25">
     <!-- $\phi=\frac{10\pi}{6}$ -->
     <g transform="translate(781.958 287.1) scale(0.16 -0.16)">
      <use xlink:href="#DejaVuSans-Oblique-3d5" transform="translate(0 0.915625)"/>
      <use xlink:href="#DejaVuSans-3d" transform="translate(85.449219 0.915625)"/>
      <use xlink:href="#DejaVuSans-31" transform="translate(188.720703 46.046875) scale(0.7)"/>
      <use xlink:href="#DejaVuSans-30" transform="translate(233.256836 46.046875) scale(0.7)"/>
      <use xlink:href="#DejaVuSans-Oblique-3c0" transform="translate(277.792969 46.046875) scale(0.7)"/>
      <use xlink:href="#DejaVuSans-36" transform="translate(231.720703 -38.490625) scale(0.7)"/>
      <path d="M 188.720703 19.7125 
L 188.720703 25.9625 
L 319.936523 25.9625 
L 319.936523 19.7125 
L 188.720703 19.7125 
z
"/>
     </g>
    </g>
   </g>
  </g>
 </g>
 <defs>
  <clipPath id="p9808fac6c0">
   <rect x="76.61" y="39.12" width="644.19" height="335.8"/>
  </clipPath>
 </defs>
</svg>
