<?xml version="1.0" encoding="utf-8" standalone="no"?>
<!DOCTYPE svg PUBLIC "-//W3C//DTD SVG 1.1//EN"
  "http://www.w3.org/Graphics/SVG/1.1/DTD/svg11.dtd">
<svg xmlns:xlink="http://www.w3.org/1999/xlink" width="864pt" height="432pt" viewBox="0 0 864 432" xmlns="http://www.w3.org/2000/svg" version="1.1">
 <metadata>
  <rdf:RDF xmlns:dc="http://purl.org/dc/elements/1.1/" xmlns:cc="http://creativecommons.org/ns#" xmlns:rdf="http://www.w3.org/1999/02/22-rdf-syntax-ns#">
   <cc:Work>
    <dc:type rdf:resource="http://purl.org/dc/dcmitype/StillImage"/>
    <dc:date>2026-01-21T01:31:12.124952</dc:date>
    <dc:format>image/svg+xml</dc:format>
    <dc:creator>
     <cc:Agent>
      <dc:title>Matplotlib v3.9.2, https://matplotlib.org/</dc:title>
     </cc:Agent>
    </dc:creator>
   </cc:Work>
  </rdf:RDF>
 </metadata>
 <defs>
  <style type="text/css">*{stroke-linejoin: round; stroke-linecap: butt}</style>
 </defs>
 <g id="figure_1">
  <g id="patch_1">
   <path d="M 0 432 
L 864 432 
L 864 0 
L 0 0 
z
" style="fill: #ffffff"/>
  </g>
  <g id="axes_1">
   <g id="patch_2">
    <path d="M 76.61 374.92 
L 720.8 374.92 
L 720.8 39.12 
L 76.61 39.12 
z
" style="fill: #ffffff"/>
   </g>
   <g id="matplotlib.axis_1">
    <g id="xtick_1">
     <g id="line2d_1">
      <defs>
       <path id="mb742de98e0" d="M 0 0 
L 0 3.5 
" style="stroke: #000000; stroke-width: 0.8"/>
      </defs>
      <g>
       <use xlink:href="#mb742de98e0" x="76.61" y="374.92" style="stroke: #000000; stroke-width: 0.8"/>
      </g>
     </g>
     <g id="text_1">
      <!-- 1530 -->
      <g transform="translate(56.25 394.0775) scale(0.16 -0.16)">
       <defs>
        <path id="DejaVuSans-31" d="M 794 531 
L 1825 531 
L 1825 4091 
L 703 3866 
L 703 4441 
L 1819 4666 
L 2450 4666 
L 2450 531 
L 3481 531 
L 3481 0 
L 794 0 
L 794 531 
z
" transform="scale(0.015625)"/>
        <path id="DejaVuSans-35" d="M 691 4666 
L 3169 4666 
L 3169 4134 
L 1269 4134 
L 1269 2991 
Q 1406 3038 1543 3061 
Q 1681 3084 1819 3084 
Q 2600 3084 3056 2656 
Q 3513 2228 3513 1497 
Q 3513 744 3044 326 
Q 2575 -91 1722 -91 
Q 1428 -91 1123 -41 
Q 819 9 494 109 
L 494 744 
Q 775 591 1075 516 
Q 1375 441 1709 441 
Q 2250 441 2565 725 
Q 2881 1009 2881 1497 
Q 2881 1984 2565 2268 
Q 2250 2553 1709 2553 
Q 1456 2553 1204 2497 
Q 953 2441 691 2322 
L 691 4666 
z
" transform="scale(0.015625)"/>
        <path id="DejaVuSans-33" d="M 2597 2516 
Q 3050 2419 3304 2112 
Q 3559 1806 3559 1356 
Q 3559 666 3084 287 
Q 2609 -91 1734 -91 
Q 1441 -91 1130 -33 
Q 819 25 488 141 
L 488 750 
Q 750 597 1062 519 
Q 1375 441 1716 441 
Q 2309 441 2620 675 
Q 2931 909 2931 1356 
Q 2931 1769 2642 2001 
Q 2353 2234 1838 2234 
L 1294 2234 
L 1294 2753 
L 1863 2753 
Q 2328 2753 2575 2939 
Q 2822 3125 2822 3475 
Q 2822 3834 2567 4026 
Q 2313 4219 1838 4219 
Q 1578 4219 1281 4162 
Q 984 4106 628 3988 
L 628 4550 
Q 988 4650 1302 4700 
Q 1616 4750 1894 4750 
Q 2613 4750 3031 4423 
Q 3450 4097 3450 3541 
Q 3450 3153 3228 2886 
Q 3006 2619 2597 2516 
z
" transform="scale(0.015625)"/>
        <path id="DejaVuSans-30" d="M 2034 4250 
Q 1547 4250 1301 3770 
Q 1056 3291 1056 2328 
Q 1056 1369 1301 889 
Q 1547 409 2034 409 
Q 2525 409 2770 889 
Q 3016 1369 3016 2328 
Q 3016 3291 2770 3770 
Q 2525 4250 2034 4250 
z
M 2034 4750 
Q 2819 4750 3233 4129 
Q 3647 3509 3647 2328 
Q 3647 1150 3233 529 
Q 2819 -91 2034 -91 
Q 1250 -91 836 529 
Q 422 1150 422 2328 
Q 422 3509 836 4129 
Q 1250 4750 2034 4750 
z
" transform="scale(0.015625)"/>
       </defs>
       <use xlink:href="#DejaVuSans-31"/>
       <use xlink:href="#DejaVuSans-35" x="63.623047"/>
       <use xlink:href="#DejaVuSans-33" x="127.246094"/>
       <use xlink:href="#DejaVuSans-30" x="190.869141"/>
      </g>
     </g>
    </g>
    <g id="xtick_2">
     <g id="line2d_2">
      <g>
       <use xlink:href="#mb742de98e0" x="168.637143" y="374.92" style="stroke: #000000; stroke-width: 0.8"/>
      </g>
     </g>
     <g id="text_2">
      <!-- 1535 -->
      <g transform="translate(148.277143 394.0775) scale(0.16 -0.16)">
       <use xlink:href="#DejaVuSans-31"/>
       <use xlink:href="#DejaVuSans-35" x="63.623047"/>
       <use xlink:href="#DejaVuSans-33" x="127.246094"/>
       <use xlink:href="#DejaVuSans-35" x="190.869141"/>
      </g>
     </g>
    </g>
    <g id="xtick_3">
     <g id="line2d_3">
      <g>
       <use xlink:href="#mb742de98e0" x="260.664286" y="374.92" style="stroke: #000000; stroke-width: 0.8"/>
      </g>
     </g>
     <g id="text_3">
      <!-- 1540 -->
      <g transform="translate(240.304286 394.0775) scale(0.16 -0.16)">
       <defs>
        <path id="DejaVuSans-34" d="M 2419 4116 
L 825 1625 
L 2419 1625 
L 2419 4116 
z
M 2253 4666 
L 3047 4666 
L 3047 1625 
L 3713 1625 
L 3713 1100 
L 3047 1100 
L 3047 0 
L 2419 0 
L 2419 1100 
L 313 1100 
L 313 1709 
L 2253 4666 
z
" transform="scale(0.015625)"/>
       </defs>
       <use xlink:href="#DejaVuSans-31"/>
       <use xlink:href="#DejaVuSans-35" x="63.623047"/>
       <use xlink:href="#DejaVuSans-34" x="127.246094"/>
       <use xlink:href="#DejaVuSans-30" x="190.869141"/>
      </g>
     </g>
    </g>
    <g id="xtick_4">
     <g id="line2d_4">
      <g>
       <use xlink:href="#mb742de98e0" x="352.691429" y="374.92" style="stroke: #000000; stroke-width: 0.8"/>
      </g>
     </g>
     <g id="text_4">
      <!-- 1545 -->
      <g transform="translate(332.331429 394.0775) scale(0.16 -0.16)">
       <use xlink:href="#DejaVuSans-31"/>
       <use xlink:href="#DejaVuSans-35" x="63.623047"/>
       <use xlink:href="#DejaVuSans-34" x="127.246094"/>
       <use xlink:href="#DejaVuSans-35" x="190.869141"/>
      </g>
     </g>
    </g>
    <g id="xtick_5">
     <g id="line2d_5">
      <g>
       <use xlink:href="#mb742de98e0" x="444.718571" y="374.92" style="stroke: #000000; stroke-width: 0.8"/>
      </g>
     </g>
     <g id="text_5">
      <!-- 1550 -->
      <g transform="translate(424.358571 394.0775) scale(0.16 -0.16)">
       <use xlink:href="#DejaVuSans-31"/>
       <use xlink:href="#DejaVuSans-35" x="63.623047"/>
       <use xlink:href="#DejaVuSans-35" x="127.246094"/>
       <use xlink:href="#DejaVuSans-30" x="190.869141"/>
      </g>
     </g>
    </g>
    <g id="xtick_6">
     <g id="line2d_6">
      <g>
       <use xlink:href="#mb742de98e0" x="536.745714" y="374.92" style="stroke: #000000; stroke-width: 0.8"/>
      </g>
     </g>
     <g id="text_6">
      <!-- 1555 -->
      <g transform="translate(516.385714 394.0775) scale(0.16 -0.16)">
       <use xlink:href="#DejaVuSans-31"/>
       <use xlink:href="#DejaVuSans-35" x="63.623047"/>
       <use xlink:href="#DejaVuSans-35" x="127.246094"/>
       <use xlink:href="#DejaVuSans-35" x="190.869141"/>
      </g>
     </g>
    </g>
    <g id="xtick_7">
     <g id="line2d_7">
      <g>
       <use xlink:href="#mb742de98e0" x="628.772857" y="374.92" style="stroke: #000000; stroke-width: 0.8"/>
      </g>
     </g>
     <g id="text_7">
      <!-- 1560 -->
      <g transform="translate(608.412857 394.0775) scale(0.16 -0.16)">
       <defs>
        <path id="DejaVuSans-36" d="M 2113 2584 
Q 1688 2584 1439 2293 
Q 1191 2003 1191 1497 
Q 1191 994 1439 701 
Q 1688 409 2113 409 
Q 2538 409 2786 701 
Q 3034 994 3034 1497 
Q 3034 2003 2786 2293 
Q 2538 2584 2113 2584 
z
M 3366 4563 
L 3366 3988 
Q 3128 4100 2886 4159 
Q 2644 4219 2406 4219 
Q 1781 4219 1451 3797 
Q 1122 3375 1075 2522 
Q 1259 2794 1537 2939 
Q 1816 3084 2150 3084 
Q 2853 3084 3261 2657 
Q 3669 2231 3669 1497 
Q 3669 778 3244 343 
Q 2819 -91 2113 -91 
Q 1303 -91 875 529 
Q 447 1150 447 2328 
Q 447 3434 972 4092 
Q 1497 4750 2381 4750 
Q 2619 4750 2861 4703 
Q 3103 4656 3366 4563 
z
" transform="scale(0.015625)"/>
       </defs>
       <use xlink:href="#DejaVuSans-31"/>
       <use xlink:href="#DejaVuSans-35" x="63.623047"/>
       <use xlink:href="#DejaVuSans-36" x="127.246094"/>
       <use xlink:href="#DejaVuSans-30" x="190.869141"/>
      </g>
     </g>
    </g>
    <g id="xtick_8">
     <g id="line2d_8">
      <g>
       <use xlink:href="#mb742de98e0" x="720.8" y="374.92" style="stroke: #000000; stroke-width: 0.8"/>
      </g>
     </g>
     <g id="text_8">
      <!-- 1565 -->
      <g transform="translate(700.44 394.0775) scale(0.16 -0.16)">
       <use xlink:href="#DejaVuSans-31"/>
       <use xlink:href="#DejaVuSans-35" x="63.623047"/>
       <use xlink:href="#DejaVuSans-36" x="127.246094"/>
       <use xlink:href="#DejaVuSans-35" x="190.869141"/>
      </g>
     </g>
    </g>
    <g id="text_9">
     <!-- Wavelength (nm) -->
     <g transform="translate(329.5975 413.5625) scale(0.16 -0.16)">
      <defs>
       <path id="DejaVuSans-57" d="M 213 4666 
L 850 4666 
L 1831 722 
L 2809 4666 
L 3519 4666 
L 4500 722 
L 5478 4666 
L 6119 4666 
L 4947 0 
L 4153 0 
L 3169 4050 
L 2175 0 
L 1381 0 
L 213 4666 
z
" transform="scale(0.015625)"/>
       <path id="DejaVuSans-61" d="M 2194 1759 
Q 1497 1759 1228 1600 
Q 959 1441 959 1056 
Q 959 750 1161 570 
Q 1363 391 1709 391 
Q 2188 391 2477 730 
Q 2766 1069 2766 1631 
L 2766 1759 
L 2194 1759 
z
M 3341 1997 
L 3341 0 
L 2766 0 
L 2766 531 
Q 2569 213 2275 61 
Q 1981 -91 1556 -91 
Q 1019 -91 701 211 
Q 384 513 384 1019 
Q 384 1609 779 1909 
Q 1175 2209 1959 2209 
L 2766 2209 
L 2766 2266 
Q 2766 2663 2505 2880 
Q 2244 3097 1772 3097 
Q 1472 3097 1187 3025 
Q 903 2953 641 2809 
L 641 3341 
Q 956 3463 1253 3523 
Q 1550 3584 1831 3584 
Q 2591 3584 2966 3190 
Q 3341 2797 3341 1997 
z
" transform="scale(0.015625)"/>
       <path id="DejaVuSans-76" d="M 191 3500 
L 800 3500 
L 1894 563 
L 2988 3500 
L 3597 3500 
L 2284 0 
L 1503 0 
L 191 3500 
z
" transform="scale(0.015625)"/>
       <path id="DejaVuSans-65" d="M 3597 1894 
L 3597 1613 
L 953 1613 
Q 991 1019 1311 708 
Q 1631 397 2203 397 
Q 2534 397 2845 478 
Q 3156 559 3463 722 
L 3463 178 
Q 3153 47 2828 -22 
Q 2503 -91 2169 -91 
Q 1331 -91 842 396 
Q 353 884 353 1716 
Q 353 2575 817 3079 
Q 1281 3584 2069 3584 
Q 2775 3584 3186 3129 
Q 3597 2675 3597 1894 
z
M 3022 2063 
Q 3016 2534 2758 2815 
Q 2500 3097 2075 3097 
Q 1594 3097 1305 2825 
Q 1016 2553 972 2059 
L 3022 2063 
z
" transform="scale(0.015625)"/>
       <path id="DejaVuSans-6c" d="M 603 4863 
L 1178 4863 
L 1178 0 
L 603 0 
L 603 4863 
z
" transform="scale(0.015625)"/>
       <path id="DejaVuSans-6e" d="M 3513 2113 
L 3513 0 
L 2938 0 
L 2938 2094 
Q 2938 2591 2744 2837 
Q 2550 3084 2163 3084 
Q 1697 3084 1428 2787 
Q 1159 2491 1159 1978 
L 1159 0 
L 581 0 
L 581 3500 
L 1159 3500 
L 1159 2956 
Q 1366 3272 1645 3428 
Q 1925 3584 2291 3584 
Q 2894 3584 3203 3211 
Q 3513 2838 3513 2113 
z
" transform="scale(0.015625)"/>
       <path id="DejaVuSans-67" d="M 2906 1791 
Q 2906 2416 2648 2759 
Q 2391 3103 1925 3103 
Q 1463 3103 1205 2759 
Q 947 2416 947 1791 
Q 947 1169 1205 825 
Q 1463 481 1925 481 
Q 2391 481 2648 825 
Q 2906 1169 2906 1791 
z
M 3481 434 
Q 3481 -459 3084 -895 
Q 2688 -1331 1869 -1331 
Q 1566 -1331 1297 -1286 
Q 1028 -1241 775 -1147 
L 775 -588 
Q 1028 -725 1275 -790 
Q 1522 -856 1778 -856 
Q 2344 -856 2625 -561 
Q 2906 -266 2906 331 
L 2906 616 
Q 2728 306 2450 153 
Q 2172 0 1784 0 
Q 1141 0 747 490 
Q 353 981 353 1791 
Q 353 2603 747 3093 
Q 1141 3584 1784 3584 
Q 2172 3584 2450 3431 
Q 2728 3278 2906 2969 
L 2906 3500 
L 3481 3500 
L 3481 434 
z
" transform="scale(0.015625)"/>
       <path id="DejaVuSans-74" d="M 1172 4494 
L 1172 3500 
L 2356 3500 
L 2356 3053 
L 1172 3053 
L 1172 1153 
Q 1172 725 1289 603 
Q 1406 481 1766 481 
L 2356 481 
L 2356 0 
L 1766 0 
Q 1100 0 847 248 
Q 594 497 594 1153 
L 594 3053 
L 172 3053 
L 172 3500 
L 594 3500 
L 594 4494 
L 1172 4494 
z
" transform="scale(0.015625)"/>
       <path id="DejaVuSans-68" d="M 3513 2113 
L 3513 0 
L 2938 0 
L 2938 2094 
Q 2938 2591 2744 2837 
Q 2550 3084 2163 3084 
Q 1697 3084 1428 2787 
Q 1159 2491 1159 1978 
L 1159 0 
L 581 0 
L 581 4863 
L 1159 4863 
L 1159 2956 
Q 1366 3272 1645 3428 
Q 1925 3584 2291 3584 
Q 2894 3584 3203 3211 
Q 3513 2838 3513 2113 
z
" transform="scale(0.015625)"/>
       <path id="DejaVuSans-20" transform="scale(0.015625)"/>
       <path id="DejaVuSans-28" d="M 1984 4856 
Q 1566 4138 1362 3434 
Q 1159 2731 1159 2009 
Q 1159 1288 1364 580 
Q 1569 -128 1984 -844 
L 1484 -844 
Q 1016 -109 783 600 
Q 550 1309 550 2009 
Q 550 2706 781 3412 
Q 1013 4119 1484 4856 
L 1984 4856 
z
" transform="scale(0.015625)"/>
       <path id="DejaVuSans-6d" d="M 3328 2828 
Q 3544 3216 3844 3400 
Q 4144 3584 4550 3584 
Q 5097 3584 5394 3201 
Q 5691 2819 5691 2113 
L 5691 0 
L 5113 0 
L 5113 2094 
Q 5113 2597 4934 2840 
Q 4756 3084 4391 3084 
Q 3944 3084 3684 2787 
Q 3425 2491 3425 1978 
L 3425 0 
L 2847 0 
L 2847 2094 
Q 2847 2600 2669 2842 
Q 2491 3084 2119 3084 
Q 1678 3084 1418 2786 
Q 1159 2488 1159 1978 
L 1159 0 
L 581 0 
L 581 3500 
L 1159 3500 
L 1159 2956 
Q 1356 3278 1631 3431 
Q 1906 3584 2284 3584 
Q 2666 3584 2933 3390 
Q 3200 3197 3328 2828 
z
" transform="scale(0.015625)"/>
       <path id="DejaVuSans-29" d="M 513 4856 
L 1013 4856 
Q 1481 4119 1714 3412 
Q 1947 2706 1947 2009 
Q 1947 1309 1714 600 
Q 1481 -109 1013 -844 
L 513 -844 
Q 928 -128 1133 580 
Q 1338 1288 1338 2009 
Q 1338 2731 1133 3434 
Q 928 4138 513 4856 
z
" transform="scale(0.015625)"/>
      </defs>
      <use xlink:href="#DejaVuSans-57"/>
      <use xlink:href="#DejaVuSans-61" x="92.501953"/>
      <use xlink:href="#DejaVuSans-76" x="153.78125"/>
      <use xlink:href="#DejaVuSans-65" x="212.960938"/>
      <use xlink:href="#DejaVuSans-6c" x="274.484375"/>
      <use xlink:href="#DejaVuSans-65" x="302.267578"/>
      <use xlink:href="#DejaVuSans-6e" x="363.791016"/>
      <use xlink:href="#DejaVuSans-67" x="427.169922"/>
      <use xlink:href="#DejaVuSans-74" x="490.646484"/>
      <use xlink:href="#DejaVuSans-68" x="529.855469"/>
      <use xlink:href="#DejaVuSans-20" x="593.234375"/>
      <use xlink:href="#DejaVuSans-28" x="625.021484"/>
      <use xlink:href="#DejaVuSans-6e" x="664.035156"/>
      <use xlink:href="#DejaVuSans-6d" x="727.414062"/>
      <use xlink:href="#DejaVuSans-29" x="824.826172"/>
     </g>
    </g>
   </g>
   <g id="matplotlib.axis_2">
    <g id="ytick_1">
     <g id="line2d_9">
      <defs>
       <path id="m3c9fe9a3ee" d="M 0 0 
L -3.5 0 
" style="stroke: #000000; stroke-width: 0.8"/>
      </defs>
      <g>
       <use xlink:href="#m3c9fe9a3ee" x="76.61" y="374.92" style="stroke: #000000; stroke-width: 0.8"/>
      </g>
     </g>
     <g id="text_10">
      <!-- −70 -->
      <g transform="translate(35.8425 380.99875) scale(0.16 -0.16)">
       <defs>
        <path id="DejaVuSans-2212" d="M 678 2272 
L 4684 2272 
L 4684 1741 
L 678 1741 
L 678 2272 
z
" transform="scale(0.015625)"/>
        <path id="DejaVuSans-37" d="M 525 4666 
L 3525 4666 
L 3525 4397 
L 1831 0 
L 1172 0 
L 2766 4134 
L 525 4134 
L 525 4666 
z
" transform="scale(0.015625)"/>
       </defs>
       <use xlink:href="#DejaVuSans-2212"/>
       <use xlink:href="#DejaVuSans-37" x="83.789062"/>
       <use xlink:href="#DejaVuSans-30" x="147.412109"/>
      </g>
     </g>
    </g>
    <g id="ytick_2">
     <g id="line2d_10">
      <g>
       <use xlink:href="#m3c9fe9a3ee" x="76.61" y="326.948571" style="stroke: #000000; stroke-width: 0.8"/>
      </g>
     </g>
     <g id="text_11">
      <!-- −60 -->
      <g transform="translate(35.8425 333.027321) scale(0.16 -0.16)">
       <use xlink:href="#DejaVuSans-2212"/>
       <use xlink:href="#DejaVuSans-36" x="83.789062"/>
       <use xlink:href="#DejaVuSans-30" x="147.412109"/>
      </g>
     </g>
    </g>
    <g id="ytick_3">
     <g id="line2d_11">
      <g>
       <use xlink:href="#m3c9fe9a3ee" x="76.61" y="278.977143" style="stroke: #000000; stroke-width: 0.8"/>
      </g>
     </g>
     <g id="text_12">
      <!-- −50 -->
      <g transform="translate(35.8425 285.055893) scale(0.16 -0.16)">
       <use xlink:href="#DejaVuSans-2212"/>
       <use xlink:href="#DejaVuSans-35" x="83.789062"/>
       <use xlink:href="#DejaVuSans-30" x="147.412109"/>
      </g>
     </g>
    </g>
    <g id="ytick_4">
     <g id="line2d_12">
      <g>
       <use xlink:href="#m3c9fe9a3ee" x="76.61" y="231.005714" style="stroke: #000000; stroke-width: 0.8"/>
      </g>
     </g>
     <g id="text_13">
      <!-- −40 -->
      <g transform="translate(35.8425 237.084464) scale(0.16 -0.16)">
       <use xlink:href="#DejaVuSans-2212"/>
       <use xlink:href="#DejaVuSans-34" x="83.789062"/>
       <use xlink:href="#DejaVuSans-30" x="147.412109"/>
      </g>
     </g>
    </g>
    <g id="ytick_5">
     <g id="line2d_13">
      <g>
       <use xlink:href="#m3c9fe9a3ee" x="76.61" y="183.034286" style="stroke: #000000; stroke-width: 0.8"/>
      </g>
     </g>
     <g id="text_14">
      <!-- −30 -->
      <g transform="translate(35.8425 189.113036) scale(0.16 -0.16)">
       <use xlink:href="#DejaVuSans-2212"/>
       <use xlink:href="#DejaVuSans-33" x="83.789062"/>
       <use xlink:href="#DejaVuSans-30" x="147.412109"/>
      </g>
     </g>
    </g>
    <g id="ytick_6">
     <g id="line2d_14">
      <g>
       <use xlink:href="#m3c9fe9a3ee" x="76.61" y="135.062857" style="stroke: #000000; stroke-width: 0.8"/>
      </g>
     </g>
     <g id="text_15">
      <!-- −20 -->
      <g transform="translate(35.8425 141.141607) scale(0.16 -0.16)">
       <defs>
        <path id="DejaVuSans-32" d="M 1228 531 
L 3431 531 
L 3431 0 
L 469 0 
L 469 531 
Q 828 903 1448 1529 
Q 2069 2156 2228 2338 
Q 2531 2678 2651 2914 
Q 2772 3150 2772 3378 
Q 2772 3750 2511 3984 
Q 2250 4219 1831 4219 
Q 1534 4219 1204 4116 
Q 875 4013 500 3803 
L 500 4441 
Q 881 4594 1212 4672 
Q 1544 4750 1819 4750 
Q 2544 4750 2975 4387 
Q 3406 4025 3406 3419 
Q 3406 3131 3298 2873 
Q 3191 2616 2906 2266 
Q 2828 2175 2409 1742 
Q 1991 1309 1228 531 
z
" transform="scale(0.015625)"/>
       </defs>
       <use xlink:href="#DejaVuSans-2212"/>
       <use xlink:href="#DejaVuSans-32" x="83.789062"/>
       <use xlink:href="#DejaVuSans-30" x="147.412109"/>
      </g>
     </g>
    </g>
    <g id="ytick_7">
     <g id="line2d_15">
      <g>
       <use xlink:href="#m3c9fe9a3ee" x="76.61" y="87.091429" style="stroke: #000000; stroke-width: 0.8"/>
      </g>
     </g>
     <g id="text_16">
      <!-- −10 -->
      <g transform="translate(35.8425 93.170179) scale(0.16 -0.16)">
       <use xlink:href="#DejaVuSans-2212"/>
       <use xlink:href="#DejaVuSans-31" x="83.789062"/>
       <use xlink:href="#DejaVuSans-30" x="147.412109"/>
      </g>
     </g>
    </g>
    <g id="ytick_8">
     <g id="line2d_16">
      <g>
       <use xlink:href="#m3c9fe9a3ee" x="76.61" y="39.12" style="stroke: #000000; stroke-width: 0.8"/>
      </g>
     </g>
     <g id="text_17">
      <!-- 0 -->
      <g transform="translate(59.43 45.19875) scale(0.16 -0.16)">
       <use xlink:href="#DejaVuSans-30"/>
      </g>
     </g>
    </g>
    <g id="text_18">
     <!-- Transmittance (dB) -->
     <g transform="translate(28.515 283.08875) rotate(-90) scale(0.16 -0.16)">
      <defs>
       <path id="DejaVuSans-54" d="M -19 4666 
L 3928 4666 
L 3928 4134 
L 2272 4134 
L 2272 0 
L 1638 0 
L 1638 4134 
L -19 4134 
L -19 4666 
z
" transform="scale(0.015625)"/>
       <path id="DejaVuSans-72" d="M 2631 2963 
Q 2534 3019 2420 3045 
Q 2306 3072 2169 3072 
Q 1681 3072 1420 2755 
Q 1159 2438 1159 1844 
L 1159 0 
L 581 0 
L 581 3500 
L 1159 3500 
L 1159 2956 
Q 1341 3275 1631 3429 
Q 1922 3584 2338 3584 
Q 2397 3584 2469 3576 
Q 2541 3569 2628 3553 
L 2631 2963 
z
" transform="scale(0.015625)"/>
       <path id="DejaVuSans-73" d="M 2834 3397 
L 2834 2853 
Q 2591 2978 2328 3040 
Q 2066 3103 1784 3103 
Q 1356 3103 1142 2972 
Q 928 2841 928 2578 
Q 928 2378 1081 2264 
Q 1234 2150 1697 2047 
L 1894 2003 
Q 2506 1872 2764 1633 
Q 3022 1394 3022 966 
Q 3022 478 2636 193 
Q 2250 -91 1575 -91 
Q 1294 -91 989 -36 
Q 684 19 347 128 
L 347 722 
Q 666 556 975 473 
Q 1284 391 1588 391 
Q 1994 391 2212 530 
Q 2431 669 2431 922 
Q 2431 1156 2273 1281 
Q 2116 1406 1581 1522 
L 1381 1569 
Q 847 1681 609 1914 
Q 372 2147 372 2553 
Q 372 3047 722 3315 
Q 1072 3584 1716 3584 
Q 2034 3584 2315 3537 
Q 2597 3491 2834 3397 
z
" transform="scale(0.015625)"/>
       <path id="DejaVuSans-69" d="M 603 3500 
L 1178 3500 
L 1178 0 
L 603 0 
L 603 3500 
z
M 603 4863 
L 1178 4863 
L 1178 4134 
L 603 4134 
L 603 4863 
z
" transform="scale(0.015625)"/>
       <path id="DejaVuSans-63" d="M 3122 3366 
L 3122 2828 
Q 2878 2963 2633 3030 
Q 2388 3097 2138 3097 
Q 1578 3097 1268 2742 
Q 959 2388 959 1747 
Q 959 1106 1268 751 
Q 1578 397 2138 397 
Q 2388 397 2633 464 
Q 2878 531 3122 666 
L 3122 134 
Q 2881 22 2623 -34 
Q 2366 -91 2075 -91 
Q 1284 -91 818 406 
Q 353 903 353 1747 
Q 353 2603 823 3093 
Q 1294 3584 2113 3584 
Q 2378 3584 2631 3529 
Q 2884 3475 3122 3366 
z
" transform="scale(0.015625)"/>
       <path id="DejaVuSans-64" d="M 2906 2969 
L 2906 4863 
L 3481 4863 
L 3481 0 
L 2906 0 
L 2906 525 
Q 2725 213 2448 61 
Q 2172 -91 1784 -91 
Q 1150 -91 751 415 
Q 353 922 353 1747 
Q 353 2572 751 3078 
Q 1150 3584 1784 3584 
Q 2172 3584 2448 3432 
Q 2725 3281 2906 2969 
z
M 947 1747 
Q 947 1113 1208 752 
Q 1469 391 1925 391 
Q 2381 391 2643 752 
Q 2906 1113 2906 1747 
Q 2906 2381 2643 2742 
Q 2381 3103 1925 3103 
Q 1469 3103 1208 2742 
Q 947 2381 947 1747 
z
" transform="scale(0.015625)"/>
       <path id="DejaVuSans-42" d="M 1259 2228 
L 1259 519 
L 2272 519 
Q 2781 519 3026 730 
Q 3272 941 3272 1375 
Q 3272 1813 3026 2020 
Q 2781 2228 2272 2228 
L 1259 2228 
z
M 1259 4147 
L 1259 2741 
L 2194 2741 
Q 2656 2741 2882 2914 
Q 3109 3088 3109 3444 
Q 3109 3797 2882 3972 
Q 2656 4147 2194 4147 
L 1259 4147 
z
M 628 4666 
L 2241 4666 
Q 2963 4666 3353 4366 
Q 3744 4066 3744 3513 
Q 3744 3084 3544 2831 
Q 3344 2578 2956 2516 
Q 3422 2416 3680 2098 
Q 3938 1781 3938 1306 
Q 3938 681 3513 340 
Q 3088 0 2303 0 
L 628 0 
L 628 4666 
z
" transform="scale(0.015625)"/>
      </defs>
      <use xlink:href="#DejaVuSans-54"/>
      <use xlink:href="#DejaVuSans-72" x="46.333984"/>
      <use xlink:href="#DejaVuSans-61" x="87.447266"/>
      <use xlink:href="#DejaVuSans-6e" x="148.726562"/>
      <use xlink:href="#DejaVuSans-73" x="212.105469"/>
      <use xlink:href="#DejaVuSans-6d" x="264.205078"/>
      <use xlink:href="#DejaVuSans-69" x="361.617188"/>
      <use xlink:href="#DejaVuSans-74" x="389.400391"/>
      <use xlink:href="#DejaVuSans-74" x="428.609375"/>
      <use xlink:href="#DejaVuSans-61" x="467.818359"/>
      <use xlink:href="#DejaVuSans-6e" x="529.097656"/>
      <use xlink:href="#DejaVuSans-63" x="592.476562"/>
      <use xlink:href="#DejaVuSans-65" x="647.457031"/>
      <use xlink:href="#DejaVuSans-20" x="708.980469"/>
      <use xlink:href="#DejaVuSans-28" x="740.767578"/>
      <use xlink:href="#DejaVuSans-64" x="779.78125"/>
      <use xlink:href="#DejaVuSans-42" x="843.257812"/>
      <use xlink:href="#DejaVuSans-29" x="911.861328"/>
     </g>
    </g>
   </g>
   <g id="line2d_17">
    <path d="M 76.61 54.212501 
L 96.59988 56.505114 
L 115.30009 58.869547 
L 133.355465 61.377941 
L 150.121171 63.930076 
L 166.242042 66.612743 
L 181.073243 69.30521 
L 195.25961 72.109638 
L 208.156306 74.880625 
L 220.408168 77.736412 
L 232.015195 80.671845 
L 242.977387 83.680445 
L 252.64991 86.554365 
L 261.677598 89.449965 
L 270.705285 92.582808 
L 279.088138 95.737736 
L 286.826156 98.894234 
L 293.919339 102.027143 
L 300.367688 105.106022 
L 306.816036 108.440819 
L 312.61955 111.697428 
L 317.778228 114.829325 
L 322.936907 118.222103 
L 327.450751 121.440795 
L 331.964595 124.933672 
L 335.833604 128.183422 
L 339.702613 131.711444 
L 343.571622 135.569197 
L 346.795796 139.083785 
L 350.01997 142.924393 
L 353.244144 147.157237 
L 355.823483 150.884554 
L 358.402823 154.979458 
L 360.982162 159.522137 
L 363.561502 164.622316 
L 365.496006 168.904597 
L 367.430511 173.678322 
L 369.365015 179.070901 
L 371.29952 185.266821 
L 372.589189 189.976843 
L 373.878859 195.287918 
L 375.168529 201.376136 
L 376.458198 208.508501 
L 377.747868 217.118786 
L 379.037538 227.983924 
L 379.682372 234.70428 
L 380.327207 242.720685 
L 380.972042 252.655459 
L 381.616877 265.7256 
L 382.261712 284.874007 
L 383.551381 359.533898 
L 384.196216 296.863795 
L 384.841051 272.890844 
L 385.485886 257.770539 
L 386.130721 246.700443 
L 386.775556 237.963037 
L 388.065225 224.593964 
L 389.354895 214.489516 
L 390.644565 206.364457 
L 391.934234 199.569105 
L 393.223904 193.729009 
L 395.158408 186.266764 
L 397.092913 179.94175 
L 399.027417 174.453068 
L 400.961922 169.605432 
L 402.896426 165.26488 
L 405.475766 160.104284 
L 408.055105 155.515291 
L 410.634444 151.384189 
L 413.213784 147.628178 
L 416.437958 143.367352 
L 419.662132 139.50535 
L 422.886306 135.974343 
L 426.755315 132.101893 
L 430.624324 128.563365 
L 434.493333 125.306342 
L 439.007177 121.80816 
L 443.521021 118.586844 
L 448.6797 115.193623 
L 453.838378 112.063418 
L 459.641892 108.810705 
L 465.445405 105.802772 
L 471.893754 102.707697 
L 478.986937 99.56204 
L 486.724955 96.396394 
L 494.462973 93.470031 
L 502.845826 90.533372 
L 511.873514 87.606664 
L 521.546036 84.706629 
L 531.863393 81.846965 
L 542.825586 79.038835 
L 554.432613 76.291306 
L 567.329309 73.476455 
L 580.870841 70.756686 
L 595.057207 68.134506 
L 610.533243 65.506892 
L 626.654114 62.99771 
L 644.064655 60.518612 
L 662.12003 58.172376 
L 681.465075 55.884585 
L 702.09979 53.674673 
L 720.8 51.857166 
L 720.8 51.857166 
" clip-path="url(#pe8ea69b55a)" style="fill: none; stroke: #cd5c5c; stroke-width: 1.5; stroke-linecap: square"/>
   </g>
   <g id="line2d_18">
    <path d="M 76.61 45.49059 
L 101.113724 47.150724 
L 124.972613 48.991164 
L 147.541832 50.953271 
L 169.466216 53.084922 
L 190.100931 55.315208 
L 209.445976 57.625018 
L 228.146186 60.082504 
L 245.556727 62.593063 
L 261.677598 65.133005 
L 277.153634 67.791336 
L 291.984835 70.568256 
L 305.526366 73.326883 
L 318.423063 76.180361 
L 330.674925 79.125288 
L 341.637117 81.982078 
L 351.954474 84.890645 
L 361.626997 87.839789 
L 370.654685 90.815769 
L 379.037538 93.801795 
L 386.775556 96.777506 
L 394.513574 99.996979 
L 401.606757 103.196874 
L 408.055105 106.346345 
L 413.858619 109.40841 
L 419.662132 112.721401 
L 424.820811 115.911663 
L 429.979489 119.372673 
L 434.493333 122.661338 
L 439.007177 126.236462 
L 442.876186 129.569168 
L 446.745195 133.194925 
L 450.614204 137.169577 
L 453.838378 140.800689 
L 457.062553 144.780673 
L 460.286727 149.183241 
L 462.866066 153.075521 
L 465.445405 157.370265 
L 468.024745 162.160067 
L 469.959249 166.152899 
L 471.893754 170.56972 
L 473.828258 175.511218 
L 475.762763 181.118874 
L 477.697267 187.600494 
L 478.986937 192.559525 
L 480.276607 198.189443 
L 481.566276 204.700534 
L 482.855946 212.420699 
L 484.145616 221.903711 
L 485.435285 234.200454 
L 486.08012 242.046426 
L 486.724955 251.720351 
L 487.36979 264.341286 
L 488.014625 282.532721 
L 488.659459 315.563846 
L 489.304294 380.716788 
L 489.949129 300.991337 
L 490.593964 275.304604 
L 491.238799 259.532413 
L 491.883634 248.118766 
L 492.528468 239.169215 
L 493.818138 225.551926 
L 495.107808 215.306831 
L 496.397477 207.091217 
L 497.687147 200.23268 
L 498.976817 194.345985 
L 500.911321 186.832997 
L 502.845826 180.471564 
L 504.78033 174.955464 
L 506.714835 170.086433 
L 508.649339 165.728716 
L 511.228679 160.549888 
L 513.808018 155.946449 
L 516.387357 151.80361 
L 518.966697 148.037865 
L 522.190871 143.76697 
L 525.415045 139.896648 
L 528.639219 136.358637 
L 532.508228 132.479104 
L 536.377237 128.934593 
L 540.246246 125.672436 
L 544.76009 122.169092 
L 549.273934 118.943312 
L 554.432613 115.545649 
L 559.591291 112.411551 
L 565.394805 109.154968 
L 571.198318 106.143585 
L 577.646667 103.045059 
L 584.73985 99.895964 
L 592.477868 96.726893 
L 600.215886 93.79736 
L 608.598739 90.857479 
L 617.626426 87.927481 
L 627.298949 85.024064 
L 637.616306 82.160898 
L 648.578498 79.349113 
L 660.185526 76.597741 
L 673.082222 73.778606 
L 686.623754 71.054279 
L 700.81012 68.427219 
L 716.286156 65.794121 
L 720.8 65.06769 
L 720.8 65.06769 
" clip-path="url(#pe8ea69b55a)" style="fill: none; stroke: #f4a460; stroke-width: 1.5; stroke-linecap: square"/>
   </g>
   <g id="line2d_19">
    <path d="M 76.61 40.741784 
L 104.337898 41.687959 
L 131.420961 42.834644 
L 157.859189 44.176959 
L 183.652583 45.711805 
L 208.156306 47.390585 
L 232.015195 49.248334 
L 254.584414 51.226171 
L 276.508799 53.372624 
L 297.143514 55.616534 
L 316.488559 57.938964 
L 335.188769 60.408639 
L 352.599309 62.930668 
L 368.72018 65.481473 
L 384.196216 68.150601 
L 399.027417 70.938373 
L 412.568949 73.707521 
L 425.465646 76.571756 
L 437.717508 79.527791 
L 448.6797 82.39548 
L 458.997057 85.315375 
L 468.66958 88.276346 
L 477.697267 91.264704 
L 486.08012 94.263695 
L 493.818138 97.252961 
L 501.556156 100.487917 
L 508.649339 103.704158 
L 515.097688 106.870758 
L 520.901201 109.950575 
L 526.704715 113.284122 
L 531.863393 116.495634 
L 537.022072 119.98147 
L 541.535916 123.2956 
L 546.04976 126.900679 
L 549.918769 130.263641 
L 553.787778 133.925113 
L 557.011952 137.245349 
L 560.236126 140.855237 
L 563.4603 144.809721 
L 566.684474 149.181098 
L 569.263814 153.042928 
L 571.843153 157.300623 
L 574.422492 162.044382 
L 576.356997 165.994613 
L 578.291502 170.35936 
L 580.226006 175.235758 
L 582.160511 180.759706 
L 584.095015 187.129705 
L 585.384685 191.99106 
L 586.674354 197.495382 
L 587.964024 203.838994 
L 589.253694 211.324646 
L 590.543363 220.455788 
L 591.833033 232.165771 
L 592.477868 239.542019 
L 593.122703 248.510755 
L 593.767538 259.954511 
L 594.412372 275.782843 
L 595.057207 301.618582 
L 595.702042 383.238269 
L 596.346877 315.427253 
L 596.991712 282.642922 
L 597.636547 264.525276 
L 598.281381 251.94059 
L 598.926216 242.288685 
L 600.215886 227.868786 
L 601.505556 217.177772 
L 602.795225 208.678357 
L 604.084895 201.623315 
L 605.374565 195.592496 
L 607.309069 187.923342 
L 609.243574 181.450331 
L 611.178078 175.850519 
L 613.112583 170.916355 
L 615.047087 166.506509 
L 617.626426 161.272451 
L 620.205766 156.625373 
L 622.785105 152.447173 
L 625.364444 148.652183 
L 628.588619 144.351137 
L 631.812793 140.455999 
L 635.036967 136.897193 
L 638.905976 132.996739 
L 642.774985 129.434682 
L 646.643994 126.157577 
L 651.157838 122.63935 
L 655.671682 119.400841 
L 660.83036 115.990686 
L 665.989039 112.845822 
L 671.792553 109.578742 
L 677.596066 106.558214 
L 684.044414 103.450778 
L 691.137598 100.293083 
L 698.230781 97.370859 
L 705.968799 94.415261 
L 714.351652 91.450646 
L 720.8 89.317743 
L 720.8 89.317743 
" clip-path="url(#pe8ea69b55a)" style="fill: none; stroke: #008000; stroke-width: 1.5; stroke-linecap: square"/>
   </g>
   <g id="line2d_20">
    <path d="M 76.61 39.124941 
L 105.627568 39.285076 
L 134.645135 39.671618 
L 163.017868 40.271201 
L 191.390601 41.095037 
L 219.118498 42.124212 
L 246.201562 43.352872 
L 272.63979 44.777025 
L 297.788348 46.351152 
L 322.292072 48.106018 
L 345.506126 49.986462 
L 368.075345 52.03652 
L 389.354895 54.189521 
L 409.98961 56.503028 
L 429.334655 58.896626 
L 447.39003 61.350122 
L 464.800571 63.941557 
L 480.921441 66.563839 
L 496.397477 69.309759 
L 510.583844 72.050409 
L 524.125375 74.894086 
L 536.377237 77.685696 
L 547.984264 80.549768 
L 558.946456 83.47935 
L 569.263814 86.465781 
L 578.936336 89.498259 
L 587.964024 92.563342 
L 596.346877 95.644397 
L 604.084895 98.720998 
L 611.178078 101.768324 
L 618.271261 105.068079 
L 624.71961 108.323137 
L 630.523123 111.495463 
L 636.326637 114.936992 
L 641.485315 118.260957 
L 645.999159 121.40897 
L 650.513003 124.818759 
L 655.026847 128.536945 
L 658.895856 132.01472 
L 662.764865 135.812405 
L 665.989039 139.267217 
L 669.213213 143.036518 
L 672.437387 147.182875 
L 675.016727 150.82654 
L 677.596066 154.820685 
L 680.175405 159.239676 
L 682.754745 164.184437 
L 684.689249 168.321219 
L 686.623754 172.914811 
L 688.558258 178.078599 
L 690.492763 183.974284 
L 692.427267 190.843943 
L 693.716937 196.146356 
L 695.006607 202.223175 
L 696.296276 209.339878 
L 697.585946 217.927309 
L 698.875616 228.755993 
L 699.52045 235.448571 
L 700.165285 243.425446 
L 700.81012 253.299477 
L 701.454955 266.264329 
L 702.09979 285.185524 
L 702.744625 320.812719 
L 703.389459 364.389538 
L 704.034294 298.635615 
L 704.679129 274.292739 
L 705.323964 259.028561 
L 705.968799 247.881926 
L 706.613634 239.097004 
L 707.903303 225.67208 
L 709.192973 215.535848 
L 710.482643 207.39026 
L 711.772312 200.580543 
L 713.061982 194.729822 
L 714.996486 187.255961 
L 716.930991 180.922562 
L 718.865495 175.427523 
L 720.8 170.574883 
L 720.8 170.574883 
" clip-path="url(#pe8ea69b55a)" style="fill: none; stroke: #20b2aa; stroke-width: 1.5; stroke-linecap: square"/>
   </g>
   <g id="line2d_21">
    <path d="M 76.61 40.397881 
L 104.337898 39.769521 
L 132.710631 39.347178 
L 161.728198 39.140109 
L 190.745766 39.156844 
L 219.763333 39.396184 
L 248.780901 39.859329 
L 277.153634 40.532078 
L 305.526366 41.428132 
L 333.254264 42.527721 
L 360.337327 43.825775 
L 386.130721 45.279866 
L 411.279279 46.916124 
L 435.783003 48.73395 
L 458.997057 50.677107 
L 480.921441 52.728248 
L 502.200991 54.939905 
L 522.190871 57.236989 
L 541.535916 59.685654 
L 559.591291 62.195478 
L 576.356997 64.744349 
L 592.477868 67.419142 
L 607.309069 70.099648 
L 621.495435 72.8877 
L 634.392132 75.638868 
L 646.643994 78.470649 
L 658.251021 81.377757 
L 669.213213 84.353561 
L 679.530571 87.38971 
L 689.203093 90.475683 
L 698.230781 93.598265 
L 706.613634 96.740958 
L 714.351652 99.883332 
L 720.8 102.706708 
L 720.8 102.706708 
" clip-path="url(#pe8ea69b55a)" style="fill: none; stroke: #0000ff; stroke-width: 1.5; stroke-linecap: square"/>
   </g>
   <g id="line2d_22">
    <path d="M 76.61 44.749566 
L 101.758559 43.378335 
L 128.196787 42.162888 
L 155.27985 41.143478 
L 183.007748 40.323928 
L 211.38048 39.709753 
L 240.398048 39.30829 
L 269.415616 39.13035 
L 298.433183 39.172672 
L 327.450751 39.434353 
L 356.468318 39.916817 
L 385.485886 40.623889 
L 413.858619 41.538552 
L 441.586517 42.654067 
L 468.66958 43.965592 
L 495.107808 45.470079 
L 520.256366 47.120947 
L 544.76009 48.951767 
L 567.974144 50.906152 
L 590.543363 53.030948 
L 611.822913 55.258063 
L 631.812793 57.569652 
L 651.157838 60.0325 
L 669.213213 62.555867 
L 685.978919 65.117755 
L 702.09979 67.805665 
L 716.930991 70.498969 
L 720.8 71.239871 
L 720.8 71.239871 
" clip-path="url(#pe8ea69b55a)" style="fill: none; stroke: #9932cc; stroke-width: 1.5; stroke-linecap: square"/>
   </g>
   <g id="patch_3">
    <path d="M 76.61 374.92 
L 76.61 39.12 
" style="fill: none; stroke: #000000; stroke-width: 0.8; stroke-linejoin: miter; stroke-linecap: square"/>
   </g>
   <g id="patch_4">
    <path d="M 720.8 374.92 
L 720.8 39.12 
" style="fill: none; stroke: #000000; stroke-width: 0.8; stroke-linejoin: miter; stroke-linecap: square"/>
   </g>
   <g id="patch_5">
    <path d="M 76.61 374.92 
L 720.8 374.92 
" style="fill: none; stroke: #000000; stroke-width: 0.8; stroke-linejoin: miter; stroke-linecap: square"/>
   </g>
   <g id="patch_6">
    <path d="M 76.61 39.12 
L 720.8 39.12 
" style="fill: none; stroke: #000000; stroke-width: 0.8; stroke-linejoin: miter; stroke-linecap: square"/>
   </g>
   <g id="text_19">
    <!-- dL=10µm, $\Delta \lambda_{FSR}=69.037$nm -->
    <g transform="translate(259.313 33.12) scale(0.192 -0.192)">
     <defs>
      <path id="DejaVuSans-4c" d="M 628 4666 
L 1259 4666 
L 1259 531 
L 3531 531 
L 3531 0 
L 628 0 
L 628 4666 
z
" transform="scale(0.015625)"/>
      <path id="DejaVuSans-3d" d="M 678 2906 
L 4684 2906 
L 4684 2381 
L 678 2381 
L 678 2906 
z
M 678 1631 
L 4684 1631 
L 4684 1100 
L 678 1100 
L 678 1631 
z
" transform="scale(0.015625)"/>
      <path id="DejaVuSans-b5" d="M 544 -1331 
L 544 3500 
L 1119 3500 
L 1119 1325 
Q 1119 872 1334 640 
Q 1550 409 1972 409 
Q 2434 409 2667 671 
Q 2900 934 2900 1459 
L 2900 3500 
L 3475 3500 
L 3475 806 
Q 3475 619 3529 530 
Q 3584 441 3700 441 
Q 3728 441 3778 458 
Q 3828 475 3916 513 
L 3916 50 
Q 3788 -22 3673 -56 
Q 3559 -91 3450 -91 
Q 3234 -91 3106 31 
Q 2978 153 2931 403 
Q 2775 156 2548 32 
Q 2322 -91 2016 -91 
Q 1697 -91 1473 31 
Q 1250 153 1119 397 
L 1119 -1331 
L 544 -1331 
z
" transform="scale(0.015625)"/>
      <path id="DejaVuSans-2c" d="M 750 794 
L 1409 794 
L 1409 256 
L 897 -744 
L 494 -744 
L 750 256 
L 750 794 
z
" transform="scale(0.015625)"/>
      <path id="DejaVuSans-394" d="M 2188 4044 
L 906 525 
L 3472 525 
L 2188 4044 
z
M 50 0 
L 1831 4666 
L 2547 4666 
L 4325 0 
L 50 0 
z
" transform="scale(0.015625)"/>
      <path id="DejaVuSans-Oblique-3bb" d="M 2350 4316 
L 3125 0 
L 2516 0 
L 2038 2588 
L 328 0 
L -281 0 
L 1903 3356 
L 1794 3975 
Q 1725 4369 1391 4369 
L 1091 4369 
L 1184 4863 
L 1550 4856 
Q 2253 4847 2350 4316 
z
" transform="scale(0.015625)"/>
      <path id="DejaVuSans-Oblique-46" d="M 1081 4666 
L 3756 4666 
L 3653 4134 
L 1606 4134 
L 1338 2759 
L 3188 2759 
L 3084 2228 
L 1234 2228 
L 800 0 
L 172 0 
L 1081 4666 
z
" transform="scale(0.015625)"/>
      <path id="DejaVuSans-Oblique-53" d="M 3859 4513 
L 3738 3897 
Q 3422 4066 3111 4152 
Q 2800 4238 2509 4238 
Q 1944 4238 1609 3991 
Q 1275 3744 1275 3334 
Q 1275 3109 1398 2989 
Q 1522 2869 2034 2731 
L 2413 2638 
Q 3053 2472 3303 2217 
Q 3553 1963 3553 1503 
Q 3553 797 2998 353 
Q 2444 -91 1538 -91 
Q 1166 -91 791 -17 
Q 416 56 38 206 
L 166 856 
Q 513 641 861 531 
Q 1209 422 1556 422 
Q 2147 422 2503 684 
Q 2859 947 2859 1369 
Q 2859 1650 2717 1795 
Q 2575 1941 2106 2059 
L 1728 2156 
Q 1081 2325 845 2545 
Q 609 2766 609 3163 
Q 609 3859 1145 4304 
Q 1681 4750 2541 4750 
Q 2875 4750 3203 4690 
Q 3531 4631 3859 4513 
z
" transform="scale(0.015625)"/>
      <path id="DejaVuSans-Oblique-52" d="M 1613 4147 
L 1294 2491 
L 2106 2491 
Q 2584 2491 2879 2755 
Q 3175 3019 3175 3444 
Q 3175 3784 2976 3965 
Q 2778 4147 2406 4147 
L 1613 4147 
z
M 2772 2241 
Q 2972 2194 3105 2009 
Q 3238 1825 3413 1275 
L 3809 0 
L 3144 0 
L 2778 1197 
Q 2638 1659 2453 1815 
Q 2269 1972 1888 1972 
L 1191 1972 
L 806 0 
L 172 0 
L 1081 4666 
L 2503 4666 
Q 3150 4666 3495 4373 
Q 3841 4081 3841 3531 
Q 3841 3044 3547 2687 
Q 3253 2331 2772 2241 
z
" transform="scale(0.015625)"/>
      <path id="DejaVuSans-39" d="M 703 97 
L 703 672 
Q 941 559 1184 500 
Q 1428 441 1663 441 
Q 2288 441 2617 861 
Q 2947 1281 2994 2138 
Q 2813 1869 2534 1725 
Q 2256 1581 1919 1581 
Q 1219 1581 811 2004 
Q 403 2428 403 3163 
Q 403 3881 828 4315 
Q 1253 4750 1959 4750 
Q 2769 4750 3195 4129 
Q 3622 3509 3622 2328 
Q 3622 1225 3098 567 
Q 2575 -91 1691 -91 
Q 1453 -91 1209 -44 
Q 966 3 703 97 
z
M 1959 2075 
Q 2384 2075 2632 2365 
Q 2881 2656 2881 3163 
Q 2881 3666 2632 3958 
Q 2384 4250 1959 4250 
Q 1534 4250 1286 3958 
Q 1038 3666 1038 3163 
Q 1038 2656 1286 2365 
Q 1534 2075 1959 2075 
z
" transform="scale(0.015625)"/>
      <path id="DejaVuSans-2e" d="M 684 794 
L 1344 794 
L 1344 0 
L 684 0 
L 684 794 
z
" transform="scale(0.015625)"/>
     </defs>
     <use xlink:href="#DejaVuSans-64" transform="translate(0 0.015625)"/>
     <use xlink:href="#DejaVuSans-4c" transform="translate(63.476562 0.015625)"/>
     <use xlink:href="#DejaVuSans-3d" transform="translate(119.189453 0.015625)"/>
     <use xlink:href="#DejaVuSans-31" transform="translate(202.978516 0.015625)"/>
     <use xlink:href="#DejaVuSans-30" transform="translate(266.601562 0.015625)"/>
     <use xlink:href="#DejaVuSans-b5" transform="translate(330.224609 0.015625)"/>
     <use xlink:href="#DejaVuSans-6d" transform="translate(393.847656 0.015625)"/>
     <use xlink:href="#DejaVuSans-2c" transform="translate(491.259766 0.015625)"/>
     <use xlink:href="#DejaVuSans-20" transform="translate(523.046875 0.015625)"/>
     <use xlink:href="#DejaVuSans-394" transform="translate(554.833984 0.015625)"/>
     <use xlink:href="#DejaVuSans-Oblique-3bb" transform="translate(623.242188 0.015625)"/>
     <use xlink:href="#DejaVuSans-Oblique-46" transform="translate(682.421875 -16.390625) scale(0.7)"/>
     <use xlink:href="#DejaVuSans-Oblique-53" transform="translate(722.685547 -16.390625) scale(0.7)"/>
     <use xlink:href="#DejaVuSans-Oblique-52" transform="translate(767.119141 -16.390625) scale(0.7)"/>
     <use xlink:href="#DejaVuSans-3d" transform="translate(837.973633 0.015625)"/>
     <use xlink:href="#DejaVuSans-36" transform="translate(941.245117 0.015625)"/>
     <use xlink:href="#DejaVuSans-39" transform="translate(1004.868164 0.015625)"/>
     <use xlink:href="#DejaVuSans-2e" transform="translate(1068.491211 0.015625)"/>
     <use xlink:href="#DejaVuSans-30" transform="translate(1100.27832 0.015625)"/>
     <use xlink:href="#DejaVuSans-33" transform="translate(1163.901367 0.015625)"/>
     <use xlink:href="#DejaVuSans-37" transform="translate(1227.524414 0.015625)"/>
     <use xlink:href="#DejaVuSans-6e" transform="translate(1291.147461 0.015625)"/>
     <use xlink:href="#DejaVuSans-6d" transform="translate(1354.526367 0.015625)"/>
    </g>
   </g>
   <g id="legend_1">
    <g id="patch_7">
     <path d="M 733.958 300.06 
L 838.438 300.06 
Q 841.638 300.06 841.638 296.86 
L 841.638 117.18 
Q 841.638 113.98 838.438 113.98 
L 733.958 113.98 
Q 730.758 113.98 730.758 117.18 
L 730.758 296.86 
Q 730.758 300.06 733.958 300.06 
z
" style="fill: #ffffff; opacity: 0.8; stroke: #cccccc; stroke-linejoin: miter"/>
    </g>
    <g id="line2d_23">
     <path d="M 737.158 130.46 
L 753.158 130.46 
L 769.158 130.46 
" style="fill: none; stroke: #cd5c5c; stroke-width: 1.5; stroke-linecap: square"/>
    </g>
    <g id="text_20">
     <!-- $\phi=\frac{0\pi}{6}$ -->
     <g transform="translate(781.958 136.06) scale(0.16 -0.16)">
      <defs>
       <path id="DejaVuSans-Oblique-3d5" d="M 2991 4863 
L 2738 3572 
Q 3363 3572 3684 3094 
Q 4016 2606 3850 1747 
Q 3681 888 3159 400 
Q 2653 -78 2028 -78 
L 1784 -1331 
L 1213 -1331 
L 1456 -78 
Q 834 -78 509 400 
Q 178 888 347 1747 
Q 513 2606 1034 3094 
Q 1544 3572 2166 3572 
L 2419 4863 
L 2991 4863 
z
M 2128 434 
Q 2481 434 2784 756 
Q 3116 1116 3244 1747 
Q 3369 2372 3169 2738 
Q 2991 3059 2638 3059 
L 2128 434 
z
M 1556 434 
L 2066 3059 
Q 1716 3059 1413 2738 
Q 1072 2372 953 1747 
Q 834 1116 1028 756 
Q 1203 434 1556 434 
z
" transform="scale(0.015625)"/>
       <path id="DejaVuSans-Oblique-3c0" d="M 584 3500 
L 3938 3500 
L 3825 2925 
L 3384 2925 
L 2966 775 
Q 2922 550 2981 450 
Q 3038 353 3209 353 
Q 3256 353 3325 363 
Q 3397 369 3419 372 
L 3338 -44 
Q 3222 -84 3103 -103 
Q 2981 -122 2866 -122 
Q 2491 -122 2388 81 
Q 2284 288 2391 838 
L 2797 2925 
L 1506 2925 
L 938 0 
L 350 0 
L 919 2925 
L 472 2925 
L 584 3500 
z
" transform="scale(0.015625)"/>
      </defs>
      <use xlink:href="#DejaVuSans-Oblique-3d5" transform="translate(0 0.915625)"/>
      <use xlink:href="#DejaVuSans-3d" transform="translate(85.449219 0.915625)"/>
      <use xlink:href="#DejaVuSans-30" transform="translate(188.720703 46.046875) scale(0.7)"/>
      <use xlink:href="#DejaVuSans-Oblique-3c0" transform="translate(233.256836 46.046875) scale(0.7)"/>
      <use xlink:href="#DejaVuSans-36" transform="translate(209.720703 -38.490625) scale(0.7)"/>
      <path d="M 188.720703 19.7125 
L 188.720703 25.9625 
L 275.400391 25.9625 
L 275.400391 19.7125 
L 188.720703 19.7125 
z
"/>
     </g>
    </g>
    <g id="line2d_24">
     <path d="M 737.158 160.7 
L 753.158 160.7 
L 769.158 160.7 
" style="fill: none; stroke: #f4a460; stroke-width: 1.5; stroke-linecap: square"/>
    </g>
    <g id="text_21">
     <!-- $\phi=\frac{2\pi}{6}$ -->
     <g transform="translate(781.958 166.3) scale(0.16 -0.16)">
      <use xlink:href="#DejaVuSans-Oblique-3d5" transform="translate(0 0.915625)"/>
      <use xlink:href="#DejaVuSans-3d" transform="translate(85.449219 0.915625)"/>
      <use xlink:href="#DejaVuSans-32" transform="translate(188.720703 46.046875) scale(0.7)"/>
      <use xlink:href="#DejaVuSans-Oblique-3c0" transform="translate(233.256836 46.046875) scale(0.7)"/>
      <use xlink:href="#DejaVuSans-36" transform="translate(209.720703 -38.490625) scale(0.7)"/>
      <path d="M 188.720703 19.7125 
L 188.720703 25.9625 
L 275.400391 25.9625 
L 275.400391 19.7125 
L 188.720703 19.7125 
z
"/>
     </g>
    </g>
    <g id="line2d_25">
     <path d="M 737.158 190.78 
L 753.158 190.78 
L 769.158 190.78 
" style="fill: none; stroke: #008000; stroke-width: 1.5; stroke-linecap: square"/>
    </g>
    <g id="text_22">
     <!-- $\phi=\frac{4\pi}{6}$ -->
     <g transform="translate(781.958 196.38) scale(0.16 -0.16)">
      <use xlink:href="#DejaVuSans-Oblique-3d5" transform="translate(0 0.834375)"/>
      <use xlink:href="#DejaVuSans-3d" transform="translate(85.449219 0.834375)"/>
      <use xlink:href="#DejaVuSans-34" transform="translate(188.720703 45.965625) scale(0.7)"/>
      <use xlink:href="#DejaVuSans-Oblique-3c0" transform="translate(233.256836 45.965625) scale(0.7)"/>
      <use xlink:href="#DejaVuSans-36" transform="translate(209.720703 -38.571875) scale(0.7)"/>
      <path d="M 188.720703 19.63125 
L 188.720703 25.88125 
L 275.400391 25.88125 
L 275.400391 19.63125 
L 188.720703 19.63125 
z
"/>
     </g>
    </g>
    <g id="line2d_26">
     <path d="M 737.158 221.02 
L 753.158 221.02 
L 769.158 221.02 
" style="fill: none; stroke: #20b2aa; stroke-width: 1.5; stroke-linecap: square"/>
    </g>
    <g id="text_23">
     <!-- $\phi=\frac{6\pi}{6}$ -->
     <g transform="translate(781.958 226.62) scale(0.16 -0.16)">
      <use xlink:href="#DejaVuSans-Oblique-3d5" transform="translate(0 0.915625)"/>
      <use xlink:href="#DejaVuSans-3d" transform="translate(85.449219 0.915625)"/>
      <use xlink:href="#DejaVuSans-36" transform="translate(188.720703 46.046875) scale(0.7)"/>
      <use xlink:href="#DejaVuSans-Oblique-3c0" transform="translate(233.256836 46.046875) scale(0.7)"/>
      <use xlink:href="#DejaVuSans-36" transform="translate(209.720703 -38.490625) scale(0.7)"/>
      <path d="M 188.720703 19.7125 
L 188.720703 25.9625 
L 275.400391 25.9625 
L 275.400391 19.7125 
L 188.720703 19.7125 
z
"/>
     </g>
    </g>
    <g id="line2d_27">
     <path d="M 737.158 251.26 
L 753.158 251.26 
L 769.158 251.26 
" style="fill: none; stroke: #0000ff; stroke-width: 1.5; stroke-linecap: square"/>
    </g>
    <g id="text_24">
     <!-- $\phi=\frac{8\pi}{6}$ -->
     <g transform="translate(781.958 256.86) scale(0.16 -0.16)">
      <defs>
       <path id="DejaVuSans-38" d="M 2034 2216 
Q 1584 2216 1326 1975 
Q 1069 1734 1069 1313 
Q 1069 891 1326 650 
Q 1584 409 2034 409 
Q 2484 409 2743 651 
Q 3003 894 3003 1313 
Q 3003 1734 2745 1975 
Q 2488 2216 2034 2216 
z
M 1403 2484 
Q 997 2584 770 2862 
Q 544 3141 544 3541 
Q 544 4100 942 4425 
Q 1341 4750 2034 4750 
Q 2731 4750 3128 4425 
Q 3525 4100 3525 3541 
Q 3525 3141 3298 2862 
Q 3072 2584 2669 2484 
Q 3125 2378 3379 2068 
Q 3634 1759 3634 1313 
Q 3634 634 3220 271 
Q 2806 -91 2034 -91 
Q 1263 -91 848 271 
Q 434 634 434 1313 
Q 434 1759 690 2068 
Q 947 2378 1403 2484 
z
M 1172 3481 
Q 1172 3119 1398 2916 
Q 1625 2713 2034 2713 
Q 2441 2713 2670 2916 
Q 2900 3119 2900 3481 
Q 2900 3844 2670 4047 
Q 2441 4250 2034 4250 
Q 1625 4250 1398 4047 
Q 1172 3844 1172 3481 
z
" transform="scale(0.015625)"/>
      </defs>
      <use xlink:href="#DejaVuSans-Oblique-3d5" transform="translate(0 0.915625)"/>
      <use xlink:href="#DejaVuSans-3d" transform="translate(85.449219 0.915625)"/>
      <use xlink:href="#DejaVuSans-38" transform="translate(188.720703 46.046875) scale(0.7)"/>
      <use xlink:href="#DejaVuSans-Oblique-3c0" transform="translate(233.256836 46.046875) scale(0.7)"/>
      <use xlink:href="#DejaVuSans-36" transform="translate(209.720703 -38.490625) scale(0.7)"/>
      <path d="M 188.720703 19.7125 
L 188.720703 25.9625 
L 275.400391 25.9625 
L 275.400391 19.7125 
L 188.720703 19.7125 
z
"/>
     </g>
    </g>
    <g id="line2d_28">
     <path d="M 737.158 281.5 
L 753.158 281.5 
L 769.158 281.5 
" style="fill: none; stroke: #9932cc; stroke-width: 1.5; stroke-linecap: square"/>
    </g>
    <g id="text_25">
     <!-- $\phi=\frac{10\pi}{6}$ -->
     <g transform="translate(781.958 287.1) scale(0.16 -0.16)">
      <use xlink:href="#DejaVuSans-Oblique-3d5" transform="translate(0 0.915625)"/>
      <use xlink:href="#DejaVuSans-3d" transform="translate(85.449219 0.915625)"/>
      <use xlink:href="#DejaVuSans-31" transform="translate(188.720703 46.046875) scale(0.7)"/>
      <use xlink:href="#DejaVuSans-30" transform="translate(233.256836 46.046875) scale(0.7)"/>
      <use xlink:href="#DejaVuSans-Oblique-3c0" transform="translate(277.792969 46.046875) scale(0.7)"/>
      <use xlink:href="#DejaVuSans-36" transform="translate(231.720703 -38.490625) scale(0.7)"/>
      <path d="M 188.720703 19.7125 
L 188.720703 25.9625 
L 319.936523 25.9625 
L 319.936523 19.7125 
L 188.720703 19.7125 
z
"/>
     </g>
    </g>
   </g>
  </g>
 </g>
 <defs>
  <clipPath id="pe8ea69b55a">
   <rect x="76.61" y="39.12" width="644.19" height="335.8"/>
  </clipPath>
 </defs>
</svg>
