<?xml version="1.0" encoding="utf-8" standalone="no"?>
<!DOCTYPE svg PUBLIC "-//W3C//DTD SVG 1.1//EN"
  "http://www.w3.org/Graphics/SVG/1.1/DTD/svg11.dtd">
<svg xmlns:xlink="http://www.w3.org/1999/xlink" width="864pt" height="432pt" viewBox="0 0 864 432" xmlns="http://www.w3.org/2000/svg" version="1.1">
 <metadata>
  <rdf:RDF xmlns:dc="http://purl.org/dc/elements/1.1/" xmlns:cc="http://creativecommons.org/ns#" xmlns:rdf="http://www.w3.org/1999/02/22-rdf-syntax-ns#">
   <cc:Work>
    <dc:type rdf:resource="http://purl.org/dc/dcmitype/StillImage"/>
    <dc:date>2026-01-21T01:31:12.312662</dc:date>
    <dc:format>image/svg+xml</dc:format>
    <dc:creator>
     <cc:Agent>
      <dc:title>Matplotlib v3.9.2, https://matplotlib.org/</dc:title>
     </cc:Agent>
    </dc:creator>
   </cc:Work>
  </rdf:RDF>
 </metadata>
 <defs>
  <style type="text/css">*{stroke-linejoin: round; stroke-linecap: butt}</style>
 </defs>
 <g id="figure_1">
  <g id="patch_1">
   <path d="M 0 432 
L 864 432 
L 864 0 
L 0 0 
z
" style="fill: #ffffff"/>
  </g>
  <g id="axes_1">
   <g id="patch_2">
    <path d="M 76.61 374.92 
L 720.8 374.92 
L 720.8 39.12 
L 76.61 39.12 
z
" style="fill: #ffffff"/>
   </g>
   <g id="matplotlib.axis_1">
    <g id="xtick_1">
     <g id="line2d_1">
      <defs>
       <path id="mc9c466036e" d="M 0 0 
L 0 3.5 
" style="stroke: #000000; stroke-width: 0.8"/>
      </defs>
      <g>
       <use xlink:href="#mc9c466036e" x="76.61" y="374.92" style="stroke: #000000; stroke-width: 0.8"/>
      </g>
     </g>
     <g id="text_1">
      <!-- 1530 -->
      <g transform="translate(56.25 394.0775) scale(0.16 -0.16)">
       <defs>
        <path id="DejaVuSans-31" d="M 794 531 
L 1825 531 
L 1825 4091 
L 703 3866 
L 703 4441 
L 1819 4666 
L 2450 4666 
L 2450 531 
L 3481 531 
L 3481 0 
L 794 0 
L 794 531 
z
" transform="scale(0.015625)"/>
        <path id="DejaVuSans-35" d="M 691 4666 
L 3169 4666 
L 3169 4134 
L 1269 4134 
L 1269 2991 
Q 1406 3038 1543 3061 
Q 1681 3084 1819 3084 
Q 2600 3084 3056 2656 
Q 3513 2228 3513 1497 
Q 3513 744 3044 326 
Q 2575 -91 1722 -91 
Q 1428 -91 1123 -41 
Q 819 9 494 109 
L 494 744 
Q 775 591 1075 516 
Q 1375 441 1709 441 
Q 2250 441 2565 725 
Q 2881 1009 2881 1497 
Q 2881 1984 2565 2268 
Q 2250 2553 1709 2553 
Q 1456 2553 1204 2497 
Q 953 2441 691 2322 
L 691 4666 
z
" transform="scale(0.015625)"/>
        <path id="DejaVuSans-33" d="M 2597 2516 
Q 3050 2419 3304 2112 
Q 3559 1806 3559 1356 
Q 3559 666 3084 287 
Q 2609 -91 1734 -91 
Q 1441 -91 1130 -33 
Q 819 25 488 141 
L 488 750 
Q 750 597 1062 519 
Q 1375 441 1716 441 
Q 2309 441 2620 675 
Q 2931 909 2931 1356 
Q 2931 1769 2642 2001 
Q 2353 2234 1838 2234 
L 1294 2234 
L 1294 2753 
L 1863 2753 
Q 2328 2753 2575 2939 
Q 2822 3125 2822 3475 
Q 2822 3834 2567 4026 
Q 2313 4219 1838 4219 
Q 1578 4219 1281 4162 
Q 984 4106 628 3988 
L 628 4550 
Q 988 4650 1302 4700 
Q 1616 4750 1894 4750 
Q 2613 4750 3031 4423 
Q 3450 4097 3450 3541 
Q 3450 3153 3228 2886 
Q 3006 2619 2597 2516 
z
" transform="scale(0.015625)"/>
        <path id="DejaVuSans-30" d="M 2034 4250 
Q 1547 4250 1301 3770 
Q 1056 3291 1056 2328 
Q 1056 1369 1301 889 
Q 1547 409 2034 409 
Q 2525 409 2770 889 
Q 3016 1369 3016 2328 
Q 3016 3291 2770 3770 
Q 2525 4250 2034 4250 
z
M 2034 4750 
Q 2819 4750 3233 4129 
Q 3647 3509 3647 2328 
Q 3647 1150 3233 529 
Q 2819 -91 2034 -91 
Q 1250 -91 836 529 
Q 422 1150 422 2328 
Q 422 3509 836 4129 
Q 1250 4750 2034 4750 
z
" transform="scale(0.015625)"/>
       </defs>
       <use xlink:href="#DejaVuSans-31"/>
       <use xlink:href="#DejaVuSans-35" x="63.623047"/>
       <use xlink:href="#DejaVuSans-33" x="127.246094"/>
       <use xlink:href="#DejaVuSans-30" x="190.869141"/>
      </g>
     </g>
    </g>
    <g id="xtick_2">
     <g id="line2d_2">
      <g>
       <use xlink:href="#mc9c466036e" x="168.637143" y="374.92" style="stroke: #000000; stroke-width: 0.8"/>
      </g>
     </g>
     <g id="text_2">
      <!-- 1535 -->
      <g transform="translate(148.277143 394.0775) scale(0.16 -0.16)">
       <use xlink:href="#DejaVuSans-31"/>
       <use xlink:href="#DejaVuSans-35" x="63.623047"/>
       <use xlink:href="#DejaVuSans-33" x="127.246094"/>
       <use xlink:href="#DejaVuSans-35" x="190.869141"/>
      </g>
     </g>
    </g>
    <g id="xtick_3">
     <g id="line2d_3">
      <g>
       <use xlink:href="#mc9c466036e" x="260.664286" y="374.92" style="stroke: #000000; stroke-width: 0.8"/>
      </g>
     </g>
     <g id="text_3">
      <!-- 1540 -->
      <g transform="translate(240.304286 394.0775) scale(0.16 -0.16)">
       <defs>
        <path id="DejaVuSans-34" d="M 2419 4116 
L 825 1625 
L 2419 1625 
L 2419 4116 
z
M 2253 4666 
L 3047 4666 
L 3047 1625 
L 3713 1625 
L 3713 1100 
L 3047 1100 
L 3047 0 
L 2419 0 
L 2419 1100 
L 313 1100 
L 313 1709 
L 2253 4666 
z
" transform="scale(0.015625)"/>
       </defs>
       <use xlink:href="#DejaVuSans-31"/>
       <use xlink:href="#DejaVuSans-35" x="63.623047"/>
       <use xlink:href="#DejaVuSans-34" x="127.246094"/>
       <use xlink:href="#DejaVuSans-30" x="190.869141"/>
      </g>
     </g>
    </g>
    <g id="xtick_4">
     <g id="line2d_4">
      <g>
       <use xlink:href="#mc9c466036e" x="352.691429" y="374.92" style="stroke: #000000; stroke-width: 0.8"/>
      </g>
     </g>
     <g id="text_4">
      <!-- 1545 -->
      <g transform="translate(332.331429 394.0775) scale(0.16 -0.16)">
       <use xlink:href="#DejaVuSans-31"/>
       <use xlink:href="#DejaVuSans-35" x="63.623047"/>
       <use xlink:href="#DejaVuSans-34" x="127.246094"/>
       <use xlink:href="#DejaVuSans-35" x="190.869141"/>
      </g>
     </g>
    </g>
    <g id="xtick_5">
     <g id="line2d_5">
      <g>
       <use xlink:href="#mc9c466036e" x="444.718571" y="374.92" style="stroke: #000000; stroke-width: 0.8"/>
      </g>
     </g>
     <g id="text_5">
      <!-- 1550 -->
      <g transform="translate(424.358571 394.0775) scale(0.16 -0.16)">
       <use xlink:href="#DejaVuSans-31"/>
       <use xlink:href="#DejaVuSans-35" x="63.623047"/>
       <use xlink:href="#DejaVuSans-35" x="127.246094"/>
       <use xlink:href="#DejaVuSans-30" x="190.869141"/>
      </g>
     </g>
    </g>
    <g id="xtick_6">
     <g id="line2d_6">
      <g>
       <use xlink:href="#mc9c466036e" x="536.745714" y="374.92" style="stroke: #000000; stroke-width: 0.8"/>
      </g>
     </g>
     <g id="text_6">
      <!-- 1555 -->
      <g transform="translate(516.385714 394.0775) scale(0.16 -0.16)">
       <use xlink:href="#DejaVuSans-31"/>
       <use xlink:href="#DejaVuSans-35" x="63.623047"/>
       <use xlink:href="#DejaVuSans-35" x="127.246094"/>
       <use xlink:href="#DejaVuSans-35" x="190.869141"/>
      </g>
     </g>
    </g>
    <g id="xtick_7">
     <g id="line2d_7">
      <g>
       <use xlink:href="#mc9c466036e" x="628.772857" y="374.92" style="stroke: #000000; stroke-width: 0.8"/>
      </g>
     </g>
     <g id="text_7">
      <!-- 1560 -->
      <g transform="translate(608.412857 394.0775) scale(0.16 -0.16)">
       <defs>
        <path id="DejaVuSans-36" d="M 2113 2584 
Q 1688 2584 1439 2293 
Q 1191 2003 1191 1497 
Q 1191 994 1439 701 
Q 1688 409 2113 409 
Q 2538 409 2786 701 
Q 3034 994 3034 1497 
Q 3034 2003 2786 2293 
Q 2538 2584 2113 2584 
z
M 3366 4563 
L 3366 3988 
Q 3128 4100 2886 4159 
Q 2644 4219 2406 4219 
Q 1781 4219 1451 3797 
Q 1122 3375 1075 2522 
Q 1259 2794 1537 2939 
Q 1816 3084 2150 3084 
Q 2853 3084 3261 2657 
Q 3669 2231 3669 1497 
Q 3669 778 3244 343 
Q 2819 -91 2113 -91 
Q 1303 -91 875 529 
Q 447 1150 447 2328 
Q 447 3434 972 4092 
Q 1497 4750 2381 4750 
Q 2619 4750 2861 4703 
Q 3103 4656 3366 4563 
z
" transform="scale(0.015625)"/>
       </defs>
       <use xlink:href="#DejaVuSans-31"/>
       <use xlink:href="#DejaVuSans-35" x="63.623047"/>
       <use xlink:href="#DejaVuSans-36" x="127.246094"/>
       <use xlink:href="#DejaVuSans-30" x="190.869141"/>
      </g>
     </g>
    </g>
    <g id="xtick_8">
     <g id="line2d_8">
      <g>
       <use xlink:href="#mc9c466036e" x="720.8" y="374.92" style="stroke: #000000; stroke-width: 0.8"/>
      </g>
     </g>
     <g id="text_8">
      <!-- 1565 -->
      <g transform="translate(700.44 394.0775) scale(0.16 -0.16)">
       <use xlink:href="#DejaVuSans-31"/>
       <use xlink:href="#DejaVuSans-35" x="63.623047"/>
       <use xlink:href="#DejaVuSans-36" x="127.246094"/>
       <use xlink:href="#DejaVuSans-35" x="190.869141"/>
      </g>
     </g>
    </g>
    <g id="text_9">
     <!-- Wavelength (nm) -->
     <g transform="translate(329.5975 413.5625) scale(0.16 -0.16)">
      <defs>
       <path id="DejaVuSans-57" d="M 213 4666 
L 850 4666 
L 1831 722 
L 2809 4666 
L 3519 4666 
L 4500 722 
L 5478 4666 
L 6119 4666 
L 4947 0 
L 4153 0 
L 3169 4050 
L 2175 0 
L 1381 0 
L 213 4666 
z
" transform="scale(0.015625)"/>
       <path id="DejaVuSans-61" d="M 2194 1759 
Q 1497 1759 1228 1600 
Q 959 1441 959 1056 
Q 959 750 1161 570 
Q 1363 391 1709 391 
Q 2188 391 2477 730 
Q 2766 1069 2766 1631 
L 2766 1759 
L 2194 1759 
z
M 3341 1997 
L 3341 0 
L 2766 0 
L 2766 531 
Q 2569 213 2275 61 
Q 1981 -91 1556 -91 
Q 1019 -91 701 211 
Q 384 513 384 1019 
Q 384 1609 779 1909 
Q 1175 2209 1959 2209 
L 2766 2209 
L 2766 2266 
Q 2766 2663 2505 2880 
Q 2244 3097 1772 3097 
Q 1472 3097 1187 3025 
Q 903 2953 641 2809 
L 641 3341 
Q 956 3463 1253 3523 
Q 1550 3584 1831 3584 
Q 2591 3584 2966 3190 
Q 3341 2797 3341 1997 
z
" transform="scale(0.015625)"/>
       <path id="DejaVuSans-76" d="M 191 3500 
L 800 3500 
L 1894 563 
L 2988 3500 
L 3597 3500 
L 2284 0 
L 1503 0 
L 191 3500 
z
" transform="scale(0.015625)"/>
       <path id="DejaVuSans-65" d="M 3597 1894 
L 3597 1613 
L 953 1613 
Q 991 1019 1311 708 
Q 1631 397 2203 397 
Q 2534 397 2845 478 
Q 3156 559 3463 722 
L 3463 178 
Q 3153 47 2828 -22 
Q 2503 -91 2169 -91 
Q 1331 -91 842 396 
Q 353 884 353 1716 
Q 353 2575 817 3079 
Q 1281 3584 2069 3584 
Q 2775 3584 3186 3129 
Q 3597 2675 3597 1894 
z
M 3022 2063 
Q 3016 2534 2758 2815 
Q 2500 3097 2075 3097 
Q 1594 3097 1305 2825 
Q 1016 2553 972 2059 
L 3022 2063 
z
" transform="scale(0.015625)"/>
       <path id="DejaVuSans-6c" d="M 603 4863 
L 1178 4863 
L 1178 0 
L 603 0 
L 603 4863 
z
" transform="scale(0.015625)"/>
       <path id="DejaVuSans-6e" d="M 3513 2113 
L 3513 0 
L 2938 0 
L 2938 2094 
Q 2938 2591 2744 2837 
Q 2550 3084 2163 3084 
Q 1697 3084 1428 2787 
Q 1159 2491 1159 1978 
L 1159 0 
L 581 0 
L 581 3500 
L 1159 3500 
L 1159 2956 
Q 1366 3272 1645 3428 
Q 1925 3584 2291 3584 
Q 2894 3584 3203 3211 
Q 3513 2838 3513 2113 
z
" transform="scale(0.015625)"/>
       <path id="DejaVuSans-67" d="M 2906 1791 
Q 2906 2416 2648 2759 
Q 2391 3103 1925 3103 
Q 1463 3103 1205 2759 
Q 947 2416 947 1791 
Q 947 1169 1205 825 
Q 1463 481 1925 481 
Q 2391 481 2648 825 
Q 2906 1169 2906 1791 
z
M 3481 434 
Q 3481 -459 3084 -895 
Q 2688 -1331 1869 -1331 
Q 1566 -1331 1297 -1286 
Q 1028 -1241 775 -1147 
L 775 -588 
Q 1028 -725 1275 -790 
Q 1522 -856 1778 -856 
Q 2344 -856 2625 -561 
Q 2906 -266 2906 331 
L 2906 616 
Q 2728 306 2450 153 
Q 2172 0 1784 0 
Q 1141 0 747 490 
Q 353 981 353 1791 
Q 353 2603 747 3093 
Q 1141 3584 1784 3584 
Q 2172 3584 2450 3431 
Q 2728 3278 2906 2969 
L 2906 3500 
L 3481 3500 
L 3481 434 
z
" transform="scale(0.015625)"/>
       <path id="DejaVuSans-74" d="M 1172 4494 
L 1172 3500 
L 2356 3500 
L 2356 3053 
L 1172 3053 
L 1172 1153 
Q 1172 725 1289 603 
Q 1406 481 1766 481 
L 2356 481 
L 2356 0 
L 1766 0 
Q 1100 0 847 248 
Q 594 497 594 1153 
L 594 3053 
L 172 3053 
L 172 3500 
L 594 3500 
L 594 4494 
L 1172 4494 
z
" transform="scale(0.015625)"/>
       <path id="DejaVuSans-68" d="M 3513 2113 
L 3513 0 
L 2938 0 
L 2938 2094 
Q 2938 2591 2744 2837 
Q 2550 3084 2163 3084 
Q 1697 3084 1428 2787 
Q 1159 2491 1159 1978 
L 1159 0 
L 581 0 
L 581 4863 
L 1159 4863 
L 1159 2956 
Q 1366 3272 1645 3428 
Q 1925 3584 2291 3584 
Q 2894 3584 3203 3211 
Q 3513 2838 3513 2113 
z
" transform="scale(0.015625)"/>
       <path id="DejaVuSans-20" transform="scale(0.015625)"/>
       <path id="DejaVuSans-28" d="M 1984 4856 
Q 1566 4138 1362 3434 
Q 1159 2731 1159 2009 
Q 1159 1288 1364 580 
Q 1569 -128 1984 -844 
L 1484 -844 
Q 1016 -109 783 600 
Q 550 1309 550 2009 
Q 550 2706 781 3412 
Q 1013 4119 1484 4856 
L 1984 4856 
z
" transform="scale(0.015625)"/>
       <path id="DejaVuSans-6d" d="M 3328 2828 
Q 3544 3216 3844 3400 
Q 4144 3584 4550 3584 
Q 5097 3584 5394 3201 
Q 5691 2819 5691 2113 
L 5691 0 
L 5113 0 
L 5113 2094 
Q 5113 2597 4934 2840 
Q 4756 3084 4391 3084 
Q 3944 3084 3684 2787 
Q 3425 2491 3425 1978 
L 3425 0 
L 2847 0 
L 2847 2094 
Q 2847 2600 2669 2842 
Q 2491 3084 2119 3084 
Q 1678 3084 1418 2786 
Q 1159 2488 1159 1978 
L 1159 0 
L 581 0 
L 581 3500 
L 1159 3500 
L 1159 2956 
Q 1356 3278 1631 3431 
Q 1906 3584 2284 3584 
Q 2666 3584 2933 3390 
Q 3200 3197 3328 2828 
z
" transform="scale(0.015625)"/>
       <path id="DejaVuSans-29" d="M 513 4856 
L 1013 4856 
Q 1481 4119 1714 3412 
Q 1947 2706 1947 2009 
Q 1947 1309 1714 600 
Q 1481 -109 1013 -844 
L 513 -844 
Q 928 -128 1133 580 
Q 1338 1288 1338 2009 
Q 1338 2731 1133 3434 
Q 928 4138 513 4856 
z
" transform="scale(0.015625)"/>
      </defs>
      <use xlink:href="#DejaVuSans-57"/>
      <use xlink:href="#DejaVuSans-61" x="92.501953"/>
      <use xlink:href="#DejaVuSans-76" x="153.78125"/>
      <use xlink:href="#DejaVuSans-65" x="212.960938"/>
      <use xlink:href="#DejaVuSans-6c" x="274.484375"/>
      <use xlink:href="#DejaVuSans-65" x="302.267578"/>
      <use xlink:href="#DejaVuSans-6e" x="363.791016"/>
      <use xlink:href="#DejaVuSans-67" x="427.169922"/>
      <use xlink:href="#DejaVuSans-74" x="490.646484"/>
      <use xlink:href="#DejaVuSans-68" x="529.855469"/>
      <use xlink:href="#DejaVuSans-20" x="593.234375"/>
      <use xlink:href="#DejaVuSans-28" x="625.021484"/>
      <use xlink:href="#DejaVuSans-6e" x="664.035156"/>
      <use xlink:href="#DejaVuSans-6d" x="727.414062"/>
      <use xlink:href="#DejaVuSans-29" x="824.826172"/>
     </g>
    </g>
   </g>
   <g id="matplotlib.axis_2">
    <g id="ytick_1">
     <g id="line2d_9">
      <defs>
       <path id="md74719e0b5" d="M 0 0 
L -3.5 0 
" style="stroke: #000000; stroke-width: 0.8"/>
      </defs>
      <g>
       <use xlink:href="#md74719e0b5" x="76.61" y="374.92" style="stroke: #000000; stroke-width: 0.8"/>
      </g>
     </g>
     <g id="text_10">
      <!-- −70 -->
      <g transform="translate(35.8425 380.99875) scale(0.16 -0.16)">
       <defs>
        <path id="DejaVuSans-2212" d="M 678 2272 
L 4684 2272 
L 4684 1741 
L 678 1741 
L 678 2272 
z
" transform="scale(0.015625)"/>
        <path id="DejaVuSans-37" d="M 525 4666 
L 3525 4666 
L 3525 4397 
L 1831 0 
L 1172 0 
L 2766 4134 
L 525 4134 
L 525 4666 
z
" transform="scale(0.015625)"/>
       </defs>
       <use xlink:href="#DejaVuSans-2212"/>
       <use xlink:href="#DejaVuSans-37" x="83.789062"/>
       <use xlink:href="#DejaVuSans-30" x="147.412109"/>
      </g>
     </g>
    </g>
    <g id="ytick_2">
     <g id="line2d_10">
      <g>
       <use xlink:href="#md74719e0b5" x="76.61" y="326.948571" style="stroke: #000000; stroke-width: 0.8"/>
      </g>
     </g>
     <g id="text_11">
      <!-- −60 -->
      <g transform="translate(35.8425 333.027321) scale(0.16 -0.16)">
       <use xlink:href="#DejaVuSans-2212"/>
       <use xlink:href="#DejaVuSans-36" x="83.789062"/>
       <use xlink:href="#DejaVuSans-30" x="147.412109"/>
      </g>
     </g>
    </g>
    <g id="ytick_3">
     <g id="line2d_11">
      <g>
       <use xlink:href="#md74719e0b5" x="76.61" y="278.977143" style="stroke: #000000; stroke-width: 0.8"/>
      </g>
     </g>
     <g id="text_12">
      <!-- −50 -->
      <g transform="translate(35.8425 285.055893) scale(0.16 -0.16)">
       <use xlink:href="#DejaVuSans-2212"/>
       <use xlink:href="#DejaVuSans-35" x="83.789062"/>
       <use xlink:href="#DejaVuSans-30" x="147.412109"/>
      </g>
     </g>
    </g>
    <g id="ytick_4">
     <g id="line2d_12">
      <g>
       <use xlink:href="#md74719e0b5" x="76.61" y="231.005714" style="stroke: #000000; stroke-width: 0.8"/>
      </g>
     </g>
     <g id="text_13">
      <!-- −40 -->
      <g transform="translate(35.8425 237.084464) scale(0.16 -0.16)">
       <use xlink:href="#DejaVuSans-2212"/>
       <use xlink:href="#DejaVuSans-34" x="83.789062"/>
       <use xlink:href="#DejaVuSans-30" x="147.412109"/>
      </g>
     </g>
    </g>
    <g id="ytick_5">
     <g id="line2d_13">
      <g>
       <use xlink:href="#md74719e0b5" x="76.61" y="183.034286" style="stroke: #000000; stroke-width: 0.8"/>
      </g>
     </g>
     <g id="text_14">
      <!-- −30 -->
      <g transform="translate(35.8425 189.113036) scale(0.16 -0.16)">
       <use xlink:href="#DejaVuSans-2212"/>
       <use xlink:href="#DejaVuSans-33" x="83.789062"/>
       <use xlink:href="#DejaVuSans-30" x="147.412109"/>
      </g>
     </g>
    </g>
    <g id="ytick_6">
     <g id="line2d_14">
      <g>
       <use xlink:href="#md74719e0b5" x="76.61" y="135.062857" style="stroke: #000000; stroke-width: 0.8"/>
      </g>
     </g>
     <g id="text_15">
      <!-- −20 -->
      <g transform="translate(35.8425 141.141607) scale(0.16 -0.16)">
       <defs>
        <path id="DejaVuSans-32" d="M 1228 531 
L 3431 531 
L 3431 0 
L 469 0 
L 469 531 
Q 828 903 1448 1529 
Q 2069 2156 2228 2338 
Q 2531 2678 2651 2914 
Q 2772 3150 2772 3378 
Q 2772 3750 2511 3984 
Q 2250 4219 1831 4219 
Q 1534 4219 1204 4116 
Q 875 4013 500 3803 
L 500 4441 
Q 881 4594 1212 4672 
Q 1544 4750 1819 4750 
Q 2544 4750 2975 4387 
Q 3406 4025 3406 3419 
Q 3406 3131 3298 2873 
Q 3191 2616 2906 2266 
Q 2828 2175 2409 1742 
Q 1991 1309 1228 531 
z
" transform="scale(0.015625)"/>
       </defs>
       <use xlink:href="#DejaVuSans-2212"/>
       <use xlink:href="#DejaVuSans-32" x="83.789062"/>
       <use xlink:href="#DejaVuSans-30" x="147.412109"/>
      </g>
     </g>
    </g>
    <g id="ytick_7">
     <g id="line2d_15">
      <g>
       <use xlink:href="#md74719e0b5" x="76.61" y="87.091429" style="stroke: #000000; stroke-width: 0.8"/>
      </g>
     </g>
     <g id="text_16">
      <!-- −10 -->
      <g transform="translate(35.8425 93.170179) scale(0.16 -0.16)">
       <use xlink:href="#DejaVuSans-2212"/>
       <use xlink:href="#DejaVuSans-31" x="83.789062"/>
       <use xlink:href="#DejaVuSans-30" x="147.412109"/>
      </g>
     </g>
    </g>
    <g id="ytick_8">
     <g id="line2d_16">
      <g>
       <use xlink:href="#md74719e0b5" x="76.61" y="39.12" style="stroke: #000000; stroke-width: 0.8"/>
      </g>
     </g>
     <g id="text_17">
      <!-- 0 -->
      <g transform="translate(59.43 45.19875) scale(0.16 -0.16)">
       <use xlink:href="#DejaVuSans-30"/>
      </g>
     </g>
    </g>
    <g id="text_18">
     <!-- Transmittance (dB) -->
     <g transform="translate(28.515 283.08875) rotate(-90) scale(0.16 -0.16)">
      <defs>
       <path id="DejaVuSans-54" d="M -19 4666 
L 3928 4666 
L 3928 4134 
L 2272 4134 
L 2272 0 
L 1638 0 
L 1638 4134 
L -19 4134 
L -19 4666 
z
" transform="scale(0.015625)"/>
       <path id="DejaVuSans-72" d="M 2631 2963 
Q 2534 3019 2420 3045 
Q 2306 3072 2169 3072 
Q 1681 3072 1420 2755 
Q 1159 2438 1159 1844 
L 1159 0 
L 581 0 
L 581 3500 
L 1159 3500 
L 1159 2956 
Q 1341 3275 1631 3429 
Q 1922 3584 2338 3584 
Q 2397 3584 2469 3576 
Q 2541 3569 2628 3553 
L 2631 2963 
z
" transform="scale(0.015625)"/>
       <path id="DejaVuSans-73" d="M 2834 3397 
L 2834 2853 
Q 2591 2978 2328 3040 
Q 2066 3103 1784 3103 
Q 1356 3103 1142 2972 
Q 928 2841 928 2578 
Q 928 2378 1081 2264 
Q 1234 2150 1697 2047 
L 1894 2003 
Q 2506 1872 2764 1633 
Q 3022 1394 3022 966 
Q 3022 478 2636 193 
Q 2250 -91 1575 -91 
Q 1294 -91 989 -36 
Q 684 19 347 128 
L 347 722 
Q 666 556 975 473 
Q 1284 391 1588 391 
Q 1994 391 2212 530 
Q 2431 669 2431 922 
Q 2431 1156 2273 1281 
Q 2116 1406 1581 1522 
L 1381 1569 
Q 847 1681 609 1914 
Q 372 2147 372 2553 
Q 372 3047 722 3315 
Q 1072 3584 1716 3584 
Q 2034 3584 2315 3537 
Q 2597 3491 2834 3397 
z
" transform="scale(0.015625)"/>
       <path id="DejaVuSans-69" d="M 603 3500 
L 1178 3500 
L 1178 0 
L 603 0 
L 603 3500 
z
M 603 4863 
L 1178 4863 
L 1178 4134 
L 603 4134 
L 603 4863 
z
" transform="scale(0.015625)"/>
       <path id="DejaVuSans-63" d="M 3122 3366 
L 3122 2828 
Q 2878 2963 2633 3030 
Q 2388 3097 2138 3097 
Q 1578 3097 1268 2742 
Q 959 2388 959 1747 
Q 959 1106 1268 751 
Q 1578 397 2138 397 
Q 2388 397 2633 464 
Q 2878 531 3122 666 
L 3122 134 
Q 2881 22 2623 -34 
Q 2366 -91 2075 -91 
Q 1284 -91 818 406 
Q 353 903 353 1747 
Q 353 2603 823 3093 
Q 1294 3584 2113 3584 
Q 2378 3584 2631 3529 
Q 2884 3475 3122 3366 
z
" transform="scale(0.015625)"/>
       <path id="DejaVuSans-64" d="M 2906 2969 
L 2906 4863 
L 3481 4863 
L 3481 0 
L 2906 0 
L 2906 525 
Q 2725 213 2448 61 
Q 2172 -91 1784 -91 
Q 1150 -91 751 415 
Q 353 922 353 1747 
Q 353 2572 751 3078 
Q 1150 3584 1784 3584 
Q 2172 3584 2448 3432 
Q 2725 3281 2906 2969 
z
M 947 1747 
Q 947 1113 1208 752 
Q 1469 391 1925 391 
Q 2381 391 2643 752 
Q 2906 1113 2906 1747 
Q 2906 2381 2643 2742 
Q 2381 3103 1925 3103 
Q 1469 3103 1208 2742 
Q 947 2381 947 1747 
z
" transform="scale(0.015625)"/>
       <path id="DejaVuSans-42" d="M 1259 2228 
L 1259 519 
L 2272 519 
Q 2781 519 3026 730 
Q 3272 941 3272 1375 
Q 3272 1813 3026 2020 
Q 2781 2228 2272 2228 
L 1259 2228 
z
M 1259 4147 
L 1259 2741 
L 2194 2741 
Q 2656 2741 2882 2914 
Q 3109 3088 3109 3444 
Q 3109 3797 2882 3972 
Q 2656 4147 2194 4147 
L 1259 4147 
z
M 628 4666 
L 2241 4666 
Q 2963 4666 3353 4366 
Q 3744 4066 3744 3513 
Q 3744 3084 3544 2831 
Q 3344 2578 2956 2516 
Q 3422 2416 3680 2098 
Q 3938 1781 3938 1306 
Q 3938 681 3513 340 
Q 3088 0 2303 0 
L 628 0 
L 628 4666 
z
" transform="scale(0.015625)"/>
      </defs>
      <use xlink:href="#DejaVuSans-54"/>
      <use xlink:href="#DejaVuSans-72" x="46.333984"/>
      <use xlink:href="#DejaVuSans-61" x="87.447266"/>
      <use xlink:href="#DejaVuSans-6e" x="148.726562"/>
      <use xlink:href="#DejaVuSans-73" x="212.105469"/>
      <use xlink:href="#DejaVuSans-6d" x="264.205078"/>
      <use xlink:href="#DejaVuSans-69" x="361.617188"/>
      <use xlink:href="#DejaVuSans-74" x="389.400391"/>
      <use xlink:href="#DejaVuSans-74" x="428.609375"/>
      <use xlink:href="#DejaVuSans-61" x="467.818359"/>
      <use xlink:href="#DejaVuSans-6e" x="529.097656"/>
      <use xlink:href="#DejaVuSans-63" x="592.476562"/>
      <use xlink:href="#DejaVuSans-65" x="647.457031"/>
      <use xlink:href="#DejaVuSans-20" x="708.980469"/>
      <use xlink:href="#DejaVuSans-28" x="740.767578"/>
      <use xlink:href="#DejaVuSans-64" x="779.78125"/>
      <use xlink:href="#DejaVuSans-42" x="843.257812"/>
      <use xlink:href="#DejaVuSans-29" x="911.861328"/>
     </g>
    </g>
   </g>
   <g id="line2d_17">
    <path d="M 76.61 57.030011 
L 80.479009 59.540365 
L 84.348018 62.318045 
L 88.217027 65.401174 
L 91.441201 68.238552 
L 94.665375 71.357528 
L 97.88955 74.803651 
L 101.113724 78.635915 
L 103.693063 82.031489 
L 106.272402 85.776411 
L 108.851742 89.939727 
L 111.431081 94.614445 
L 113.365586 98.532087 
L 115.30009 102.883744 
L 117.234595 107.770804 
L 119.169099 113.335865 
L 121.103604 119.788625 
L 122.393273 124.737636 
L 123.682943 130.366833 
L 124.972613 136.889415 
L 126.262282 144.638577 
L 127.551952 154.178825 
L 128.841622 166.586599 
L 129.486456 174.527912 
L 130.131291 184.350788 
L 130.776126 197.230911 
L 131.420961 215.974726 
L 132.065796 250.957731 
L 132.710631 299.039435 
L 133.355465 230.581883 
L 134.0003 205.940388 
L 134.645135 190.563215 
L 135.28997 179.358802 
L 135.934805 170.540274 
L 137.224474 157.082111 
L 138.514144 146.935375 
L 139.803814 138.791786 
L 141.093483 131.99252 
L 142.383153 126.158776 
L 144.317658 118.720483 
L 146.252162 112.433233 
L 148.186667 106.993978 
L 150.121171 102.206238 
L 152.055676 97.935336 
L 154.635015 92.882025 
L 157.214354 88.416212 
L 159.793694 84.423798 
L 162.373033 80.821754 
L 164.952372 77.547777 
L 168.176547 73.844647 
L 171.400721 70.508141 
L 174.624895 67.483699 
L 177.849069 64.728927 
L 181.718078 61.732364 
L 185.587087 59.03023 
L 189.456096 56.586477 
L 193.96994 54.023902 
L 198.483784 51.737565 
L 202.997628 49.698506 
L 207.511471 47.883455 
L 212.67015 46.059347 
L 217.828829 44.480522 
L 222.987508 43.128824 
L 228.146186 41.989745 
L 233.9497 40.948161 
L 239.753213 40.148413 
L 245.556727 39.581094 
L 251.36024 39.239672 
L 257.163754 39.120193 
L 262.967267 39.221114 
L 268.770781 39.543236 
L 274.574294 40.08974 
L 280.377808 40.86633 
L 286.181321 41.881487 
L 291.34 42.993473 
L 296.498679 44.313777 
L 301.657357 45.855852 
L 306.816036 47.636569 
L 311.974715 49.67706 
L 316.488559 51.696323 
L 321.002402 53.956928 
L 325.516246 56.486451 
L 329.385255 58.89468 
L 333.254264 61.553059 
L 337.123273 64.495615 
L 340.347447 67.195597 
L 343.571622 70.154086 
L 346.795796 73.410566 
L 350.01997 77.015552 
L 352.599309 80.194159 
L 355.178649 83.681398 
L 357.757988 87.533668 
L 360.337327 91.825403 
L 362.916667 96.65767 
L 364.851171 100.719926 
L 366.785676 105.247636 
L 368.72018 110.354489 
L 370.654685 116.202691 
L 372.589189 123.035203 
L 373.878859 128.31936 
L 375.168529 134.384096 
L 376.458198 141.49641 
L 377.747868 150.090074 
L 379.037538 160.942016 
L 379.682372 167.657058 
L 380.327207 175.669005 
L 380.972042 185.600176 
L 381.616877 198.667569 
L 382.261712 217.814084 
L 383.551381 292.472754 
L 384.196216 229.803322 
L 384.841051 205.831897 
L 385.485886 190.713972 
L 386.130721 179.647111 
L 386.775556 170.913794 
L 388.065225 157.555462 
L 389.354895 147.465172 
L 390.644565 139.35769 
L 391.934234 132.583333 
L 393.223904 126.767653 
L 395.158408 119.348447 
L 397.092913 113.074181 
L 399.027417 107.643962 
L 400.961922 102.862516 
L 402.896426 98.595894 
L 405.475766 93.545936 
L 408.055105 89.081407 
L 410.634444 85.088642 
L 413.213784 81.484894 
L 415.793123 78.208053 
L 419.017297 74.499908 
L 422.241471 71.156955 
L 425.465646 68.124754 
L 428.68982 65.360991 
L 432.558829 62.352087 
L 436.427838 59.635973 
L 440.296847 57.17663 
L 444.810691 54.59385 
L 449.324535 52.285123 
L 453.838378 50.22146 
L 458.352222 48.37954 
L 463.510901 46.521863 
L 468.66958 44.906294 
L 473.828258 43.51452 
L 478.986937 42.331849 
L 484.79045 41.236746 
L 490.593964 40.378379 
L 496.397477 39.746905 
L 502.200991 39.335272 
L 508.004505 39.138907 
L 513.808018 39.155527 
L 519.611532 39.385042 
L 525.415045 39.829556 
L 531.218559 40.493452 
L 537.022072 41.383588 
L 542.825586 42.509594 
L 548.629099 43.88433 
L 553.787778 45.328555 
L 558.946456 46.997351 
L 564.105135 48.909286 
L 568.618979 50.799797 
L 573.132823 52.913412 
L 577.646667 55.273862 
L 582.160511 57.910683 
L 586.02952 60.418755 
L 589.898529 63.186495 
L 593.767538 66.250794 
L 596.991712 69.064458 
L 600.215886 72.150971 
L 603.44006 75.553964 
L 606.664234 79.329731 
L 609.243574 82.667891 
L 611.822913 86.341462 
L 614.402252 90.415346 
L 616.981592 94.976401 
L 618.916096 98.787354 
L 620.850601 103.007403 
L 622.785105 107.728884 
L 624.71961 113.080216 
L 626.654114 119.247558 
L 627.943784 123.946943 
L 629.233453 129.255735 
L 630.523123 135.352409 
L 631.812793 142.508137 
L 633.102462 151.164711 
L 634.392132 162.116686 
L 635.036967 168.907962 
L 635.681802 177.028589 
L 636.326637 187.127368 
L 636.971471 200.487312 
L 637.616306 220.274606 
L 638.261141 259.281618 
L 638.905976 284.181491 
L 639.550811 228.363548 
L 640.195646 205.333542 
L 640.84048 190.589834 
L 641.485315 179.72389 
L 642.774985 163.987807 
L 644.064655 152.601178 
L 645.354324 143.676796 
L 646.643994 136.339992 
L 647.933664 130.113076 
L 649.223333 124.70638 
L 651.157838 117.73765 
L 653.092342 111.789941 
L 655.026847 106.607229 
L 656.961351 102.019737 
L 658.895856 97.90908 
L 661.475195 93.024833 
L 664.054535 88.691277 
L 666.633874 84.804344 
L 669.213213 81.287599 
L 672.437387 77.325514 
L 675.661562 73.767273 
L 678.885736 70.549108 
L 682.10991 67.622082 
L 685.978919 64.440512 
L 689.847928 61.571416 
L 693.716937 58.97434 
L 697.585946 56.617201 
L 702.09979 54.136263 
L 706.613634 51.913936 
L 711.127477 49.923833 
L 716.286156 47.906582 
L 720.8 46.347186 
L 720.8 46.347186 
" clip-path="url(#p53249cb80e)" style="fill: none; stroke: #cd5c5c; stroke-width: 1.5; stroke-linecap: square"/>
   </g>
   <g id="line2d_18">
    <path d="M 76.61 47.135774 
L 81.123844 48.873245 
L 85.637688 50.828561 
L 90.151532 53.023049 
L 94.665375 55.483185 
L 98.534384 57.828266 
L 102.403393 60.418877 
L 106.272402 63.287504 
L 110.141411 66.475196 
L 113.365586 69.412993 
L 116.58976 72.647863 
L 119.813934 76.2298 
L 122.393273 79.388449 
L 124.972613 82.853819 
L 127.551952 86.681575 
L 130.131291 90.945091 
L 132.710631 95.743847 
L 134.645135 99.776044 
L 136.57964 104.267728 
L 138.514144 109.330127 
L 140.448649 115.121492 
L 142.383153 121.87801 
L 143.672823 127.095033 
L 144.962492 133.072192 
L 146.252162 140.065076 
L 147.541832 148.485683 
L 148.831502 159.063602 
L 149.476336 165.571152 
L 150.121171 173.289528 
L 150.766006 182.773249 
L 151.410841 195.074967 
L 152.055676 212.609572 
L 152.700511 243.475834 
L 153.345345 340.439743 
L 153.99018 236.049379 
L 154.635015 208.906808 
L 155.27985 192.610806 
L 155.924685 180.928981 
L 156.56952 171.817918 
L 157.859189 158.019581 
L 159.148859 147.681014 
L 160.438529 139.414201 
L 161.728198 132.529042 
L 163.017868 126.63196 
L 164.952372 119.124645 
L 166.886877 112.787758 
L 168.821381 107.311023 
L 170.755886 102.493922 
L 172.69039 98.199348 
L 175.26973 93.120723 
L 177.849069 88.634665 
L 180.428408 84.625618 
L 183.007748 81.009601 
L 185.587087 77.723664 
L 188.811261 74.007729 
L 192.035435 70.660228 
L 195.25961 67.626167 
L 198.483784 64.862835 
L 202.352793 61.857084 
L 206.221802 59.14667 
L 210.090811 56.695329 
L 214.604655 54.124566 
L 219.118498 51.830572 
L 223.632342 49.784243 
L 228.146186 47.962194 
L 233.304865 46.130302 
L 238.463544 44.543816 
L 243.622222 43.184488 
L 248.780901 42.037732 
L 254.584414 40.987365 
L 260.387928 40.178589 
L 266.191441 39.601905 
L 271.994955 39.250691 
L 277.798468 39.120895 
L 283.601982 39.210871 
L 289.405495 39.521299 
L 295.209009 40.055225 
L 301.012523 40.818191 
L 306.816036 41.818485 
L 312.61955 43.067527 
L 317.778228 44.398744 
L 322.936907 45.951971 
L 328.095586 47.744223 
L 333.254264 49.796816 
L 337.768108 51.827308 
L 342.281952 54.09994 
L 346.795796 56.642535 
L 350.664805 59.063048 
L 354.533814 61.734992 
L 358.402823 64.692755 
L 361.626997 67.407014 
L 364.851171 70.381644 
L 368.075345 73.656649 
L 371.29952 77.283264 
L 373.878859 80.482085 
L 376.458198 83.992915 
L 379.037538 87.873191 
L 381.616877 92.198855 
L 384.196216 97.073245 
L 386.130721 101.174552 
L 388.065225 105.750217 
L 389.99973 110.917491 
L 391.934234 116.844322 
L 393.868739 123.783571 
L 395.158408 129.163081 
L 396.448078 135.353307 
L 397.737748 142.638353 
L 399.027417 151.485054 
L 400.317087 162.743643 
L 400.961922 169.771293 
L 401.606757 178.232437 
L 402.251592 188.864126 
L 402.896426 203.17671 
L 403.541261 225.155648 
L 404.186096 274.591967 
L 404.830931 264.456237 
L 405.475766 221.79447 
L 406.120601 201.163894 
L 406.765435 187.429955 
L 407.41027 177.120557 
L 408.69994 161.980644 
L 409.98961 150.908612 
L 411.279279 142.178901 
L 412.568949 134.974666 
L 413.858619 128.844039 
L 415.148288 123.51062 
L 417.082793 116.624262 
L 419.017297 110.73774 
L 420.951802 105.602612 
L 422.886306 101.053485 
L 424.820811 96.974689 
L 427.40015 92.125774 
L 429.979489 87.821795 
L 432.558829 83.960403 
L 435.138168 80.46631 
L 438.362342 76.529657 
L 441.586517 72.994618 
L 444.810691 69.798157 
L 448.034865 66.891852 
L 451.903874 63.73438 
L 455.772883 60.888994 
L 459.641892 58.315599 
L 463.510901 55.982386 
L 468.024745 53.52996 
L 472.538589 51.337056 
L 477.052432 49.377519 
L 482.211111 47.396861 
L 487.36979 45.668083 
L 492.528468 44.170871 
L 497.687147 42.888928 
L 503.490661 41.687892 
L 509.294174 40.728192 
L 515.097688 39.998669 
L 520.901201 39.491122 
L 526.704715 39.199935 
L 532.508228 39.121839 
L 538.311742 39.255777 
L 544.115255 39.60286 
L 549.918769 40.166416 
L 555.722282 40.952132 
L 561.525796 41.968302 
L 567.329309 43.226203 
L 572.487988 44.559153 
L 577.646667 46.107966 
L 582.805345 47.889137 
L 587.964024 49.923254 
L 592.477868 51.930728 
L 596.991712 54.172997 
L 601.505556 56.676659 
L 605.374565 59.05573 
L 609.243574 61.67731 
L 613.112583 64.573898 
L 616.981592 67.78653 
L 620.205766 70.742765 
L 623.42994 73.99388 
L 626.654114 77.589773 
L 629.233453 80.757837 
L 631.812793 84.230945 
L 634.392132 88.064591 
L 636.971471 92.331902 
L 639.550811 97.131974 
L 641.485315 101.163181 
L 643.41982 105.651757 
L 645.354324 110.708331 
L 647.288829 116.49019 
L 649.223333 123.231875 
L 650.513003 128.434637 
L 651.802673 134.392282 
L 653.092342 141.35766 
L 654.382012 149.737572 
L 655.671682 160.250416 
L 656.316517 166.708666 
L 656.961351 174.35756 
L 657.606186 183.73628 
L 658.251021 195.861245 
L 658.895856 213.03622 
L 659.540691 242.773517 
L 660.185526 375.353423 
L 660.83036 239.452408 
L 661.475195 211.379232 
L 662.12003 194.759897 
L 662.764865 182.91368 
L 663.4097 173.702972 
L 664.699369 159.789493 
L 665.989039 149.38595 
L 667.278709 141.076988 
L 668.568378 134.161905 
L 669.858048 128.242155 
L 671.792553 120.708985 
L 673.727057 114.35209 
L 675.661562 108.858791 
L 677.596066 104.027233 
L 679.530571 99.719504 
L 682.10991 94.624502 
L 684.689249 90.122709 
L 687.268589 86.098084 
L 689.847928 82.466323 
L 692.427267 79.164258 
L 695.651441 75.427381 
L 698.875616 72.057862 
L 702.09979 69.000539 
L 705.323964 66.212576 
L 709.192973 63.17531 
L 713.061982 60.431106 
L 716.930991 57.943567 
L 720.8 55.68362 
L 720.8 55.68362 
" clip-path="url(#p53249cb80e)" style="fill: none; stroke: #f4a460; stroke-width: 1.5; stroke-linecap: square"/>
   </g>
   <g id="line2d_19">
    <path d="M 76.61 41.558598 
L 81.768679 42.621359 
L 86.927357 43.894925 
L 92.086036 45.392404 
L 97.244715 47.130307 
L 102.403393 49.129382 
L 106.917237 51.113212 
L 111.431081 53.33878 
L 115.944925 55.833249 
L 119.813934 58.211031 
L 123.682943 60.838156 
L 127.551952 63.748112 
L 130.776126 66.419386 
L 134.0003 69.347184 
L 137.224474 72.570244 
L 140.448649 76.138061 
L 143.027988 79.283278 
L 145.607327 82.73277 
L 148.186667 86.541481 
L 150.766006 90.781744 
L 153.345345 95.551475 
L 155.27985 99.556691 
L 157.214354 104.015218 
L 159.148859 109.035877 
L 161.083363 114.773069 
L 163.017868 121.456415 
L 164.307538 126.608481 
L 165.597207 132.500787 
L 166.886877 139.378085 
L 168.176547 147.63191 
L 169.466216 157.948034 
L 170.111051 164.25941 
L 170.755886 171.703339 
L 171.400721 180.77575 
L 172.045556 192.392755 
L 172.69039 208.560371 
L 173.335225 235.337478 
L 173.98006 331.916884 
L 174.624895 244.47947 
L 175.26973 213.120215 
L 175.914565 195.433805 
L 176.559399 183.059072 
L 177.204234 173.532893 
L 178.493904 159.260579 
L 179.783574 148.658776 
L 181.073243 140.224389 
L 182.362913 133.223121 
L 183.652583 127.240789 
L 184.942252 122.020653 
L 186.876757 115.261949 
L 188.811261 109.470308 
L 190.745766 104.408849 
L 192.68027 99.918911 
L 194.614775 95.889008 
L 197.194114 91.093872 
L 199.773453 86.834377 
L 202.352793 83.010864 
L 204.932132 79.549832 
L 208.156306 75.64958 
L 211.38048 72.146997 
L 214.604655 68.980189 
L 217.828829 66.101549 
L 221.697838 62.975472 
L 225.566847 60.160215 
L 229.435856 57.616238 
L 233.304865 55.312152 
L 237.818709 52.893776 
L 242.332553 50.735386 
L 246.846396 48.811167 
L 252.005075 46.872222 
L 257.163754 45.186952 
L 262.322432 43.735382 
L 267.481111 42.501539 
L 273.284625 41.357951 
L 279.088138 40.459685 
L 284.891652 39.796086 
L 290.695165 39.359507 
L 296.498679 39.144958 
L 302.302192 39.149888 
L 308.105706 39.374082 
L 313.909219 39.819645 
L 319.712733 40.491102 
L 325.516246 41.395596 
L 331.31976 42.543215 
L 336.478438 43.778267 
L 341.637117 45.228251 
L 346.795796 46.908486 
L 351.954474 48.83815 
L 356.468318 50.74998 
L 360.982162 52.891112 
L 365.496006 55.286272 
L 369.365015 57.564651 
L 373.234024 60.076339 
L 377.103033 62.851197 
L 380.972042 65.926714 
L 384.196216 68.753457 
L 387.42039 71.857144 
L 390.644565 75.282331 
L 393.868739 79.086608 
L 396.448078 82.45337 
L 399.027417 86.162166 
L 401.606757 90.279879 
L 404.186096 94.896299 
L 406.120601 98.75898 
L 408.055105 103.042605 
L 409.98961 107.843786 
L 411.924114 113.297615 
L 413.858619 119.601272 
L 415.148288 124.419405 
L 416.437958 129.880014 
L 417.727628 136.177489 
L 419.017297 143.611139 
L 420.306967 152.677614 
L 421.596637 164.294674 
L 422.241471 171.60242 
L 422.886306 180.473117 
L 423.531141 191.760703 
L 424.175976 207.293881 
L 424.820811 232.342458 
L 425.465646 304.789379 
L 426.11048 250.390017 
L 426.755315 216.215371 
L 427.40015 197.698284 
L 428.044985 184.925651 
L 428.68982 175.165942 
L 429.979489 160.631166 
L 431.269159 149.885295 
L 432.558829 141.359622 
L 433.848498 134.295122 
L 435.138168 128.266216 
L 436.427838 123.010183 
L 438.362342 116.210503 
L 440.296847 110.387819 
L 442.231351 105.301688 
L 444.165856 100.791368 
L 446.10036 96.744078 
L 448.6797 91.928989 
L 451.259039 87.652063 
L 453.838378 83.812805 
L 456.417718 80.337153 
L 459.641892 76.419625 
L 462.866066 72.900393 
L 466.09024 69.717199 
L 469.314414 66.82217 
L 473.183423 63.676153 
L 477.052432 60.84042 
L 480.921441 58.275233 
L 484.79045 55.949048 
L 489.304294 53.503592 
L 493.818138 51.316555 
L 498.331982 49.361961 
L 503.490661 47.385991 
L 508.649339 45.66102 
L 513.808018 44.166846 
L 518.966697 42.88726 
L 524.77021 41.688139 
L 530.573724 40.729639 
L 536.377237 40.000648 
L 542.180751 39.492995 
L 547.984264 39.201078 
L 553.787778 39.121631 
L 559.591291 39.253587 
L 565.394805 39.598033 
L 571.198318 40.158259 
L 577.001832 40.9399 
L 582.805345 41.951175 
L 588.608859 43.203266 
L 593.767538 44.53018 
L 598.926216 46.072017 
L 604.084895 47.845123 
L 609.243574 49.869889 
L 613.757417 51.867928 
L 618.271261 54.099358 
L 622.785105 56.590482 
L 626.654114 58.957159 
L 630.523123 61.56448 
L 634.392132 64.444504 
L 638.261141 67.637673 
L 641.485315 70.574887 
L 644.709489 73.803734 
L 647.933664 77.373196 
L 650.513003 80.516258 
L 653.092342 83.959936 
L 655.671682 87.758412 
L 658.251021 91.982917 
L 660.83036 96.729713 
L 662.764865 100.711505 
L 664.699369 105.139468 
L 666.633874 110.119883 
L 668.568378 115.803099 
L 670.502883 122.411865 
L 671.792553 127.496915 
L 673.082222 133.301173 
L 674.371892 140.058277 
L 675.661562 148.139 
L 676.951231 158.185326 
L 678.240901 171.463186 
L 678.885736 180.126736 
L 679.530571 191.080361 
L 680.175405 205.985052 
L 680.82024 229.413485 
L 681.465075 287.964553 
L 682.10991 257.523601 
L 682.754745 219.653468 
L 683.39958 200.149619 
L 684.044414 186.919252 
L 684.689249 176.895237 
L 685.978919 162.067173 
L 687.268589 151.162007 
L 688.558258 142.536037 
L 689.847928 135.402371 
L 691.137598 129.322702 
L 692.427267 124.027663 
L 694.361772 117.183613 
L 696.296276 111.327457 
L 698.230781 106.214838 
L 700.165285 101.682739 
L 702.09979 97.616961 
L 704.679129 92.780781 
L 707.258468 88.485564 
L 709.837808 84.6299 
L 712.417147 81.13912 
L 715.641321 77.203851 
L 718.865495 73.667652 
L 720.8 71.710763 
L 720.8 71.710763 
" clip-path="url(#p53249cb80e)" style="fill: none; stroke: #008000; stroke-width: 1.5; stroke-linecap: square"/>
   </g>
   <g id="line2d_20">
    <path d="M 76.61 39.243645 
L 82.413514 39.594413 
L 88.217027 40.176126 
L 94.020541 40.995055 
L 99.824054 42.060445 
L 104.982733 43.224523 
L 110.141411 44.604872 
L 115.30009 46.216131 
L 120.458769 48.076693 
L 124.972613 49.927234 
L 129.486456 52.005521 
L 134.0003 54.335345 
L 138.514144 56.946387 
L 142.383153 59.436407 
L 146.252162 62.190083 
L 150.121171 65.244667 
L 153.345345 68.05393 
L 156.56952 71.13985 
L 159.793694 74.546658 
L 163.017868 78.331501 
L 165.597207 81.681532 
L 168.176547 85.372049 
L 170.755886 89.46927 
L 173.335225 94.062004 
L 175.26973 97.903945 
L 177.204234 102.163241 
L 179.138739 106.935072 
L 181.073243 112.352293 
L 183.007748 118.608374 
L 184.297417 123.385632 
L 185.587087 128.794387 
L 186.876757 135.023613 
L 188.166426 142.362981 
L 189.456096 151.290199 
L 190.745766 162.679967 
L 191.390601 169.809769 
L 192.035435 178.419593 
L 192.68027 189.287559 
L 193.325105 204.033643 
L 193.96994 227.067039 
L 194.614775 282.897484 
L 195.25961 257.977111 
L 195.904444 218.976878 
L 196.549279 199.192766 
L 197.194114 185.835411 
L 197.838949 175.739048 
L 199.128619 160.831864 
L 200.418288 149.884669 
L 201.707958 141.233022 
L 202.997628 134.082395 
L 204.287297 127.991013 
L 205.576967 122.687706 
L 207.511471 115.835577 
L 209.445976 109.97489 
L 211.38048 104.860239 
L 213.314985 100.327994 
L 215.249489 96.263578 
L 217.828829 91.431149 
L 220.408168 87.141558 
L 222.987508 83.293161 
L 225.566847 79.811133 
L 228.791021 75.888739 
L 232.015195 72.367448 
L 235.239369 69.184525 
L 238.463544 66.291768 
L 242.332553 63.150789 
L 246.201562 60.322351 
L 250.070571 57.766521 
L 253.93958 55.451619 
L 258.453423 53.021642 
L 262.967267 50.852494 
L 267.481111 48.918157 
L 272.63979 46.968226 
L 277.798468 45.272404 
L 282.957147 43.810566 
L 288.115826 42.566611 
L 293.919339 41.4117 
L 299.722853 40.502034 
L 305.526366 39.826836 
L 311.32988 39.378338 
L 317.133393 39.15143 
L 322.936907 39.143438 
L 328.74042 39.35401 
L 334.543934 39.7851 
L 340.347447 40.44106 
L 346.150961 41.328825 
L 351.954474 42.458237 
L 357.113153 43.675617 
L 362.271832 45.106252 
L 367.430511 46.765129 
L 372.589189 48.671003 
L 377.103033 50.559595 
L 381.616877 52.67474 
L 386.130721 55.04055 
L 390.644565 57.687095 
L 394.513574 60.207524 
L 398.382583 62.991999 
L 402.251592 66.078275 
L 405.475766 68.915113 
L 408.69994 72.030227 
L 411.924114 75.468562 
L 415.148288 79.288266 
L 417.727628 82.669533 
L 420.306967 86.395385 
L 422.886306 90.533544 
L 425.465646 95.175044 
L 427.40015 99.060701 
L 429.334655 103.372198 
L 431.269159 108.207981 
L 433.203664 113.706025 
L 435.138168 120.068292 
L 436.427838 124.937472 
L 437.717508 130.463458 
L 439.007177 136.84774 
L 440.296847 144.402334 
L 441.586517 153.64911 
L 442.876186 165.564002 
L 443.521021 173.107759 
L 444.165856 182.328871 
L 444.810691 194.191211 
L 445.455526 210.840765 
L 446.10036 238.998932 
L 446.745195 379.395747 
L 447.39003 241.971629 
L 448.034865 212.329372 
L 448.6797 195.186591 
L 449.324535 183.078575 
L 449.969369 173.710791 
L 451.259039 159.617888 
L 452.548709 149.114838 
L 453.838378 140.742759 
L 455.128048 133.784203 
L 456.417718 127.83281 
L 457.707387 122.635963 
L 459.641892 115.902795 
L 461.576396 110.129239 
L 463.510901 105.08089 
L 465.445405 100.600537 
L 467.37991 96.577598 
L 469.959249 91.788665 
L 472.538589 87.532663 
L 475.117928 83.710514 
L 477.697267 80.249102 
L 480.921441 76.346319 
L 484.145616 72.839242 
L 487.36979 69.666215 
L 490.593964 66.77979 
L 494.462973 63.64246 
L 498.331982 60.813987 
L 502.200991 58.254912 
L 506.07 55.933893 
L 510.583844 53.493474 
L 515.097688 51.310578 
L 519.611532 49.359368 
L 524.77021 47.386467 
L 529.928889 45.663823 
L 535.087568 44.171322 
L 540.246246 42.892817 
L 546.04976 41.694263 
L 551.853273 40.735685 
L 557.656787 40.006002 
L 563.4603 39.497056 
L 569.263814 39.203249 
L 575.067327 39.121305 
L 580.870841 39.250133 
L 586.674354 39.590786 
L 592.477868 40.146505 
L 598.281381 40.922858 
L 604.084895 41.927977 
L 609.888408 43.172931 
L 615.047087 44.49256 
L 620.205766 46.026086 
L 625.364444 47.789687 
L 630.523123 49.803533 
L 635.036967 51.790631 
L 639.550811 54.009564 
L 644.064655 56.486301 
L 647.933664 58.838814 
L 651.802673 61.429893 
L 655.671682 64.291108 
L 659.540691 67.462238 
L 662.764865 70.377963 
L 665.989039 73.581709 
L 669.213213 77.12144 
L 671.792553 80.236435 
L 674.371892 83.647137 
L 676.951231 87.406285 
L 679.530571 91.583037 
L 682.10991 96.270558 
L 684.044414 100.197526 
L 685.978919 104.558435 
L 687.913423 109.454897 
L 689.847928 115.029862 
L 691.782432 121.493615 
L 693.072102 126.45105 
L 694.361772 132.090141 
L 695.651441 138.624986 
L 696.941111 146.390411 
L 698.230781 155.954243 
L 699.52045 168.40086 
L 700.165285 176.37345 
L 700.81012 186.244014 
L 701.454955 199.206218 
L 702.09979 218.125582 
L 702.744625 253.751764 
L 703.389459 297.328387 
L 704.034294 231.575084 
L 704.679129 207.233647 
L 705.323964 191.971724 
L 705.968799 180.828161 
L 706.613634 172.047128 
L 707.903303 158.632434 
L 709.192973 148.509699 
L 710.482643 140.380877 
L 711.772312 133.591196 
L 713.061982 127.76378 
L 714.996486 120.331014 
L 716.930991 114.046078 
L 718.865495 108.606878 
L 720.8 103.817465 
L 720.8 103.817465 
" clip-path="url(#p53249cb80e)" style="fill: none; stroke: #20b2aa; stroke-width: 1.5; stroke-linecap: square"/>
   </g>
   <g id="line2d_21">
    <path d="M 76.61 39.835577 
L 82.413514 39.378075 
L 88.217027 39.149458 
L 94.020541 39.146942 
L 99.824054 39.370221 
L 105.627568 39.821453 
L 111.431081 40.505357 
L 117.234595 41.429434 
L 122.393273 42.460979 
L 127.551952 43.700511 
L 132.710631 45.160599 
L 137.869309 46.857081 
L 143.027988 48.809842 
L 147.541832 50.748261 
L 152.055676 52.922842 
L 156.56952 55.359476 
L 160.438529 57.680961 
L 164.307538 60.244106 
L 168.176547 63.080517 
L 172.045556 66.230056 
L 175.26973 69.130346 
L 178.493904 72.321119 
L 181.718078 75.850537 
L 184.297417 78.959388 
L 186.876757 82.366046 
L 189.456096 86.123559 
L 192.035435 90.301528 
L 194.614775 94.993783 
L 196.549279 98.927219 
L 198.483784 103.29782 
L 200.418288 108.208208 
L 202.352793 113.802932 
L 204.287297 120.29496 
L 205.576967 125.278233 
L 206.866637 130.951485 
L 208.156306 137.532957 
L 209.445976 145.365045 
L 210.735646 155.031007 
L 212.025315 167.652346 
L 212.67015 175.768423 
L 213.314985 185.860351 
L 213.95982 199.208474 
L 214.604655 218.969827 
L 215.249489 257.871008 
L 215.894324 283.263506 
L 216.539159 227.210345 
L 217.183994 204.145105 
L 217.828829 189.387293 
L 218.473664 178.513851 
L 219.763333 162.770213 
L 221.053003 151.380137 
L 222.342673 142.454157 
L 223.632342 135.116809 
L 224.922012 128.890049 
L 226.211682 123.484031 
L 228.146186 116.517084 
L 230.080691 110.571922 
L 232.015195 105.392418 
L 233.9497 100.808739 
L 235.884204 96.702464 
L 238.463544 91.824911 
L 241.042883 87.498994 
L 243.622222 83.620629 
L 246.201562 80.113371 
L 248.780901 76.919435 
L 252.005075 73.300395 
L 255.229249 70.034272 
L 258.453423 67.069574 
L 262.322432 63.853827 
L 266.191441 60.960469 
L 270.06045 58.347427 
L 273.929459 55.981443 
L 278.443303 53.498045 
L 282.957147 51.280776 
L 287.470991 49.302536 
L 292.62967 47.306529 
L 297.788348 45.568083 
L 302.947027 44.066314 
L 308.105706 42.784514 
L 313.909219 41.588903 
L 319.712733 40.639956 
L 325.516246 39.926388 
L 331.31976 39.439983 
L 337.123273 39.175217 
L 342.926787 39.129016 
L 348.7303 39.300629 
L 354.533814 39.691591 
L 360.337327 40.3058 
L 366.140841 41.149677 
L 371.944354 42.232466 
L 377.103033 43.405534 
L 382.261712 44.78852 
L 387.42039 46.395661 
L 392.579069 48.24477 
L 397.092913 50.078628 
L 401.606757 52.133235 
L 406.120601 54.431372 
L 410.634444 57.001359 
L 414.503453 59.447341 
L 418.372462 62.147157 
L 422.241471 65.135916 
L 425.465646 67.879084 
L 428.68982 70.88623 
L 431.913994 74.19839 
L 435.138168 77.868236 
L 437.717508 81.107369 
L 440.296847 84.66518 
L 442.876186 88.601198 
L 445.455526 92.994404 
L 447.39003 96.652784 
L 449.324535 100.689218 
L 451.259039 105.184904 
L 453.193544 110.251126 
L 455.128048 116.046221 
L 457.062553 122.806521 
L 458.352222 128.026219 
L 459.641892 134.006331 
L 460.931562 141.002687 
L 462.221231 149.427743 
L 463.510901 160.012076 
L 464.155736 166.524245 
L 464.800571 174.24898 
L 465.445405 183.742166 
L 466.09024 196.059699 
L 466.735075 213.626516 
L 467.37991 244.595629 
L 468.024745 339.403751 
L 468.66958 236.809419 
L 469.314414 209.744964 
L 469.959249 193.47645 
L 470.604084 181.808581 
L 471.248919 172.705893 
L 472.538589 158.916939 
L 473.828258 148.583247 
L 475.117928 140.319155 
L 476.407598 133.435475 
L 477.697267 127.539061 
L 479.631772 120.0317 
L 481.566276 113.693848 
L 483.500781 108.215437 
L 485.435285 103.396064 
L 487.36979 99.098691 
L 489.949129 94.015584 
L 492.528468 89.524245 
L 495.107808 85.509155 
L 497.687147 81.886353 
L 500.266486 78.592905 
L 503.490661 74.866566 
L 506.714835 71.507539 
L 509.939009 68.460825 
L 513.163183 65.683708 
L 517.032192 62.659899 
L 520.901201 59.929747 
L 524.77021 57.456954 
L 529.284054 54.858945 
L 533.797898 52.53524 
L 538.311742 50.456649 
L 542.825586 48.599689 
L 547.984264 46.724512 
L 553.142943 45.090945 
L 558.301622 43.680522 
L 564.105135 42.342169 
L 569.908649 41.250813 
L 575.712162 40.393553 
L 581.515676 39.760665 
L 587.319189 39.345162 
L 593.122703 39.142485 
L 598.926216 39.150312 
L 604.72973 39.368468 
L 610.533243 39.798914 
L 616.336757 40.445834 
L 622.14027 41.315811 
L 627.943784 42.418114 
L 633.747297 43.765131 
L 638.905976 45.180848 
L 644.064655 46.816912 
L 649.223333 48.691166 
L 654.382012 50.825884 
L 658.895856 52.929243 
L 663.4097 55.276681 
L 667.923544 57.897234 
L 671.792553 60.38826 
L 675.661562 63.135485 
L 679.530571 66.175013 
L 682.754745 68.96402 
L 685.978919 72.021322 
L 689.203093 75.389385 
L 692.427267 79.122864 
L 695.006607 82.420339 
L 697.585946 86.045295 
L 700.165285 90.060177 
L 702.744625 94.548227 
L 704.679129 98.292006 
L 706.613634 102.430455 
L 708.548138 107.050733 
L 710.482643 112.273248 
L 712.417147 118.271069 
L 714.351652 125.305938 
L 715.641321 130.770634 
L 716.930991 137.073029 
L 718.220661 144.513008 
L 719.51033 153.588355 
L 720.8 165.219432 
L 720.8 165.219432 
" clip-path="url(#p53249cb80e)" style="fill: none; stroke: #0000ff; stroke-width: 1.5; stroke-linecap: square"/>
   </g>
   <g id="line2d_22">
    <path d="M 76.61 43.421252 
L 81.768679 42.223064 
L 86.927357 41.232503 
L 92.730871 40.35411 
L 98.534384 39.715425 
L 104.337898 39.308912 
L 110.141411 39.129794 
L 115.944925 39.175841 
L 121.748438 39.447274 
L 127.551952 39.946775 
L 133.355465 40.679611 
L 139.158979 41.653871 
L 144.317658 42.731611 
L 149.476336 44.019397 
L 154.635015 45.530443 
L 159.793694 47.281371 
L 164.952372 49.293046 
L 169.466216 51.287658 
L 173.98006 53.523888 
L 178.493904 56.029026 
L 182.362913 58.416076 
L 186.231922 61.052716 
L 190.100931 63.972598 
L 193.325105 66.652614 
L 196.549279 69.589756 
L 199.773453 72.822991 
L 202.997628 76.402122 
L 205.576967 79.5575 
L 208.156306 83.018474 
L 210.735646 86.840429 
L 213.314985 91.096331 
L 215.894324 95.885048 
L 217.828829 99.907564 
L 219.763333 104.387052 
L 221.697838 109.433793 
L 223.632342 115.204521 
L 225.566847 121.932831 
L 226.856517 127.12462 
L 228.146186 133.068647 
L 229.435856 140.016196 
L 230.725526 148.371115 
L 232.015195 158.845453 
L 232.66003 165.275077 
L 233.304865 172.884028 
L 233.9497 182.202909 
L 234.594535 194.228012 
L 235.239369 211.202206 
L 235.884204 240.326852 
L 236.529039 425.61476 
L 237.173874 239.363696 
L 237.818709 210.723522 
L 238.463544 193.912087 
L 239.108378 181.969322 
L 239.753213 172.700609 
L 241.042883 158.721007 
L 242.332553 148.281125 
L 243.622222 139.949515 
L 244.911892 133.019264 
L 246.201562 127.088924 
L 248.136066 119.545272 
L 250.070571 113.182093 
L 252.005075 107.685314 
L 253.93958 102.852306 
L 255.874084 98.544693 
L 258.453423 93.451788 
L 261.032763 88.95392 
L 263.612102 84.934777 
L 266.191441 81.309883 
L 268.770781 78.015951 
L 271.994955 74.290906 
L 275.219129 70.934977 
L 278.443303 67.89294 
L 281.667477 65.121922 
L 285.536486 62.107156 
L 289.405495 59.387804 
L 293.274505 56.927486 
L 297.788348 54.346073 
L 302.302192 52.041126 
L 306.816036 49.983445 
L 311.32988 48.14956 
L 316.488559 46.303456 
L 321.647237 44.701927 
L 326.805916 43.326625 
L 331.964595 42.162861 
L 337.768108 41.091994 
L 343.571622 40.261115 
L 349.375135 39.660545 
L 355.178649 39.283455 
L 360.982162 39.125561 
L 366.785676 39.184936 
L 372.589189 39.461935 
L 378.392703 39.95921 
L 384.196216 40.681825 
L 389.99973 41.63748 
L 395.803243 42.836865 
L 400.961922 44.118986 
L 406.120601 45.617604 
L 411.279279 47.3487 
L 416.437958 49.332254 
L 420.951802 51.294517 
L 425.465646 53.490041 
L 429.979489 55.944661 
L 433.848498 58.279129 
L 437.717508 60.85289 
L 441.586517 63.697384 
L 445.455526 66.852225 
L 448.6797 69.754552 
L 451.903874 72.944886 
L 455.128048 76.470972 
L 457.707387 79.574679 
L 460.286727 82.973532 
L 462.866066 86.71997 
L 465.445405 90.882721 
L 468.024745 95.554316 
L 469.959249 99.467503 
L 471.893754 103.812378 
L 473.828258 108.689607 
L 475.762763 114.240655 
L 477.697267 120.67331 
L 478.986937 125.603937 
L 480.276607 131.208836 
L 481.566276 137.698292 
L 482.855946 145.400202 
L 484.145616 154.868335 
L 485.435285 167.153574 
L 486.08012 174.995058 
L 486.724955 184.665338 
L 487.36979 197.283471 
L 488.014625 215.472947 
L 488.659459 248.502954 
L 489.304294 313.655621 
L 489.949129 233.930737 
L 490.593964 208.245413 
L 491.238799 192.475473 
L 491.883634 181.064917 
L 492.528468 172.119301 
L 493.818138 158.512405 
L 495.107808 148.28107 
L 496.397477 140.082583 
L 497.687147 133.244542 
L 498.976817 127.381714 
L 500.911321 119.910847 
L 502.845826 113.599127 
L 504.78033 108.140341 
L 506.714835 103.336237 
L 508.649339 99.051071 
L 511.228679 93.980861 
L 513.808018 89.49966 
L 516.387357 85.492721 
L 518.966697 81.876591 
L 521.546036 78.588677 
L 524.77021 74.868021 
L 527.994384 71.513607 
L 531.218559 68.470667 
L 534.442733 65.696648 
L 538.311742 62.675832 
L 542.180751 59.948023 
L 546.04976 57.477035 
L 550.563604 54.880554 
L 555.077447 52.557846 
L 559.591291 50.479791 
L 564.105135 48.622954 
L 569.263814 46.74746 
L 574.422492 45.113125 
L 579.581171 43.70151 
L 585.384685 42.361329 
L 591.188198 41.267641 
L 596.991712 40.407543 
L 602.795225 39.771305 
L 608.598739 39.35192 
L 614.402252 39.1448 
L 620.205766 39.147586 
L 626.009279 39.360052 
L 631.812793 39.784095 
L 637.616306 40.423818 
L 643.41982 41.285704 
L 649.223333 42.378895 
L 655.026847 43.715615 
L 660.185526 45.121021 
L 665.344204 46.74549 
L 670.502883 48.60663 
L 675.661562 50.726408 
L 680.175405 52.814882 
L 684.689249 55.145376 
L 689.203093 57.74646 
L 693.072102 60.218317 
L 696.941111 62.94353 
L 700.81012 65.957497 
L 704.034294 68.721799 
L 707.258468 71.750497 
L 710.482643 75.085016 
L 713.706817 78.778554 
L 716.286156 82.038096 
L 718.865495 85.618185 
L 720.8 88.549209 
L 720.8 88.549209 
" clip-path="url(#p53249cb80e)" style="fill: none; stroke: #9932cc; stroke-width: 1.5; stroke-linecap: square"/>
   </g>
   <g id="patch_3">
    <path d="M 76.61 374.92 
L 76.61 39.12 
" style="fill: none; stroke: #000000; stroke-width: 0.8; stroke-linejoin: miter; stroke-linecap: square"/>
   </g>
   <g id="patch_4">
    <path d="M 720.8 374.92 
L 720.8 39.12 
" style="fill: none; stroke: #000000; stroke-width: 0.8; stroke-linejoin: miter; stroke-linecap: square"/>
   </g>
   <g id="patch_5">
    <path d="M 76.61 374.92 
L 720.8 374.92 
" style="fill: none; stroke: #000000; stroke-width: 0.8; stroke-linejoin: miter; stroke-linecap: square"/>
   </g>
   <g id="patch_6">
    <path d="M 76.61 39.12 
L 720.8 39.12 
" style="fill: none; stroke: #000000; stroke-width: 0.8; stroke-linejoin: miter; stroke-linecap: square"/>
   </g>
   <g id="text_19">
    <!-- dL=50µm, $\Delta \lambda_{FSR}=13.807$nm -->
    <g transform="translate(259.505 33.12) scale(0.192 -0.192)">
     <defs>
      <path id="DejaVuSans-4c" d="M 628 4666 
L 1259 4666 
L 1259 531 
L 3531 531 
L 3531 0 
L 628 0 
L 628 4666 
z
" transform="scale(0.015625)"/>
      <path id="DejaVuSans-3d" d="M 678 2906 
L 4684 2906 
L 4684 2381 
L 678 2381 
L 678 2906 
z
M 678 1631 
L 4684 1631 
L 4684 1100 
L 678 1100 
L 678 1631 
z
" transform="scale(0.015625)"/>
      <path id="DejaVuSans-b5" d="M 544 -1331 
L 544 3500 
L 1119 3500 
L 1119 1325 
Q 1119 872 1334 640 
Q 1550 409 1972 409 
Q 2434 409 2667 671 
Q 2900 934 2900 1459 
L 2900 3500 
L 3475 3500 
L 3475 806 
Q 3475 619 3529 530 
Q 3584 441 3700 441 
Q 3728 441 3778 458 
Q 3828 475 3916 513 
L 3916 50 
Q 3788 -22 3673 -56 
Q 3559 -91 3450 -91 
Q 3234 -91 3106 31 
Q 2978 153 2931 403 
Q 2775 156 2548 32 
Q 2322 -91 2016 -91 
Q 1697 -91 1473 31 
Q 1250 153 1119 397 
L 1119 -1331 
L 544 -1331 
z
" transform="scale(0.015625)"/>
      <path id="DejaVuSans-2c" d="M 750 794 
L 1409 794 
L 1409 256 
L 897 -744 
L 494 -744 
L 750 256 
L 750 794 
z
" transform="scale(0.015625)"/>
      <path id="DejaVuSans-394" d="M 2188 4044 
L 906 525 
L 3472 525 
L 2188 4044 
z
M 50 0 
L 1831 4666 
L 2547 4666 
L 4325 0 
L 50 0 
z
" transform="scale(0.015625)"/>
      <path id="DejaVuSans-Oblique-3bb" d="M 2350 4316 
L 3125 0 
L 2516 0 
L 2038 2588 
L 328 0 
L -281 0 
L 1903 3356 
L 1794 3975 
Q 1725 4369 1391 4369 
L 1091 4369 
L 1184 4863 
L 1550 4856 
Q 2253 4847 2350 4316 
z
" transform="scale(0.015625)"/>
      <path id="DejaVuSans-Oblique-46" d="M 1081 4666 
L 3756 4666 
L 3653 4134 
L 1606 4134 
L 1338 2759 
L 3188 2759 
L 3084 2228 
L 1234 2228 
L 800 0 
L 172 0 
L 1081 4666 
z
" transform="scale(0.015625)"/>
      <path id="DejaVuSans-Oblique-53" d="M 3859 4513 
L 3738 3897 
Q 3422 4066 3111 4152 
Q 2800 4238 2509 4238 
Q 1944 4238 1609 3991 
Q 1275 3744 1275 3334 
Q 1275 3109 1398 2989 
Q 1522 2869 2034 2731 
L 2413 2638 
Q 3053 2472 3303 2217 
Q 3553 1963 3553 1503 
Q 3553 797 2998 353 
Q 2444 -91 1538 -91 
Q 1166 -91 791 -17 
Q 416 56 38 206 
L 166 856 
Q 513 641 861 531 
Q 1209 422 1556 422 
Q 2147 422 2503 684 
Q 2859 947 2859 1369 
Q 2859 1650 2717 1795 
Q 2575 1941 2106 2059 
L 1728 2156 
Q 1081 2325 845 2545 
Q 609 2766 609 3163 
Q 609 3859 1145 4304 
Q 1681 4750 2541 4750 
Q 2875 4750 3203 4690 
Q 3531 4631 3859 4513 
z
" transform="scale(0.015625)"/>
      <path id="DejaVuSans-Oblique-52" d="M 1613 4147 
L 1294 2491 
L 2106 2491 
Q 2584 2491 2879 2755 
Q 3175 3019 3175 3444 
Q 3175 3784 2976 3965 
Q 2778 4147 2406 4147 
L 1613 4147 
z
M 2772 2241 
Q 2972 2194 3105 2009 
Q 3238 1825 3413 1275 
L 3809 0 
L 3144 0 
L 2778 1197 
Q 2638 1659 2453 1815 
Q 2269 1972 1888 1972 
L 1191 1972 
L 806 0 
L 172 0 
L 1081 4666 
L 2503 4666 
Q 3150 4666 3495 4373 
Q 3841 4081 3841 3531 
Q 3841 3044 3547 2687 
Q 3253 2331 2772 2241 
z
" transform="scale(0.015625)"/>
      <path id="DejaVuSans-2e" d="M 684 794 
L 1344 794 
L 1344 0 
L 684 0 
L 684 794 
z
" transform="scale(0.015625)"/>
      <path id="DejaVuSans-38" d="M 2034 2216 
Q 1584 2216 1326 1975 
Q 1069 1734 1069 1313 
Q 1069 891 1326 650 
Q 1584 409 2034 409 
Q 2484 409 2743 651 
Q 3003 894 3003 1313 
Q 3003 1734 2745 1975 
Q 2488 2216 2034 2216 
z
M 1403 2484 
Q 997 2584 770 2862 
Q 544 3141 544 3541 
Q 544 4100 942 4425 
Q 1341 4750 2034 4750 
Q 2731 4750 3128 4425 
Q 3525 4100 3525 3541 
Q 3525 3141 3298 2862 
Q 3072 2584 2669 2484 
Q 3125 2378 3379 2068 
Q 3634 1759 3634 1313 
Q 3634 634 3220 271 
Q 2806 -91 2034 -91 
Q 1263 -91 848 271 
Q 434 634 434 1313 
Q 434 1759 690 2068 
Q 947 2378 1403 2484 
z
M 1172 3481 
Q 1172 3119 1398 2916 
Q 1625 2713 2034 2713 
Q 2441 2713 2670 2916 
Q 2900 3119 2900 3481 
Q 2900 3844 2670 4047 
Q 2441 4250 2034 4250 
Q 1625 4250 1398 4047 
Q 1172 3844 1172 3481 
z
" transform="scale(0.015625)"/>
     </defs>
     <use xlink:href="#DejaVuSans-64" transform="translate(0 0.015625)"/>
     <use xlink:href="#DejaVuSans-4c" transform="translate(63.476562 0.015625)"/>
     <use xlink:href="#DejaVuSans-3d" transform="translate(119.189453 0.015625)"/>
     <use xlink:href="#DejaVuSans-35" transform="translate(202.978516 0.015625)"/>
     <use xlink:href="#DejaVuSans-30" transform="translate(266.601562 0.015625)"/>
     <use xlink:href="#DejaVuSans-b5" transform="translate(330.224609 0.015625)"/>
     <use xlink:href="#DejaVuSans-6d" transform="translate(393.847656 0.015625)"/>
     <use xlink:href="#DejaVuSans-2c" transform="translate(491.259766 0.015625)"/>
     <use xlink:href="#DejaVuSans-20" transform="translate(523.046875 0.015625)"/>
     <use xlink:href="#DejaVuSans-394" transform="translate(554.833984 0.015625)"/>
     <use xlink:href="#DejaVuSans-Oblique-3bb" transform="translate(623.242188 0.015625)"/>
     <use xlink:href="#DejaVuSans-Oblique-46" transform="translate(682.421875 -16.390625) scale(0.7)"/>
     <use xlink:href="#DejaVuSans-Oblique-53" transform="translate(722.685547 -16.390625) scale(0.7)"/>
     <use xlink:href="#DejaVuSans-Oblique-52" transform="translate(767.119141 -16.390625) scale(0.7)"/>
     <use xlink:href="#DejaVuSans-3d" transform="translate(837.973633 0.015625)"/>
     <use xlink:href="#DejaVuSans-31" transform="translate(941.245117 0.015625)"/>
     <use xlink:href="#DejaVuSans-33" transform="translate(1004.868164 0.015625)"/>
     <use xlink:href="#DejaVuSans-2e" transform="translate(1068.491211 0.015625)"/>
     <use xlink:href="#DejaVuSans-38" transform="translate(1097.65332 0.015625)"/>
     <use xlink:href="#DejaVuSans-30" transform="translate(1161.276367 0.015625)"/>
     <use xlink:href="#DejaVuSans-37" transform="translate(1224.899414 0.015625)"/>
     <use xlink:href="#DejaVuSans-6e" transform="translate(1288.522461 0.015625)"/>
     <use xlink:href="#DejaVuSans-6d" transform="translate(1351.901367 0.015625)"/>
    </g>
   </g>
   <g id="legend_1">
    <g id="patch_7">
     <path d="M 733.958 300.06 
L 838.438 300.06 
Q 841.638 300.06 841.638 296.86 
L 841.638 117.18 
Q 841.638 113.98 838.438 113.98 
L 733.958 113.98 
Q 730.758 113.98 730.758 117.18 
L 730.758 296.86 
Q 730.758 300.06 733.958 300.06 
z
" style="fill: #ffffff; opacity: 0.8; stroke: #cccccc; stroke-linejoin: miter"/>
    </g>
    <g id="line2d_23">
     <path d="M 737.158 130.46 
L 753.158 130.46 
L 769.158 130.46 
" style="fill: none; stroke: #cd5c5c; stroke-width: 1.5; stroke-linecap: square"/>
    </g>
    <g id="text_20">
     <!-- $\phi=\frac{0\pi}{6}$ -->
     <g transform="translate(781.958 136.06) scale(0.16 -0.16)">
      <defs>
       <path id="DejaVuSans-Oblique-3d5" d="M 2991 4863 
L 2738 3572 
Q 3363 3572 3684 3094 
Q 4016 2606 3850 1747 
Q 3681 888 3159 400 
Q 2653 -78 2028 -78 
L 1784 -1331 
L 1213 -1331 
L 1456 -78 
Q 834 -78 509 400 
Q 178 888 347 1747 
Q 513 2606 1034 3094 
Q 1544 3572 2166 3572 
L 2419 4863 
L 2991 4863 
z
M 2128 434 
Q 2481 434 2784 756 
Q 3116 1116 3244 1747 
Q 3369 2372 3169 2738 
Q 2991 3059 2638 3059 
L 2128 434 
z
M 1556 434 
L 2066 3059 
Q 1716 3059 1413 2738 
Q 1072 2372 953 1747 
Q 834 1116 1028 756 
Q 1203 434 1556 434 
z
" transform="scale(0.015625)"/>
       <path id="DejaVuSans-Oblique-3c0" d="M 584 3500 
L 3938 3500 
L 3825 2925 
L 3384 2925 
L 2966 775 
Q 2922 550 2981 450 
Q 3038 353 3209 353 
Q 3256 353 3325 363 
Q 3397 369 3419 372 
L 3338 -44 
Q 3222 -84 3103 -103 
Q 2981 -122 2866 -122 
Q 2491 -122 2388 81 
Q 2284 288 2391 838 
L 2797 2925 
L 1506 2925 
L 938 0 
L 350 0 
L 919 2925 
L 472 2925 
L 584 3500 
z
" transform="scale(0.015625)"/>
      </defs>
      <use xlink:href="#DejaVuSans-Oblique-3d5" transform="translate(0 0.915625)"/>
      <use xlink:href="#DejaVuSans-3d" transform="translate(85.449219 0.915625)"/>
      <use xlink:href="#DejaVuSans-30" transform="translate(188.720703 46.046875) scale(0.7)"/>
      <use xlink:href="#DejaVuSans-Oblique-3c0" transform="translate(233.256836 46.046875) scale(0.7)"/>
      <use xlink:href="#DejaVuSans-36" transform="translate(209.720703 -38.490625) scale(0.7)"/>
      <path d="M 188.720703 19.7125 
L 188.720703 25.9625 
L 275.400391 25.9625 
L 275.400391 19.7125 
L 188.720703 19.7125 
z
"/>
     </g>
    </g>
    <g id="line2d_24">
     <path d="M 737.158 160.7 
L 753.158 160.7 
L 769.158 160.7 
" style="fill: none; stroke: #f4a460; stroke-width: 1.5; stroke-linecap: square"/>
    </g>
    <g id="text_21">
     <!-- $\phi=\frac{2\pi}{6}$ -->
     <g transform="translate(781.958 166.3) scale(0.16 -0.16)">
      <use xlink:href="#DejaVuSans-Oblique-3d5" transform="translate(0 0.915625)"/>
      <use xlink:href="#DejaVuSans-3d" transform="translate(85.449219 0.915625)"/>
      <use xlink:href="#DejaVuSans-32" transform="translate(188.720703 46.046875) scale(0.7)"/>
      <use xlink:href="#DejaVuSans-Oblique-3c0" transform="translate(233.256836 46.046875) scale(0.7)"/>
      <use xlink:href="#DejaVuSans-36" transform="translate(209.720703 -38.490625) scale(0.7)"/>
      <path d="M 188.720703 19.7125 
L 188.720703 25.9625 
L 275.400391 25.9625 
L 275.400391 19.7125 
L 188.720703 19.7125 
z
"/>
     </g>
    </g>
    <g id="line2d_25">
     <path d="M 737.158 190.78 
L 753.158 190.78 
L 769.158 190.78 
" style="fill: none; stroke: #008000; stroke-width: 1.5; stroke-linecap: square"/>
    </g>
    <g id="text_22">
     <!-- $\phi=\frac{4\pi}{6}$ -->
     <g transform="translate(781.958 196.38) scale(0.16 -0.16)">
      <use xlink:href="#DejaVuSans-Oblique-3d5" transform="translate(0 0.834375)"/>
      <use xlink:href="#DejaVuSans-3d" transform="translate(85.449219 0.834375)"/>
      <use xlink:href="#DejaVuSans-34" transform="translate(188.720703 45.965625) scale(0.7)"/>
      <use xlink:href="#DejaVuSans-Oblique-3c0" transform="translate(233.256836 45.965625) scale(0.7)"/>
      <use xlink:href="#DejaVuSans-36" transform="translate(209.720703 -38.571875) scale(0.7)"/>
      <path d="M 188.720703 19.63125 
L 188.720703 25.88125 
L 275.400391 25.88125 
L 275.400391 19.63125 
L 188.720703 19.63125 
z
"/>
     </g>
    </g>
    <g id="line2d_26">
     <path d="M 737.158 221.02 
L 753.158 221.02 
L 769.158 221.02 
" style="fill: none; stroke: #20b2aa; stroke-width: 1.5; stroke-linecap: square"/>
    </g>
    <g id="text_23">
     <!-- $\phi=\frac{6\pi}{6}$ -->
     <g transform="translate(781.958 226.62) scale(0.16 -0.16)">
      <use xlink:href="#DejaVuSans-Oblique-3d5" transform="translate(0 0.915625)"/>
      <use xlink:href="#DejaVuSans-3d" transform="translate(85.449219 0.915625)"/>
      <use xlink:href="#DejaVuSans-36" transform="translate(188.720703 46.046875) scale(0.7)"/>
      <use xlink:href="#DejaVuSans-Oblique-3c0" transform="translate(233.256836 46.046875) scale(0.7)"/>
      <use xlink:href="#DejaVuSans-36" transform="translate(209.720703 -38.490625) scale(0.7)"/>
      <path d="M 188.720703 19.7125 
L 188.720703 25.9625 
L 275.400391 25.9625 
L 275.400391 19.7125 
L 188.720703 19.7125 
z
"/>
     </g>
    </g>
    <g id="line2d_27">
     <path d="M 737.158 251.26 
L 753.158 251.26 
L 769.158 251.26 
" style="fill: none; stroke: #0000ff; stroke-width: 1.5; stroke-linecap: square"/>
    </g>
    <g id="text_24">
     <!-- $\phi=\frac{8\pi}{6}$ -->
     <g transform="translate(781.958 256.86) scale(0.16 -0.16)">
      <use xlink:href="#DejaVuSans-Oblique-3d5" transform="translate(0 0.915625)"/>
      <use xlink:href="#DejaVuSans-3d" transform="translate(85.449219 0.915625)"/>
      <use xlink:href="#DejaVuSans-38" transform="translate(188.720703 46.046875) scale(0.7)"/>
      <use xlink:href="#DejaVuSans-Oblique-3c0" transform="translate(233.256836 46.046875) scale(0.7)"/>
      <use xlink:href="#DejaVuSans-36" transform="translate(209.720703 -38.490625) scale(0.7)"/>
      <path d="M 188.720703 19.7125 
L 188.720703 25.9625 
L 275.400391 25.9625 
L 275.400391 19.7125 
L 188.720703 19.7125 
z
"/>
     </g>
    </g>
    <g id="line2d_28">
     <path d="M 737.158 281.5 
L 753.158 281.5 
L 769.158 281.5 
" style="fill: none; stroke: #9932cc; stroke-width: 1.5; stroke-linecap: square"/>
    </g>
    <g id="text_25">
     <!-- $\phi=\frac{10\pi}{6}$ -->
     <g transform="translate(781.958 287.1) scale(0.16 -0.16)">
      <use xlink:href="#DejaVuSans-Oblique-3d5" transform="translate(0 0.915625)"/>
      <use xlink:href="#DejaVuSans-3d" transform="translate(85.449219 0.915625)"/>
      <use xlink:href="#DejaVuSans-31" transform="translate(188.720703 46.046875) scale(0.7)"/>
      <use xlink:href="#DejaVuSans-30" transform="translate(233.256836 46.046875) scale(0.7)"/>
      <use xlink:href="#DejaVuSans-Oblique-3c0" transform="translate(277.792969 46.046875) scale(0.7)"/>
      <use xlink:href="#DejaVuSans-36" transform="translate(231.720703 -38.490625) scale(0.7)"/>
      <path d="M 188.720703 19.7125 
L 188.720703 25.9625 
L 319.936523 25.9625 
L 319.936523 19.7125 
L 188.720703 19.7125 
z
"/>
     </g>
    </g>
   </g>
  </g>
 </g>
 <defs>
  <clipPath id="p53249cb80e">
   <rect x="76.61" y="39.12" width="644.19" height="335.8"/>
  </clipPath>
 </defs>
</svg>
