<?xml version="1.0" encoding="utf-8" standalone="no"?>
<!DOCTYPE svg PUBLIC "-//W3C//DTD SVG 1.1//EN"
  "http://www.w3.org/Graphics/SVG/1.1/DTD/svg11.dtd">
<svg xmlns:xlink="http://www.w3.org/1999/xlink" width="864pt" height="432pt" viewBox="0 0 864 432" xmlns="http://www.w3.org/2000/svg" version="1.1">
 <metadata>
  <rdf:RDF xmlns:dc="http://purl.org/dc/elements/1.1/" xmlns:cc="http://creativecommons.org/ns#" xmlns:rdf="http://www.w3.org/1999/02/22-rdf-syntax-ns#">
   <cc:Work>
    <dc:type rdf:resource="http://purl.org/dc/dcmitype/StillImage"/>
    <dc:date>2026-01-21T01:31:12.401453</dc:date>
    <dc:format>image/svg+xml</dc:format>
    <dc:creator>
     <cc:Agent>
      <dc:title>Matplotlib v3.9.2, https://matplotlib.org/</dc:title>
     </cc:Agent>
    </dc:creator>
   </cc:Work>
  </rdf:RDF>
 </metadata>
 <defs>
  <style type="text/css">*{stroke-linejoin: round; stroke-linecap: butt}</style>
 </defs>
 <g id="figure_1">
  <g id="patch_1">
   <path d="M 0 432 
L 864 432 
L 864 0 
L 0 0 
z
" style="fill: #ffffff"/>
  </g>
  <g id="axes_1">
   <g id="patch_2">
    <path d="M 76.61 374.92 
L 720.8 374.92 
L 720.8 39.12 
L 76.61 39.12 
z
" style="fill: #ffffff"/>
   </g>
   <g id="matplotlib.axis_1">
    <g id="xtick_1">
     <g id="line2d_1">
      <defs>
       <path id="m98ef9a8197" d="M 0 0 
L 0 3.5 
" style="stroke: #000000; stroke-width: 0.8"/>
      </defs>
      <g>
       <use xlink:href="#m98ef9a8197" x="76.61" y="374.92" style="stroke: #000000; stroke-width: 0.8"/>
      </g>
     </g>
     <g id="text_1">
      <!-- 1530 -->
      <g transform="translate(56.25 394.0775) scale(0.16 -0.16)">
       <defs>
        <path id="DejaVuSans-31" d="M 794 531 
L 1825 531 
L 1825 4091 
L 703 3866 
L 703 4441 
L 1819 4666 
L 2450 4666 
L 2450 531 
L 3481 531 
L 3481 0 
L 794 0 
L 794 531 
z
" transform="scale(0.015625)"/>
        <path id="DejaVuSans-35" d="M 691 4666 
L 3169 4666 
L 3169 4134 
L 1269 4134 
L 1269 2991 
Q 1406 3038 1543 3061 
Q 1681 3084 1819 3084 
Q 2600 3084 3056 2656 
Q 3513 2228 3513 1497 
Q 3513 744 3044 326 
Q 2575 -91 1722 -91 
Q 1428 -91 1123 -41 
Q 819 9 494 109 
L 494 744 
Q 775 591 1075 516 
Q 1375 441 1709 441 
Q 2250 441 2565 725 
Q 2881 1009 2881 1497 
Q 2881 1984 2565 2268 
Q 2250 2553 1709 2553 
Q 1456 2553 1204 2497 
Q 953 2441 691 2322 
L 691 4666 
z
" transform="scale(0.015625)"/>
        <path id="DejaVuSans-33" d="M 2597 2516 
Q 3050 2419 3304 2112 
Q 3559 1806 3559 1356 
Q 3559 666 3084 287 
Q 2609 -91 1734 -91 
Q 1441 -91 1130 -33 
Q 819 25 488 141 
L 488 750 
Q 750 597 1062 519 
Q 1375 441 1716 441 
Q 2309 441 2620 675 
Q 2931 909 2931 1356 
Q 2931 1769 2642 2001 
Q 2353 2234 1838 2234 
L 1294 2234 
L 1294 2753 
L 1863 2753 
Q 2328 2753 2575 2939 
Q 2822 3125 2822 3475 
Q 2822 3834 2567 4026 
Q 2313 4219 1838 4219 
Q 1578 4219 1281 4162 
Q 984 4106 628 3988 
L 628 4550 
Q 988 4650 1302 4700 
Q 1616 4750 1894 4750 
Q 2613 4750 3031 4423 
Q 3450 4097 3450 3541 
Q 3450 3153 3228 2886 
Q 3006 2619 2597 2516 
z
" transform="scale(0.015625)"/>
        <path id="DejaVuSans-30" d="M 2034 4250 
Q 1547 4250 1301 3770 
Q 1056 3291 1056 2328 
Q 1056 1369 1301 889 
Q 1547 409 2034 409 
Q 2525 409 2770 889 
Q 3016 1369 3016 2328 
Q 3016 3291 2770 3770 
Q 2525 4250 2034 4250 
z
M 2034 4750 
Q 2819 4750 3233 4129 
Q 3647 3509 3647 2328 
Q 3647 1150 3233 529 
Q 2819 -91 2034 -91 
Q 1250 -91 836 529 
Q 422 1150 422 2328 
Q 422 3509 836 4129 
Q 1250 4750 2034 4750 
z
" transform="scale(0.015625)"/>
       </defs>
       <use xlink:href="#DejaVuSans-31"/>
       <use xlink:href="#DejaVuSans-35" x="63.623047"/>
       <use xlink:href="#DejaVuSans-33" x="127.246094"/>
       <use xlink:href="#DejaVuSans-30" x="190.869141"/>
      </g>
     </g>
    </g>
    <g id="xtick_2">
     <g id="line2d_2">
      <g>
       <use xlink:href="#m98ef9a8197" x="168.637143" y="374.92" style="stroke: #000000; stroke-width: 0.8"/>
      </g>
     </g>
     <g id="text_2">
      <!-- 1535 -->
      <g transform="translate(148.277143 394.0775) scale(0.16 -0.16)">
       <use xlink:href="#DejaVuSans-31"/>
       <use xlink:href="#DejaVuSans-35" x="63.623047"/>
       <use xlink:href="#DejaVuSans-33" x="127.246094"/>
       <use xlink:href="#DejaVuSans-35" x="190.869141"/>
      </g>
     </g>
    </g>
    <g id="xtick_3">
     <g id="line2d_3">
      <g>
       <use xlink:href="#m98ef9a8197" x="260.664286" y="374.92" style="stroke: #000000; stroke-width: 0.8"/>
      </g>
     </g>
     <g id="text_3">
      <!-- 1540 -->
      <g transform="translate(240.304286 394.0775) scale(0.16 -0.16)">
       <defs>
        <path id="DejaVuSans-34" d="M 2419 4116 
L 825 1625 
L 2419 1625 
L 2419 4116 
z
M 2253 4666 
L 3047 4666 
L 3047 1625 
L 3713 1625 
L 3713 1100 
L 3047 1100 
L 3047 0 
L 2419 0 
L 2419 1100 
L 313 1100 
L 313 1709 
L 2253 4666 
z
" transform="scale(0.015625)"/>
       </defs>
       <use xlink:href="#DejaVuSans-31"/>
       <use xlink:href="#DejaVuSans-35" x="63.623047"/>
       <use xlink:href="#DejaVuSans-34" x="127.246094"/>
       <use xlink:href="#DejaVuSans-30" x="190.869141"/>
      </g>
     </g>
    </g>
    <g id="xtick_4">
     <g id="line2d_4">
      <g>
       <use xlink:href="#m98ef9a8197" x="352.691429" y="374.92" style="stroke: #000000; stroke-width: 0.8"/>
      </g>
     </g>
     <g id="text_4">
      <!-- 1545 -->
      <g transform="translate(332.331429 394.0775) scale(0.16 -0.16)">
       <use xlink:href="#DejaVuSans-31"/>
       <use xlink:href="#DejaVuSans-35" x="63.623047"/>
       <use xlink:href="#DejaVuSans-34" x="127.246094"/>
       <use xlink:href="#DejaVuSans-35" x="190.869141"/>
      </g>
     </g>
    </g>
    <g id="xtick_5">
     <g id="line2d_5">
      <g>
       <use xlink:href="#m98ef9a8197" x="444.718571" y="374.92" style="stroke: #000000; stroke-width: 0.8"/>
      </g>
     </g>
     <g id="text_5">
      <!-- 1550 -->
      <g transform="translate(424.358571 394.0775) scale(0.16 -0.16)">
       <use xlink:href="#DejaVuSans-31"/>
       <use xlink:href="#DejaVuSans-35" x="63.623047"/>
       <use xlink:href="#DejaVuSans-35" x="127.246094"/>
       <use xlink:href="#DejaVuSans-30" x="190.869141"/>
      </g>
     </g>
    </g>
    <g id="xtick_6">
     <g id="line2d_6">
      <g>
       <use xlink:href="#m98ef9a8197" x="536.745714" y="374.92" style="stroke: #000000; stroke-width: 0.8"/>
      </g>
     </g>
     <g id="text_6">
      <!-- 1555 -->
      <g transform="translate(516.385714 394.0775) scale(0.16 -0.16)">
       <use xlink:href="#DejaVuSans-31"/>
       <use xlink:href="#DejaVuSans-35" x="63.623047"/>
       <use xlink:href="#DejaVuSans-35" x="127.246094"/>
       <use xlink:href="#DejaVuSans-35" x="190.869141"/>
      </g>
     </g>
    </g>
    <g id="xtick_7">
     <g id="line2d_7">
      <g>
       <use xlink:href="#m98ef9a8197" x="628.772857" y="374.92" style="stroke: #000000; stroke-width: 0.8"/>
      </g>
     </g>
     <g id="text_7">
      <!-- 1560 -->
      <g transform="translate(608.412857 394.0775) scale(0.16 -0.16)">
       <defs>
        <path id="DejaVuSans-36" d="M 2113 2584 
Q 1688 2584 1439 2293 
Q 1191 2003 1191 1497 
Q 1191 994 1439 701 
Q 1688 409 2113 409 
Q 2538 409 2786 701 
Q 3034 994 3034 1497 
Q 3034 2003 2786 2293 
Q 2538 2584 2113 2584 
z
M 3366 4563 
L 3366 3988 
Q 3128 4100 2886 4159 
Q 2644 4219 2406 4219 
Q 1781 4219 1451 3797 
Q 1122 3375 1075 2522 
Q 1259 2794 1537 2939 
Q 1816 3084 2150 3084 
Q 2853 3084 3261 2657 
Q 3669 2231 3669 1497 
Q 3669 778 3244 343 
Q 2819 -91 2113 -91 
Q 1303 -91 875 529 
Q 447 1150 447 2328 
Q 447 3434 972 4092 
Q 1497 4750 2381 4750 
Q 2619 4750 2861 4703 
Q 3103 4656 3366 4563 
z
" transform="scale(0.015625)"/>
       </defs>
       <use xlink:href="#DejaVuSans-31"/>
       <use xlink:href="#DejaVuSans-35" x="63.623047"/>
       <use xlink:href="#DejaVuSans-36" x="127.246094"/>
       <use xlink:href="#DejaVuSans-30" x="190.869141"/>
      </g>
     </g>
    </g>
    <g id="xtick_8">
     <g id="line2d_8">
      <g>
       <use xlink:href="#m98ef9a8197" x="720.8" y="374.92" style="stroke: #000000; stroke-width: 0.8"/>
      </g>
     </g>
     <g id="text_8">
      <!-- 1565 -->
      <g transform="translate(700.44 394.0775) scale(0.16 -0.16)">
       <use xlink:href="#DejaVuSans-31"/>
       <use xlink:href="#DejaVuSans-35" x="63.623047"/>
       <use xlink:href="#DejaVuSans-36" x="127.246094"/>
       <use xlink:href="#DejaVuSans-35" x="190.869141"/>
      </g>
     </g>
    </g>
    <g id="text_9">
     <!-- Wavelength (nm) -->
     <g transform="translate(329.5975 413.5625) scale(0.16 -0.16)">
      <defs>
       <path id="DejaVuSans-57" d="M 213 4666 
L 850 4666 
L 1831 722 
L 2809 4666 
L 3519 4666 
L 4500 722 
L 5478 4666 
L 6119 4666 
L 4947 0 
L 4153 0 
L 3169 4050 
L 2175 0 
L 1381 0 
L 213 4666 
z
" transform="scale(0.015625)"/>
       <path id="DejaVuSans-61" d="M 2194 1759 
Q 1497 1759 1228 1600 
Q 959 1441 959 1056 
Q 959 750 1161 570 
Q 1363 391 1709 391 
Q 2188 391 2477 730 
Q 2766 1069 2766 1631 
L 2766 1759 
L 2194 1759 
z
M 3341 1997 
L 3341 0 
L 2766 0 
L 2766 531 
Q 2569 213 2275 61 
Q 1981 -91 1556 -91 
Q 1019 -91 701 211 
Q 384 513 384 1019 
Q 384 1609 779 1909 
Q 1175 2209 1959 2209 
L 2766 2209 
L 2766 2266 
Q 2766 2663 2505 2880 
Q 2244 3097 1772 3097 
Q 1472 3097 1187 3025 
Q 903 2953 641 2809 
L 641 3341 
Q 956 3463 1253 3523 
Q 1550 3584 1831 3584 
Q 2591 3584 2966 3190 
Q 3341 2797 3341 1997 
z
" transform="scale(0.015625)"/>
       <path id="DejaVuSans-76" d="M 191 3500 
L 800 3500 
L 1894 563 
L 2988 3500 
L 3597 3500 
L 2284 0 
L 1503 0 
L 191 3500 
z
" transform="scale(0.015625)"/>
       <path id="DejaVuSans-65" d="M 3597 1894 
L 3597 1613 
L 953 1613 
Q 991 1019 1311 708 
Q 1631 397 2203 397 
Q 2534 397 2845 478 
Q 3156 559 3463 722 
L 3463 178 
Q 3153 47 2828 -22 
Q 2503 -91 2169 -91 
Q 1331 -91 842 396 
Q 353 884 353 1716 
Q 353 2575 817 3079 
Q 1281 3584 2069 3584 
Q 2775 3584 3186 3129 
Q 3597 2675 3597 1894 
z
M 3022 2063 
Q 3016 2534 2758 2815 
Q 2500 3097 2075 3097 
Q 1594 3097 1305 2825 
Q 1016 2553 972 2059 
L 3022 2063 
z
" transform="scale(0.015625)"/>
       <path id="DejaVuSans-6c" d="M 603 4863 
L 1178 4863 
L 1178 0 
L 603 0 
L 603 4863 
z
" transform="scale(0.015625)"/>
       <path id="DejaVuSans-6e" d="M 3513 2113 
L 3513 0 
L 2938 0 
L 2938 2094 
Q 2938 2591 2744 2837 
Q 2550 3084 2163 3084 
Q 1697 3084 1428 2787 
Q 1159 2491 1159 1978 
L 1159 0 
L 581 0 
L 581 3500 
L 1159 3500 
L 1159 2956 
Q 1366 3272 1645 3428 
Q 1925 3584 2291 3584 
Q 2894 3584 3203 3211 
Q 3513 2838 3513 2113 
z
" transform="scale(0.015625)"/>
       <path id="DejaVuSans-67" d="M 2906 1791 
Q 2906 2416 2648 2759 
Q 2391 3103 1925 3103 
Q 1463 3103 1205 2759 
Q 947 2416 947 1791 
Q 947 1169 1205 825 
Q 1463 481 1925 481 
Q 2391 481 2648 825 
Q 2906 1169 2906 1791 
z
M 3481 434 
Q 3481 -459 3084 -895 
Q 2688 -1331 1869 -1331 
Q 1566 -1331 1297 -1286 
Q 1028 -1241 775 -1147 
L 775 -588 
Q 1028 -725 1275 -790 
Q 1522 -856 1778 -856 
Q 2344 -856 2625 -561 
Q 2906 -266 2906 331 
L 2906 616 
Q 2728 306 2450 153 
Q 2172 0 1784 0 
Q 1141 0 747 490 
Q 353 981 353 1791 
Q 353 2603 747 3093 
Q 1141 3584 1784 3584 
Q 2172 3584 2450 3431 
Q 2728 3278 2906 2969 
L 2906 3500 
L 3481 3500 
L 3481 434 
z
" transform="scale(0.015625)"/>
       <path id="DejaVuSans-74" d="M 1172 4494 
L 1172 3500 
L 2356 3500 
L 2356 3053 
L 1172 3053 
L 1172 1153 
Q 1172 725 1289 603 
Q 1406 481 1766 481 
L 2356 481 
L 2356 0 
L 1766 0 
Q 1100 0 847 248 
Q 594 497 594 1153 
L 594 3053 
L 172 3053 
L 172 3500 
L 594 3500 
L 594 4494 
L 1172 4494 
z
" transform="scale(0.015625)"/>
       <path id="DejaVuSans-68" d="M 3513 2113 
L 3513 0 
L 2938 0 
L 2938 2094 
Q 2938 2591 2744 2837 
Q 2550 3084 2163 3084 
Q 1697 3084 1428 2787 
Q 1159 2491 1159 1978 
L 1159 0 
L 581 0 
L 581 4863 
L 1159 4863 
L 1159 2956 
Q 1366 3272 1645 3428 
Q 1925 3584 2291 3584 
Q 2894 3584 3203 3211 
Q 3513 2838 3513 2113 
z
" transform="scale(0.015625)"/>
       <path id="DejaVuSans-20" transform="scale(0.015625)"/>
       <path id="DejaVuSans-28" d="M 1984 4856 
Q 1566 4138 1362 3434 
Q 1159 2731 1159 2009 
Q 1159 1288 1364 580 
Q 1569 -128 1984 -844 
L 1484 -844 
Q 1016 -109 783 600 
Q 550 1309 550 2009 
Q 550 2706 781 3412 
Q 1013 4119 1484 4856 
L 1984 4856 
z
" transform="scale(0.015625)"/>
       <path id="DejaVuSans-6d" d="M 3328 2828 
Q 3544 3216 3844 3400 
Q 4144 3584 4550 3584 
Q 5097 3584 5394 3201 
Q 5691 2819 5691 2113 
L 5691 0 
L 5113 0 
L 5113 2094 
Q 5113 2597 4934 2840 
Q 4756 3084 4391 3084 
Q 3944 3084 3684 2787 
Q 3425 2491 3425 1978 
L 3425 0 
L 2847 0 
L 2847 2094 
Q 2847 2600 2669 2842 
Q 2491 3084 2119 3084 
Q 1678 3084 1418 2786 
Q 1159 2488 1159 1978 
L 1159 0 
L 581 0 
L 581 3500 
L 1159 3500 
L 1159 2956 
Q 1356 3278 1631 3431 
Q 1906 3584 2284 3584 
Q 2666 3584 2933 3390 
Q 3200 3197 3328 2828 
z
" transform="scale(0.015625)"/>
       <path id="DejaVuSans-29" d="M 513 4856 
L 1013 4856 
Q 1481 4119 1714 3412 
Q 1947 2706 1947 2009 
Q 1947 1309 1714 600 
Q 1481 -109 1013 -844 
L 513 -844 
Q 928 -128 1133 580 
Q 1338 1288 1338 2009 
Q 1338 2731 1133 3434 
Q 928 4138 513 4856 
z
" transform="scale(0.015625)"/>
      </defs>
      <use xlink:href="#DejaVuSans-57"/>
      <use xlink:href="#DejaVuSans-61" x="92.501953"/>
      <use xlink:href="#DejaVuSans-76" x="153.78125"/>
      <use xlink:href="#DejaVuSans-65" x="212.960938"/>
      <use xlink:href="#DejaVuSans-6c" x="274.484375"/>
      <use xlink:href="#DejaVuSans-65" x="302.267578"/>
      <use xlink:href="#DejaVuSans-6e" x="363.791016"/>
      <use xlink:href="#DejaVuSans-67" x="427.169922"/>
      <use xlink:href="#DejaVuSans-74" x="490.646484"/>
      <use xlink:href="#DejaVuSans-68" x="529.855469"/>
      <use xlink:href="#DejaVuSans-20" x="593.234375"/>
      <use xlink:href="#DejaVuSans-28" x="625.021484"/>
      <use xlink:href="#DejaVuSans-6e" x="664.035156"/>
      <use xlink:href="#DejaVuSans-6d" x="727.414062"/>
      <use xlink:href="#DejaVuSans-29" x="824.826172"/>
     </g>
    </g>
   </g>
   <g id="matplotlib.axis_2">
    <g id="ytick_1">
     <g id="line2d_9">
      <defs>
       <path id="me9c97d4233" d="M 0 0 
L -3.5 0 
" style="stroke: #000000; stroke-width: 0.8"/>
      </defs>
      <g>
       <use xlink:href="#me9c97d4233" x="76.61" y="374.92" style="stroke: #000000; stroke-width: 0.8"/>
      </g>
     </g>
     <g id="text_10">
      <!-- −70 -->
      <g transform="translate(35.8425 380.99875) scale(0.16 -0.16)">
       <defs>
        <path id="DejaVuSans-2212" d="M 678 2272 
L 4684 2272 
L 4684 1741 
L 678 1741 
L 678 2272 
z
" transform="scale(0.015625)"/>
        <path id="DejaVuSans-37" d="M 525 4666 
L 3525 4666 
L 3525 4397 
L 1831 0 
L 1172 0 
L 2766 4134 
L 525 4134 
L 525 4666 
z
" transform="scale(0.015625)"/>
       </defs>
       <use xlink:href="#DejaVuSans-2212"/>
       <use xlink:href="#DejaVuSans-37" x="83.789062"/>
       <use xlink:href="#DejaVuSans-30" x="147.412109"/>
      </g>
     </g>
    </g>
    <g id="ytick_2">
     <g id="line2d_10">
      <g>
       <use xlink:href="#me9c97d4233" x="76.61" y="326.948571" style="stroke: #000000; stroke-width: 0.8"/>
      </g>
     </g>
     <g id="text_11">
      <!-- −60 -->
      <g transform="translate(35.8425 333.027321) scale(0.16 -0.16)">
       <use xlink:href="#DejaVuSans-2212"/>
       <use xlink:href="#DejaVuSans-36" x="83.789062"/>
       <use xlink:href="#DejaVuSans-30" x="147.412109"/>
      </g>
     </g>
    </g>
    <g id="ytick_3">
     <g id="line2d_11">
      <g>
       <use xlink:href="#me9c97d4233" x="76.61" y="278.977143" style="stroke: #000000; stroke-width: 0.8"/>
      </g>
     </g>
     <g id="text_12">
      <!-- −50 -->
      <g transform="translate(35.8425 285.055893) scale(0.16 -0.16)">
       <use xlink:href="#DejaVuSans-2212"/>
       <use xlink:href="#DejaVuSans-35" x="83.789062"/>
       <use xlink:href="#DejaVuSans-30" x="147.412109"/>
      </g>
     </g>
    </g>
    <g id="ytick_4">
     <g id="line2d_12">
      <g>
       <use xlink:href="#me9c97d4233" x="76.61" y="231.005714" style="stroke: #000000; stroke-width: 0.8"/>
      </g>
     </g>
     <g id="text_13">
      <!-- −40 -->
      <g transform="translate(35.8425 237.084464) scale(0.16 -0.16)">
       <use xlink:href="#DejaVuSans-2212"/>
       <use xlink:href="#DejaVuSans-34" x="83.789062"/>
       <use xlink:href="#DejaVuSans-30" x="147.412109"/>
      </g>
     </g>
    </g>
    <g id="ytick_5">
     <g id="line2d_13">
      <g>
       <use xlink:href="#me9c97d4233" x="76.61" y="183.034286" style="stroke: #000000; stroke-width: 0.8"/>
      </g>
     </g>
     <g id="text_14">
      <!-- −30 -->
      <g transform="translate(35.8425 189.113036) scale(0.16 -0.16)">
       <use xlink:href="#DejaVuSans-2212"/>
       <use xlink:href="#DejaVuSans-33" x="83.789062"/>
       <use xlink:href="#DejaVuSans-30" x="147.412109"/>
      </g>
     </g>
    </g>
    <g id="ytick_6">
     <g id="line2d_14">
      <g>
       <use xlink:href="#me9c97d4233" x="76.61" y="135.062857" style="stroke: #000000; stroke-width: 0.8"/>
      </g>
     </g>
     <g id="text_15">
      <!-- −20 -->
      <g transform="translate(35.8425 141.141607) scale(0.16 -0.16)">
       <defs>
        <path id="DejaVuSans-32" d="M 1228 531 
L 3431 531 
L 3431 0 
L 469 0 
L 469 531 
Q 828 903 1448 1529 
Q 2069 2156 2228 2338 
Q 2531 2678 2651 2914 
Q 2772 3150 2772 3378 
Q 2772 3750 2511 3984 
Q 2250 4219 1831 4219 
Q 1534 4219 1204 4116 
Q 875 4013 500 3803 
L 500 4441 
Q 881 4594 1212 4672 
Q 1544 4750 1819 4750 
Q 2544 4750 2975 4387 
Q 3406 4025 3406 3419 
Q 3406 3131 3298 2873 
Q 3191 2616 2906 2266 
Q 2828 2175 2409 1742 
Q 1991 1309 1228 531 
z
" transform="scale(0.015625)"/>
       </defs>
       <use xlink:href="#DejaVuSans-2212"/>
       <use xlink:href="#DejaVuSans-32" x="83.789062"/>
       <use xlink:href="#DejaVuSans-30" x="147.412109"/>
      </g>
     </g>
    </g>
    <g id="ytick_7">
     <g id="line2d_15">
      <g>
       <use xlink:href="#me9c97d4233" x="76.61" y="87.091429" style="stroke: #000000; stroke-width: 0.8"/>
      </g>
     </g>
     <g id="text_16">
      <!-- −10 -->
      <g transform="translate(35.8425 93.170179) scale(0.16 -0.16)">
       <use xlink:href="#DejaVuSans-2212"/>
       <use xlink:href="#DejaVuSans-31" x="83.789062"/>
       <use xlink:href="#DejaVuSans-30" x="147.412109"/>
      </g>
     </g>
    </g>
    <g id="ytick_8">
     <g id="line2d_16">
      <g>
       <use xlink:href="#me9c97d4233" x="76.61" y="39.12" style="stroke: #000000; stroke-width: 0.8"/>
      </g>
     </g>
     <g id="text_17">
      <!-- 0 -->
      <g transform="translate(59.43 45.19875) scale(0.16 -0.16)">
       <use xlink:href="#DejaVuSans-30"/>
      </g>
     </g>
    </g>
    <g id="text_18">
     <!-- Transmittance (dB) -->
     <g transform="translate(28.515 283.08875) rotate(-90) scale(0.16 -0.16)">
      <defs>
       <path id="DejaVuSans-54" d="M -19 4666 
L 3928 4666 
L 3928 4134 
L 2272 4134 
L 2272 0 
L 1638 0 
L 1638 4134 
L -19 4134 
L -19 4666 
z
" transform="scale(0.015625)"/>
       <path id="DejaVuSans-72" d="M 2631 2963 
Q 2534 3019 2420 3045 
Q 2306 3072 2169 3072 
Q 1681 3072 1420 2755 
Q 1159 2438 1159 1844 
L 1159 0 
L 581 0 
L 581 3500 
L 1159 3500 
L 1159 2956 
Q 1341 3275 1631 3429 
Q 1922 3584 2338 3584 
Q 2397 3584 2469 3576 
Q 2541 3569 2628 3553 
L 2631 2963 
z
" transform="scale(0.015625)"/>
       <path id="DejaVuSans-73" d="M 2834 3397 
L 2834 2853 
Q 2591 2978 2328 3040 
Q 2066 3103 1784 3103 
Q 1356 3103 1142 2972 
Q 928 2841 928 2578 
Q 928 2378 1081 2264 
Q 1234 2150 1697 2047 
L 1894 2003 
Q 2506 1872 2764 1633 
Q 3022 1394 3022 966 
Q 3022 478 2636 193 
Q 2250 -91 1575 -91 
Q 1294 -91 989 -36 
Q 684 19 347 128 
L 347 722 
Q 666 556 975 473 
Q 1284 391 1588 391 
Q 1994 391 2212 530 
Q 2431 669 2431 922 
Q 2431 1156 2273 1281 
Q 2116 1406 1581 1522 
L 1381 1569 
Q 847 1681 609 1914 
Q 372 2147 372 2553 
Q 372 3047 722 3315 
Q 1072 3584 1716 3584 
Q 2034 3584 2315 3537 
Q 2597 3491 2834 3397 
z
" transform="scale(0.015625)"/>
       <path id="DejaVuSans-69" d="M 603 3500 
L 1178 3500 
L 1178 0 
L 603 0 
L 603 3500 
z
M 603 4863 
L 1178 4863 
L 1178 4134 
L 603 4134 
L 603 4863 
z
" transform="scale(0.015625)"/>
       <path id="DejaVuSans-63" d="M 3122 3366 
L 3122 2828 
Q 2878 2963 2633 3030 
Q 2388 3097 2138 3097 
Q 1578 3097 1268 2742 
Q 959 2388 959 1747 
Q 959 1106 1268 751 
Q 1578 397 2138 397 
Q 2388 397 2633 464 
Q 2878 531 3122 666 
L 3122 134 
Q 2881 22 2623 -34 
Q 2366 -91 2075 -91 
Q 1284 -91 818 406 
Q 353 903 353 1747 
Q 353 2603 823 3093 
Q 1294 3584 2113 3584 
Q 2378 3584 2631 3529 
Q 2884 3475 3122 3366 
z
" transform="scale(0.015625)"/>
       <path id="DejaVuSans-64" d="M 2906 2969 
L 2906 4863 
L 3481 4863 
L 3481 0 
L 2906 0 
L 2906 525 
Q 2725 213 2448 61 
Q 2172 -91 1784 -91 
Q 1150 -91 751 415 
Q 353 922 353 1747 
Q 353 2572 751 3078 
Q 1150 3584 1784 3584 
Q 2172 3584 2448 3432 
Q 2725 3281 2906 2969 
z
M 947 1747 
Q 947 1113 1208 752 
Q 1469 391 1925 391 
Q 2381 391 2643 752 
Q 2906 1113 2906 1747 
Q 2906 2381 2643 2742 
Q 2381 3103 1925 3103 
Q 1469 3103 1208 2742 
Q 947 2381 947 1747 
z
" transform="scale(0.015625)"/>
       <path id="DejaVuSans-42" d="M 1259 2228 
L 1259 519 
L 2272 519 
Q 2781 519 3026 730 
Q 3272 941 3272 1375 
Q 3272 1813 3026 2020 
Q 2781 2228 2272 2228 
L 1259 2228 
z
M 1259 4147 
L 1259 2741 
L 2194 2741 
Q 2656 2741 2882 2914 
Q 3109 3088 3109 3444 
Q 3109 3797 2882 3972 
Q 2656 4147 2194 4147 
L 1259 4147 
z
M 628 4666 
L 2241 4666 
Q 2963 4666 3353 4366 
Q 3744 4066 3744 3513 
Q 3744 3084 3544 2831 
Q 3344 2578 2956 2516 
Q 3422 2416 3680 2098 
Q 3938 1781 3938 1306 
Q 3938 681 3513 340 
Q 3088 0 2303 0 
L 628 0 
L 628 4666 
z
" transform="scale(0.015625)"/>
      </defs>
      <use xlink:href="#DejaVuSans-54"/>
      <use xlink:href="#DejaVuSans-72" x="46.333984"/>
      <use xlink:href="#DejaVuSans-61" x="87.447266"/>
      <use xlink:href="#DejaVuSans-6e" x="148.726562"/>
      <use xlink:href="#DejaVuSans-73" x="212.105469"/>
      <use xlink:href="#DejaVuSans-6d" x="264.205078"/>
      <use xlink:href="#DejaVuSans-69" x="361.617188"/>
      <use xlink:href="#DejaVuSans-74" x="389.400391"/>
      <use xlink:href="#DejaVuSans-74" x="428.609375"/>
      <use xlink:href="#DejaVuSans-61" x="467.818359"/>
      <use xlink:href="#DejaVuSans-6e" x="529.097656"/>
      <use xlink:href="#DejaVuSans-63" x="592.476562"/>
      <use xlink:href="#DejaVuSans-65" x="647.457031"/>
      <use xlink:href="#DejaVuSans-20" x="708.980469"/>
      <use xlink:href="#DejaVuSans-28" x="740.767578"/>
      <use xlink:href="#DejaVuSans-64" x="779.78125"/>
      <use xlink:href="#DejaVuSans-42" x="843.257812"/>
      <use xlink:href="#DejaVuSans-29" x="911.861328"/>
     </g>
    </g>
   </g>
   <g id="line2d_17">
    <path d="M 76.61 117.236508 
L 77.89967 109.285755 
L 79.189339 102.650334 
L 80.479009 96.967248 
L 81.768679 92.007074 
L 83.703183 85.597765 
L 85.637688 80.132741 
L 87.572192 75.392093 
L 89.506697 71.227271 
L 91.441201 67.533256 
L 93.375706 64.233111 
L 95.955045 60.347331 
L 98.534384 56.957537 
L 101.113724 53.988736 
L 103.693063 51.384642 
L 106.272402 49.102115 
L 108.851742 47.107556 
L 111.431081 45.374481 
L 114.01042 43.881851 
L 116.58976 42.612894 
L 119.169099 41.554257 
L 121.748438 40.695395 
L 124.327778 40.028122 
L 126.907117 39.546288 
L 130.131291 39.198305 
L 133.355465 39.128506 
L 136.57964 39.335765 
L 139.158979 39.702666 
L 141.738318 40.251554 
L 144.317658 40.987198 
L 146.896997 41.916224 
L 149.476336 43.04737 
L 152.055676 44.391836 
L 154.635015 45.963772 
L 157.214354 47.780945 
L 159.793694 49.865662 
L 162.373033 52.246057 
L 164.952372 54.957934 
L 167.531712 58.047444 
L 170.111051 61.575123 
L 172.045556 64.556238 
L 173.98006 67.873824 
L 175.914565 71.586155 
L 177.849069 75.77057 
L 179.783574 80.5327 
L 181.718078 86.022079 
L 183.652583 92.460293 
L 184.942252 97.443692 
L 186.231922 103.154918 
L 187.521592 109.826085 
L 188.811261 117.825186 
L 190.100931 127.78844 
L 191.390601 140.967433 
L 192.035435 149.563931 
L 192.68027 160.421318 
L 193.325105 175.15957 
L 193.96994 198.187878 
L 194.614775 254.015978 
L 195.25961 229.096004 
L 195.904444 190.098911 
L 196.549279 170.320682 
L 197.194114 156.971954 
L 197.838949 146.88696 
L 199.128619 132.010751 
L 200.418288 121.105525 
L 201.707958 112.506856 
L 202.997628 105.420246 
L 204.287297 99.403948 
L 205.576967 94.18683 
L 207.511471 87.484902 
L 209.445976 81.799671 
L 211.38048 76.885934 
L 213.314985 72.580299 
L 215.249489 68.76846 
L 217.183994 65.367362 
L 219.118498 62.314808 
L 221.697838 58.705945 
L 224.277177 55.547175 
L 226.856517 52.774754 
L 229.435856 50.340225 
L 232.015195 48.206073 
L 234.594535 46.342846 
L 237.173874 44.727191 
L 239.753213 43.34048 
L 242.332553 42.167831 
L 244.911892 41.197402 
L 247.491231 40.419871 
L 250.715405 39.708463 
L 253.93958 39.277412 
L 257.163754 39.120772 
L 260.387928 39.236294 
L 263.612102 39.62531 
L 266.836276 40.292803 
L 269.415616 41.033143 
L 271.994955 41.96389 
L 274.574294 43.093663 
L 277.153634 44.433478 
L 279.732973 45.997217 
L 282.312312 47.802277 
L 284.891652 49.870451 
L 287.470991 52.229177 
L 290.05033 54.913295 
L 292.62967 57.967611 
L 295.209009 61.450732 
L 297.143514 64.390626 
L 299.078018 67.658449 
L 301.012523 71.310066 
L 302.947027 75.419315 
L 304.881532 80.086543 
L 306.816036 85.452912 
L 308.750541 91.725921 
L 310.04021 96.563876 
L 311.32988 102.086989 
L 312.61955 108.505409 
L 313.909219 116.146829 
L 315.198889 125.564657 
L 316.488559 137.808961 
L 317.133393 145.632885 
L 317.778228 155.286716 
L 318.423063 167.887805 
L 319.067898 186.054195 
L 319.712733 219.023341 
L 320.357568 284.783296 
L 321.002402 204.630646 
L 321.647237 178.915828 
L 322.292072 163.140569 
L 322.936907 151.733439 
L 323.581742 142.796497 
L 324.871411 129.218466 
L 326.161081 119.028921 
L 327.450751 110.884075 
L 328.74042 104.111122 
L 330.03009 98.324657 
L 331.31976 93.283217 
L 333.254264 86.778812 
L 335.188769 81.239376 
L 337.123273 76.437481 
L 339.057778 72.220126 
L 340.992282 68.479486 
L 342.926787 65.136759 
L 345.506126 61.198316 
L 348.085465 57.758675 
L 350.664805 54.741402 
L 353.244144 52.089175 
L 355.823483 49.758072 
L 358.402823 47.713871 
L 360.982162 45.929568 
L 363.561502 44.383665 
L 366.140841 43.058968 
L 368.72018 41.941717 
L 371.29952 41.020958 
L 374.523694 40.133406 
L 377.747868 39.527093 
L 380.972042 39.193743 
L 384.196216 39.12883 
L 387.42039 39.331331 
L 390.644565 39.803685 
L 393.868739 40.551915 
L 396.448078 41.35566 
L 399.027417 42.349349 
L 401.606757 43.542183 
L 404.186096 44.945824 
L 406.765435 46.574899 
L 409.344775 48.447689 
L 411.924114 50.587076 
L 414.503453 53.021876 
L 417.082793 55.788733 
L 419.662132 58.934886 
L 422.241471 62.522349 
L 424.175976 65.551593 
L 426.11048 68.921482 
L 428.044985 72.692027 
L 429.979489 76.943083 
L 431.913994 81.784078 
L 433.848498 87.370586 
L 435.783003 93.934424 
L 437.072673 99.026107 
L 438.362342 104.875948 
L 439.652012 111.732611 
L 440.941682 119.995035 
L 442.231351 130.364812 
L 442.876186 136.730569 
L 443.521021 144.259659 
L 444.165856 153.468756 
L 444.810691 165.321732 
L 445.455526 181.964572 
L 446.10036 210.118674 
L 446.745195 350.514071 
L 447.39003 213.091181 
L 448.034865 183.452801 
L 448.6797 166.316542 
L 449.324535 154.217697 
L 449.969369 144.861732 
L 451.259039 130.800415 
L 452.548709 120.339563 
L 453.838378 112.020311 
L 455.128048 105.125236 
L 456.417718 99.248007 
L 457.707387 94.136043 
L 459.641892 87.550387 
L 461.576396 81.948717 
L 463.510901 77.096818 
L 465.445405 72.837702 
L 467.37991 69.061042 
L 469.314414 65.686384 
L 471.893754 61.709812 
L 474.473093 58.235481 
L 477.052432 55.185719 
L 479.631772 52.502331 
L 482.211111 50.140752 
L 484.79045 48.066268 
L 487.36979 46.251478 
L 489.949129 44.674554 
L 492.528468 43.318012 
L 495.107808 42.167828 
L 498.331982 41.00345 
L 501.556156 40.127348 
L 504.78033 39.527433 
L 508.004505 39.195662 
L 511.228679 39.127607 
L 514.452853 39.322228 
L 517.677027 39.781819 
L 520.901201 40.512127 
L 524.125375 41.522659 
L 526.704715 42.54195 
L 529.284054 43.758666 
L 531.863393 45.184611 
L 534.442733 46.834544 
L 537.022072 48.726871 
L 539.601411 50.884603 
L 542.180751 53.336686 
L 544.76009 56.119908 
L 547.339429 59.281681 
L 549.918769 62.884226 
L 551.853273 65.924596 
L 553.787778 69.305626 
L 555.722282 73.087546 
L 557.656787 77.350522 
L 559.591291 82.20445 
L 561.525796 87.805642 
L 563.4603 94.387167 
L 564.74997 99.493376 
L 566.03964 105.361249 
L 567.329309 112.241501 
L 568.618979 120.536941 
L 569.908649 130.957439 
L 570.553483 137.360792 
L 571.198318 144.942192 
L 571.843153 154.229345 
L 572.487988 166.211792 
L 573.132823 183.112092 
L 573.777658 212.02952 
L 574.32439 433 
M 574.520536 433 
L 575.067327 211.87161 
L 575.712162 183.035969 
L 576.356997 166.164187 
L 577.001832 154.196939 
L 577.646667 144.919655 
L 578.936336 130.947776 
L 580.226006 120.536067 
L 581.515676 112.247538 
L 582.805345 105.373163 
L 584.095015 99.510521 
L 585.384685 94.409101 
L 587.319189 87.834166 
L 589.253694 82.239024 
L 591.188198 77.390705 
L 593.122703 73.132945 
L 595.057207 69.355867 
L 596.991712 65.979305 
L 599.571051 61.998209 
L 602.15039 58.51735 
L 604.72973 55.459233 
L 607.309069 52.76577 
L 609.888408 50.392454 
L 612.467748 48.304587 
L 615.047087 46.474763 
L 617.626426 44.881122 
L 620.205766 43.50613 
L 622.785105 42.335692 
L 626.009279 41.143323 
L 629.233453 40.236051 
L 632.457628 39.601513 
L 635.681802 39.231327 
L 638.905976 39.120649 
L 642.13015 39.267926 
L 645.354324 39.674819 
L 648.578498 40.346287 
L 651.802673 41.290845 
L 655.026847 42.521021 
L 657.606186 43.722213 
L 660.185526 45.128558 
L 662.764865 46.754319 
L 665.344204 48.61725 
L 667.923544 50.739497 
L 670.502883 53.148849 
L 673.082222 55.880521 
L 675.661562 58.97974 
L 678.240901 62.505622 
L 680.175405 65.476566 
L 682.10991 68.774959 
L 684.044414 72.457154 
L 685.978919 76.597668 
L 687.913423 81.297846 
L 689.847928 86.700405 
L 691.782432 93.015421 
L 693.072102 97.88676 
L 694.361772 103.45015 
L 695.651441 109.919647 
L 696.941111 117.630044 
L 698.230781 127.149137 
L 699.52045 139.561279 
L 700.165285 147.520474 
L 700.81012 157.380203 
L 701.454955 170.334129 
L 702.09979 189.247771 
L 702.744625 224.870785 
L 703.389459 268.446795 
L 704.034294 202.695434 
L 704.679129 178.358491 
L 705.323964 163.103617 
L 705.968799 151.969657 
L 706.613634 143.200783 
L 707.903303 129.818076 
L 709.192973 119.737568 
L 710.482643 111.66123 
L 711.772312 104.934312 
L 713.061982 99.17997 
L 714.351652 94.16132 
L 716.286156 87.679156 
L 718.220661 82.151955 
L 720.155165 77.355101 
L 720.8 75.890816 
L 720.8 75.890816 
" clip-path="url(#p1a4c619da5)" style="fill: none; stroke: #cd5c5c; stroke-width: 1.5; stroke-linecap: square"/>
   </g>
   <g id="line2d_18">
    <path d="M 76.61 132.01415 
L 77.254835 138.850707 
L 77.89967 147.046613 
L 78.544505 157.273169 
L 79.189339 170.870291 
L 79.834174 191.20185 
L 80.479009 232.540857 
L 81.123844 247.573848 
L 81.768679 196.166715 
L 82.413514 173.848948 
L 83.058348 159.402467 
L 83.703183 148.704794 
L 84.992853 133.166218 
L 86.282523 121.909124 
L 87.572192 113.092221 
L 88.861862 105.857111 
L 90.151532 99.733343 
L 91.441201 94.434977 
L 93.375706 87.642878 
L 95.31021 81.892202 
L 97.244715 76.929224 
L 99.179219 72.585618 
L 101.113724 68.744023 
L 103.048228 65.319399 
L 104.982733 62.248198 
L 107.562072 58.62047 
L 110.141411 55.448314 
L 112.720751 52.666951 
L 115.30009 50.227218 
L 117.879429 48.091106 
L 120.458769 46.228817 
L 123.038108 44.616759 
L 125.617447 43.236142 
L 128.196787 42.071984 
L 130.776126 41.112393 
L 133.355465 40.348039 
L 135.934805 39.771774 
L 138.514144 39.378359 
L 141.738318 39.138504 
L 144.962492 39.175551 
L 148.186667 39.489804 
L 150.766006 39.943376 
L 153.345345 40.580737 
L 155.924685 41.407508 
L 158.504024 42.431273 
L 161.083363 43.661875 
L 163.662703 45.111826 
L 166.242042 46.79687 
L 168.821381 48.736758 
L 171.400721 50.956324 
L 173.98006 53.487002 
L 176.559399 56.369011 
L 179.138739 59.654583 
L 181.073243 62.424379 
L 183.007748 65.497399 
L 184.942252 68.921964 
L 186.876757 72.761106 
L 188.811261 77.099118 
L 190.745766 82.052222 
L 192.68027 87.78692 
L 193.96994 92.162883 
L 195.25961 97.101832 
L 196.549279 102.755604 
L 197.838949 109.349491 
L 199.128619 117.238878 
L 200.418288 127.033786 
L 201.707958 139.920969 
L 202.352793 148.272943 
L 202.997628 158.743253 
L 203.642462 172.775397 
L 204.287297 194.105695 
L 204.932132 240.139519 
L 205.576967 239.364909 
L 206.221802 193.850076 
L 206.866637 172.625117 
L 207.511471 158.63922 
L 208.156306 148.195456 
L 209.445976 132.928651 
L 210.735646 121.814519 
L 212.025315 113.085525 
L 213.314985 105.909662 
L 214.604655 99.828264 
L 215.894324 94.561446 
L 217.828829 87.803501 
L 219.763333 82.076587 
L 221.697838 77.130434 
L 223.632342 72.798711 
L 225.566847 68.965284 
L 227.501351 65.54591 
L 229.435856 62.477577 
L 232.015195 58.850593 
L 234.594535 55.676192 
L 237.173874 52.889983 
L 239.753213 50.443052 
L 242.332553 48.297549 
L 244.911892 46.423771 
L 247.491231 44.79817 
L 250.070571 43.401962 
L 252.64991 42.220141 
L 255.229249 41.240754 
L 257.808589 40.454387 
L 261.032763 39.731981 
L 264.256937 39.289843 
L 267.481111 39.121882 
L 270.705285 39.225705 
L 273.929459 39.602487 
L 277.153634 40.257038 
L 279.732973 40.986379 
L 282.312312 41.905425 
L 284.891652 43.022651 
L 287.470991 44.348899 
L 290.05033 45.897838 
L 292.62967 47.686596 
L 295.209009 49.736629 
L 297.788348 52.074926 
L 300.367688 54.735734 
L 302.947027 57.76305 
L 305.526366 61.214339 
L 307.460871 64.126218 
L 309.395375 67.361401 
L 311.32988 70.974366 
L 313.264384 75.036949 
L 315.198889 79.64649 
L 317.133393 84.939432 
L 319.067898 91.1154 
L 320.357568 95.868976 
L 321.647237 101.284078 
L 322.936907 107.559014 
L 324.226577 115.000136 
L 325.516246 124.118082 
L 326.805916 135.862815 
L 327.450751 143.286695 
L 328.095586 152.339284 
L 328.74042 163.93433 
L 329.385255 180.071012 
L 330.03009 206.776755 
L 330.674925 302.080704 
L 331.31976 216.236608 
L 331.964595 184.787375 
L 332.609429 167.078507 
L 333.254264 154.698811 
L 333.899099 145.176068 
L 335.188769 130.925849 
L 336.478438 120.36105 
L 337.768108 111.976278 
L 339.057778 105.036381 
L 340.347447 99.126802 
L 341.637117 93.990623 
L 343.571622 87.378697 
L 345.506126 81.7588 
L 347.440631 76.894118 
L 349.375135 72.626146 
L 351.30964 68.843613 
L 353.244144 65.46545 
L 355.823483 61.487188 
L 358.402823 58.013996 
L 360.982162 54.967783 
L 363.561502 52.290086 
L 366.140841 49.936165 
L 368.72018 47.871199 
L 371.29952 46.067728 
L 373.878859 44.503901 
L 376.458198 43.162243 
L 379.037538 42.028763 
L 381.616877 41.092317 
L 384.841051 40.185666 
L 388.065225 39.560557 
L 391.289399 39.208461 
L 394.513574 39.124605 
L 397.737748 39.307726 
L 400.961922 39.760007 
L 404.186096 40.487189 
L 406.765435 41.273179 
L 409.344775 42.248089 
L 411.924114 43.42089 
L 414.503453 44.802971 
L 417.082793 46.408618 
L 419.662132 48.255688 
L 422.241471 50.366521 
L 424.820811 52.769221 
L 427.40015 55.499484 
L 429.979489 58.603247 
L 432.558829 62.14068 
L 434.493333 65.125814 
L 436.427838 68.444187 
L 438.362342 72.153526 
L 440.296847 76.330359 
L 442.231351 81.079077 
L 444.165856 86.547225 
L 446.10036 92.953015 
L 447.39003 97.905719 
L 448.6797 103.575482 
L 449.969369 110.189047 
L 451.259039 118.10446 
L 452.548709 127.937256 
L 453.838378 140.887738 
L 454.483213 149.291742 
L 455.128048 159.843433 
L 455.772883 174.021966 
L 456.417718 195.695682 
L 457.062553 243.502258 
L 457.707387 237.680625 
L 458.352222 193.760778 
L 458.997057 172.864561 
L 459.641892 159.020386 
L 460.286727 148.655378 
L 461.576396 133.472846 
L 462.866066 122.402343 
L 464.155736 113.699224 
L 465.445405 106.539743 
L 466.735075 100.468943 
L 468.024745 95.208849 
L 469.959249 88.455975 
L 471.893754 82.729825 
L 473.828258 77.781214 
L 475.762763 73.44443 
L 477.697267 69.603717 
L 479.631772 66.175064 
L 482.211111 62.138058 
L 484.79045 58.613042 
L 487.36979 55.51977 
L 489.949129 52.79828 
L 492.528468 50.402751 
L 495.107808 48.297543 
L 497.687147 46.454559 
L 500.266486 44.851432 
L 502.845826 43.470254 
L 505.425165 42.296653 
L 508.649339 41.104286 
L 511.873514 40.201186 
L 515.097688 39.574863 
L 518.321862 39.216913 
L 521.546036 39.122576 
L 524.77021 39.290477 
L 527.994384 39.722567 
L 531.218559 40.424219 
L 534.442733 41.404515 
L 537.022072 42.398143 
L 539.601411 43.587555 
L 542.180751 44.984184 
L 544.76009 46.602333 
L 547.339429 48.459839 
L 549.918769 50.578981 
L 552.498108 52.987755 
L 555.077447 55.721678 
L 557.656787 58.826413 
L 560.236126 62.361719 
L 562.170631 65.342854 
L 564.105135 68.654748 
L 566.03964 72.354577 
L 567.974144 76.51806 
L 569.908649 81.248359 
L 571.843153 86.691064 
L 573.777658 93.061091 
L 575.067327 97.981431 
L 576.356997 103.608619 
L 577.646667 110.16421 
L 578.936336 117.996707 
L 580.226006 127.701945 
L 581.515676 140.431971 
L 582.160511 148.652472 
L 582.805345 158.916359 
L 583.45018 172.578638 
L 584.095015 193.056433 
L 584.73985 235.041976 
L 585.384685 247.628616 
L 586.02952 197.225647 
L 586.674354 175.081 
L 587.319189 160.705817 
L 587.964024 150.046589 
L 589.253694 134.547296 
L 590.543363 123.308518 
L 591.833033 114.500447 
L 593.122703 107.268771 
L 594.412372 101.144852 
L 595.702042 95.843677 
L 597.636547 89.043462 
L 599.571051 83.280796 
L 601.505556 78.302456 
L 603.44006 73.940387 
L 605.374565 70.077377 
L 607.309069 66.628463 
L 609.888408 62.566507 
L 612.467748 59.017958 
L 615.047087 55.90186 
L 617.626426 53.157743 
L 620.205766 50.739407 
L 622.785105 48.610914 
L 625.364444 46.743923 
L 627.943784 45.115854 
L 630.523123 43.708603 
L 633.102462 42.507616 
L 636.326637 41.278889 
L 639.550811 40.336722 
L 642.774985 39.668227 
L 645.999159 39.264561 
L 649.223333 39.120452 
L 652.447508 39.233933 
L 655.671682 39.60624 
L 658.895856 40.241878 
L 662.12003 41.148854 
L 665.344204 42.3391 
L 667.923544 43.50618 
L 670.502883 44.876003 
L 673.082222 46.462284 
L 675.661562 48.28209 
L 678.240901 50.356697 
L 680.82024 52.712761 
L 683.39958 55.383988 
L 685.978919 58.413553 
L 688.558258 61.857684 
L 690.492763 64.756924 
L 692.427267 67.971994 
L 694.361772 71.555753 
L 696.296276 75.577682 
L 698.230781 80.131584 
L 700.165285 85.348348 
L 702.09979 91.418382 
L 703.389459 96.077171 
L 704.679129 101.369063 
L 705.968799 107.478863 
L 707.258468 114.688914 
L 708.548138 123.462658 
L 709.837808 134.642775 
L 710.482643 141.623741 
L 711.127477 150.026509 
L 711.772312 160.575778 
L 712.417147 174.74941 
L 713.061982 196.410928 
L 713.706817 244.151798 
L 714.351652 238.510671 
L 714.996486 194.535897 
L 715.641321 173.627865 
L 716.286156 159.778286 
L 716.930991 149.409963 
L 718.220661 134.223002 
L 719.51033 123.148994 
L 720.8 114.442482 
L 720.8 114.442482 
" clip-path="url(#p1a4c619da5)" style="fill: none; stroke: #f4a460; stroke-width: 1.5; stroke-linecap: square"/>
   </g>
   <g id="line2d_19">
    <path d="M 76.61 81.546139 
L 78.544505 87.246182 
L 79.834174 91.593723 
L 81.123844 96.497965 
L 82.413514 102.107845 
L 83.703183 108.643756 
L 84.992853 116.452072 
L 86.282523 126.124262 
L 87.572192 138.801765 
L 88.217027 146.980331 
L 88.861862 157.179901 
L 89.506697 170.729243 
L 90.151532 190.953116 
L 90.796366 231.822281 
L 91.441201 248.703017 
L 92.086036 196.514101 
L 92.730871 174.064532 
L 93.375706 159.563622 
L 94.020541 148.836199 
L 95.31021 133.265917 
L 96.59988 121.992116 
L 97.88955 113.164845 
L 99.179219 105.922629 
L 100.468889 99.793649 
L 101.758559 94.491264 
L 103.693063 87.69455 
L 105.627568 81.940332 
L 107.562072 76.974486 
L 109.496577 72.628453 
L 111.431081 68.784732 
L 113.365586 65.358187 
L 115.30009 62.285207 
L 117.879429 58.655249 
L 120.458769 55.480959 
L 123.038108 52.697504 
L 125.617447 50.25568 
L 128.196787 48.117449 
L 130.776126 46.252988 
L 133.355465 44.638682 
L 135.934805 43.255722 
L 138.514144 42.08911 
L 141.093483 41.126933 
L 143.672823 40.359845 
L 146.252162 39.780679 
L 149.476336 39.313137 
L 152.700511 39.12458 
L 155.924685 39.212298 
L 159.148859 39.57727 
L 161.728198 40.071914 
L 164.307538 40.751191 
L 166.886877 41.621135 
L 169.466216 42.689794 
L 172.045556 43.967546 
L 174.624895 45.467547 
L 177.204234 47.206325 
L 179.783574 49.204613 
L 182.362913 51.488505 
L 184.942252 54.091092 
L 187.521592 57.054828 
L 190.100931 60.435054 
L 192.035435 63.286939 
L 193.96994 66.454428 
L 195.904444 69.989494 
L 197.838949 73.960377 
L 199.773453 78.459067 
L 201.707958 83.613663 
L 203.642462 89.610007 
L 204.932132 94.209529 
L 206.221802 99.429638 
L 207.511471 105.448664 
L 208.801141 112.537573 
L 210.090811 121.137802 
L 211.38048 132.043175 
L 212.025315 138.814307 
L 212.67015 146.916294 
L 213.314985 156.996872 
L 213.95982 170.336383 
L 214.604655 190.091862 
L 215.249489 228.989903 
L 215.894324 254.381998 
L 216.539159 198.331167 
L 217.183994 175.270991 
L 217.828829 160.520979 
L 218.473664 149.658071 
L 219.763333 133.943713 
L 221.053003 122.593874 
L 222.342673 113.719107 
L 223.632342 106.443973 
L 224.922012 100.290456 
L 226.211682 94.968748 
L 228.146186 88.149108 
L 230.080691 82.376413 
L 232.015195 77.394737 
L 233.9497 73.034477 
L 235.884204 69.17748 
L 237.818709 65.738181 
L 239.753213 62.652673 
L 242.332553 59.006001 
L 244.911892 55.814653 
L 247.491231 53.013525 
L 250.070571 50.553203 
L 252.64991 48.395472 
L 255.229249 46.510353 
L 257.808589 44.874086 
L 260.387928 43.467717 
L 262.967267 42.276101 
L 265.546607 41.287172 
L 268.125946 40.491414 
L 271.35012 39.757347 
L 274.574294 39.303484 
L 277.798468 39.123582 
L 281.022643 39.215093 
L 284.246817 39.579029 
L 287.470991 40.220019 
L 290.05033 40.937858 
L 292.62967 41.844685 
L 295.209009 42.948828 
L 297.788348 44.26095 
L 300.367688 45.794502 
L 302.947027 47.566336 
L 305.526366 49.597559 
L 308.105706 51.914706 
L 310.685045 54.551418 
L 313.264384 57.550865 
L 315.843724 60.969355 
L 317.778228 63.852416 
L 319.712733 67.054076 
L 321.647237 70.627417 
L 323.581742 74.642262 
L 325.516246 79.192947 
L 327.450751 84.411214 
L 329.385255 90.488899 
L 330.674925 95.157392 
L 331.964595 100.464083 
L 333.254264 106.595872 
L 334.543934 113.838801 
L 335.833604 122.663527 
L 337.123273 133.928912 
L 337.768108 140.97694 
L 338.412943 149.47757 
L 339.057778 160.18222 
L 339.702613 174.639328 
L 340.347447 196.979413 
L 340.992282 248.507074 
L 341.637117 233.192812 
L 342.281952 191.92857 
L 342.926787 171.615265 
L 343.571622 158.026995 
L 344.216456 147.805942 
L 345.506126 132.780284 
L 346.795796 121.794097 
L 348.085465 113.144084 
L 349.375135 106.021518 
L 350.664805 99.97821 
L 351.954474 94.739687 
L 353.888979 88.012201 
L 355.823483 82.306239 
L 357.757988 77.374645 
L 359.692492 73.052889 
L 361.626997 69.225952 
L 363.561502 65.810309 
L 366.140841 61.790021 
L 368.72018 58.281495 
L 371.29952 55.204864 
L 373.878859 52.500443 
L 376.458198 50.122623 
L 379.037538 48.035941 
L 381.616877 46.212455 
L 384.196216 44.629941 
L 386.775556 43.270624 
L 389.354895 42.120274 
L 391.934234 41.167542 
L 395.158408 40.241093 
L 398.382583 39.596534 
L 401.606757 39.225068 
L 404.830931 39.121673 
L 408.055105 39.284835 
L 411.279279 39.716475 
L 414.503453 40.422048 
L 417.082793 41.189833 
L 419.662132 42.145512 
L 422.241471 43.297825 
L 424.820811 44.657883 
L 427.40015 46.239633 
L 429.979489 48.060504 
L 432.558829 50.142293 
L 435.138168 52.512397 
L 437.717508 55.205564 
L 440.296847 58.266442 
L 442.876186 61.753379 
L 444.810691 64.694094 
L 446.745195 67.960709 
L 448.6797 71.608723 
L 450.614204 75.711433 
L 452.548709 80.36836 
L 454.483213 85.719365 
L 456.417718 91.969757 
L 457.707387 96.78677 
L 458.997057 102.282038 
L 460.286727 108.662375 
L 461.576396 116.249433 
L 462.866066 125.584431 
L 464.155736 137.688636 
L 464.800571 145.399088 
L 465.445405 154.880635 
L 466.09024 167.189174 
L 466.735075 184.749637 
L 467.37991 215.715037 
L 468.024745 310.522085 
L 468.66958 207.929318 
L 469.314414 180.869068 
L 469.959249 164.607397 
L 470.604084 152.949011 
L 471.248919 143.858447 
L 472.538589 130.101667 
L 473.828258 119.810729 
L 475.117928 111.59999 
L 476.407598 104.780287 
L 477.697267 98.958504 
L 478.986937 93.889067 
L 480.921441 87.351418 
L 482.855946 81.785362 
L 484.79045 76.960941 
L 486.724955 72.723661 
L 488.659459 68.964754 
L 490.593964 65.604792 
L 493.173303 61.64424 
L 495.752643 58.182847 
L 498.331982 55.143682 
L 500.911321 52.469058 
L 503.490661 50.114771 
L 506.07 48.046364 
L 508.649339 46.23663 
L 511.228679 44.663885 
L 513.808018 43.310752 
L 516.387357 42.163292 
L 519.611532 41.001448 
L 522.835706 40.126994 
L 526.05988 39.527901 
L 529.284054 39.19616 
L 532.508228 39.127358 
L 535.732402 39.320447 
L 538.956577 39.777695 
L 542.180751 40.504802 
L 545.404925 41.511202 
L 547.984264 42.526447 
L 550.563604 43.738385 
L 553.142943 45.158726 
L 555.722282 46.802111 
L 558.301622 48.686792 
L 560.880961 50.835578 
L 563.4603 53.277148 
L 566.03964 56.047926 
L 568.618979 59.194819 
L 571.198318 62.779332 
L 573.132823 65.803493 
L 575.067327 69.165322 
L 577.001832 72.92415 
L 578.936336 77.158829 
L 580.870841 81.97726 
L 582.805345 87.532563 
L 584.73985 94.052378 
L 586.02952 99.10402 
L 587.319189 104.900855 
L 588.608859 111.684702 
L 589.898529 119.841632 
L 591.188198 130.045867 
L 591.833033 136.287964 
L 592.477868 143.644812 
L 593.122703 152.597577 
L 593.767538 164.028788 
L 594.412372 179.848001 
L 595.057207 205.678044 
L 595.702042 287.295458 
L 596.346877 219.485591 
L 596.991712 186.705831 
L 597.636547 168.596177 
L 598.281381 156.022906 
L 598.926216 146.385838 
L 600.215886 132.005887 
L 601.505556 121.368527 
L 602.795225 112.936493 
L 604.084895 105.962581 
L 605.374565 100.02667 
L 606.664234 94.868916 
L 608.598739 88.230042 
L 610.533243 82.586984 
L 612.467748 77.701169 
L 614.402252 73.413052 
L 616.336757 69.610708 
L 618.271261 66.212626 
L 620.850601 62.207111 
L 623.42994 58.705399 
L 626.009279 55.629014 
L 628.588619 52.919188 
L 631.167958 50.530926 
L 633.747297 48.429173 
L 636.326637 46.586245 
L 638.905976 44.98007 
L 641.485315 43.592937 
L 644.064655 42.410608 
L 647.288829 41.203536 
L 650.513003 40.281546 
L 653.737177 39.632082 
L 656.961351 39.246578 
L 660.185526 39.120008 
L 663.4097 39.250625 
L 666.633874 39.639876 
L 669.858048 40.29248 
L 673.082222 41.216665 
L 676.306396 42.424609 
L 678.885736 43.60639 
L 681.465075 44.991581 
L 684.044414 46.594103 
L 686.623754 48.431279 
L 689.203093 50.524698 
L 691.782432 52.901426 
L 694.361772 55.595711 
L 696.941111 58.651457 
L 699.52045 62.125913 
L 701.454955 65.051482 
L 703.389459 68.296909 
L 705.323964 71.916275 
L 707.258468 75.980822 
L 709.192973 80.586978 
L 711.127477 85.869731 
L 713.061982 92.02627 
L 714.351652 96.759727 
L 715.641321 102.146543 
L 716.930991 108.38139 
L 718.220661 115.764117 
L 719.51033 124.792476 
L 720.8 136.386804 
L 720.8 136.386804 
" clip-path="url(#p1a4c619da5)" style="fill: none; stroke: #008000; stroke-width: 1.5; stroke-linecap: square"/>
   </g>
   <g id="line2d_20">
    <path d="M 76.61 61.085751 
L 78.544505 64.033493 
L 80.479009 67.313728 
L 82.413514 70.983334 
L 84.348018 75.11763 
L 86.282523 79.819204 
L 88.217027 85.232775 
L 90.151532 91.571815 
L 91.441201 96.469269 
L 92.730871 102.070343 
L 94.020541 108.594396 
L 95.31021 116.385908 
L 96.59988 126.03247 
L 97.88955 138.666106 
L 98.534384 146.808491 
L 99.179219 156.951868 
L 99.824054 170.402015 
L 100.468889 190.403631 
L 101.113724 230.323279 
L 101.758559 251.137758 
L 102.403393 197.217501 
L 103.048228 174.486114 
L 103.693063 159.869648 
L 104.337898 149.079278 
L 105.627568 133.442102 
L 106.917237 122.133174 
L 108.206907 113.284183 
L 109.496577 106.027151 
L 110.786246 99.88737 
L 112.075916 94.57672 
L 114.01042 87.770633 
L 115.944925 82.009354 
L 117.879429 77.03792 
L 119.813934 72.687288 
L 121.748438 68.839656 
L 123.682943 65.409693 
L 125.617447 62.333652 
L 128.196787 58.700013 
L 130.776126 55.522356 
L 133.355465 52.735741 
L 135.934805 50.290886 
L 138.514144 48.149694 
L 141.093483 46.282296 
L 143.672823 44.66504 
L 146.252162 43.279086 
L 148.831502 42.109407 
L 151.410841 41.144064 
L 153.99018 40.373686 
L 156.56952 39.79108 
L 159.793694 39.31899 
L 163.017868 39.125557 
L 166.242042 39.208009 
L 169.466216 39.567253 
L 172.045556 40.056925 
L 174.624895 40.73083 
L 177.204234 41.594937 
L 179.783574 42.657218 
L 182.362913 43.927963 
L 184.942252 45.420208 
L 187.521592 47.15034 
L 190.100931 49.138905 
L 192.68027 51.411757 
L 195.25961 54.001662 
L 197.838949 56.950637 
L 200.418288 60.313406 
L 202.352793 63.149909 
L 204.287297 66.29948 
L 206.221802 69.813356 
L 208.156306 73.758728 
L 210.090811 78.226022 
L 212.025315 83.340913 
L 213.95982 89.285267 
L 215.249489 93.840051 
L 216.539159 99.003534 
L 217.828829 104.948451 
L 219.118498 111.936001 
L 220.408168 120.388902 
L 221.697838 131.060008 
L 222.342673 137.652956 
L 222.987508 145.501631 
L 223.632342 155.193321 
L 224.277177 167.859261 
L 224.922012 186.161904 
L 225.566847 219.599582 
L 226.211682 280.603549 
L 226.856517 203.760656 
L 227.501351 178.318261 
L 228.146186 162.644196 
L 228.791021 151.289977 
L 229.435856 142.385654 
L 230.725526 128.845988 
L 232.015195 118.678598 
L 233.304865 110.548501 
L 234.594535 103.786352 
L 235.884204 98.008382 
L 237.173874 92.974006 
L 239.108378 86.478573 
L 241.042883 80.946992 
L 242.977387 76.152379 
L 244.911892 71.94206 
L 246.846396 68.208415 
L 248.780901 64.872783 
L 251.36024 60.944126 
L 253.93958 57.514797 
L 256.518919 54.50849 
L 259.098258 51.867987 
L 261.677598 49.549456 
L 264.256937 47.518755 
L 266.836276 45.748963 
L 269.415616 44.218664 
L 271.994955 42.910751 
L 274.574294 41.811558 
L 277.153634 40.910235 
L 279.732973 40.198288 
L 282.957147 39.564979 
L 286.181321 39.208814 
L 289.405495 39.124897 
L 292.62967 39.311942 
L 295.853844 39.772217 
L 299.078018 40.511656 
L 301.657357 41.310732 
L 304.236697 42.301889 
L 306.816036 43.494408 
L 309.395375 44.900079 
L 311.974715 46.533713 
L 314.554054 48.41385 
L 317.133393 50.563729 
L 319.712733 53.012659 
L 322.292072 55.797964 
L 324.871411 58.967844 
L 327.450751 62.585691 
L 329.385255 65.643287 
L 331.31976 69.047643 
L 333.254264 72.860531 
L 335.188769 77.164388 
L 337.123273 82.072583 
L 339.057778 87.747009 
L 340.347447 92.070558 
L 341.637117 96.943055 
L 342.926787 102.510282 
L 344.216456 108.9873 
L 345.506126 116.710739 
L 346.795796 126.252136 
L 348.085465 138.704816 
L 348.7303 146.698075 
L 349.375135 156.610744 
L 350.01997 169.65705 
L 350.664805 188.770666 
L 351.954474 263.940305 
L 352.599309 200.929051 
L 353.244144 176.919621 
L 353.888979 161.792438 
L 354.533814 150.726817 
L 355.178649 142.000804 
L 356.468318 128.669718 
L 357.757988 118.620256 
L 359.047658 110.565711 
L 360.337327 103.855831 
L 361.626997 98.115915 
L 362.916667 93.110235 
L 364.851171 86.646199 
L 366.785676 81.136643 
L 368.72018 76.357688 
L 370.654685 72.158428 
L 372.589189 68.432348 
L 374.523694 65.10151 
L 377.103033 61.175763 
L 379.682372 57.746058 
L 382.261712 54.736587 
L 384.841051 52.090454 
L 387.42039 49.764039 
L 389.99973 47.723335 
L 392.579069 45.941492 
L 395.158408 44.39713 
L 397.737748 43.073134 
L 400.317087 41.955806 
L 402.896426 41.034232 
L 406.120601 40.144661 
L 409.344775 39.535234 
L 412.568949 39.197669 
L 415.793123 39.127401 
L 419.017297 39.323346 
L 422.241471 39.787846 
L 425.465646 40.52679 
L 428.044985 41.32196 
L 430.624324 42.305926 
L 433.203664 43.487741 
L 435.783003 44.878882 
L 438.362342 46.493737 
L 440.941682 48.350281 
L 443.521021 50.470999 
L 446.10036 52.884181 
L 448.6797 55.62576 
L 451.259039 58.741997 
L 453.838378 62.293512 
L 455.772883 65.290644 
L 457.707387 68.622668 
L 459.641892 72.347861 
L 461.576396 76.543543 
L 463.510901 81.315302 
L 465.445405 86.812586 
L 467.37991 93.256814 
L 468.66958 98.243026 
L 469.959249 103.955918 
L 471.248919 110.627317 
L 472.538589 118.62467 
L 473.828258 128.583063 
L 475.117928 141.751243 
L 475.762763 150.33779 
L 476.407598 161.178761 
L 477.052432 175.886082 
L 477.697267 198.837199 
L 478.342102 254.155098 
L 478.986937 230.313849 
L 479.631772 191.08156 
L 480.276607 171.245872 
L 480.921441 157.870908 
L 481.566276 147.770631 
L 482.855946 132.876667 
L 484.145616 121.960552 
L 485.435285 113.353665 
L 486.724955 106.259964 
L 488.014625 100.236999 
L 489.304294 95.013274 
L 491.238799 88.301109 
L 493.173303 82.604907 
L 495.107808 77.679236 
L 497.042312 73.360561 
L 498.976817 69.534476 
L 500.911321 66.117852 
L 503.490661 62.093849 
L 506.07 58.579218 
L 508.649339 55.494341 
L 511.228679 52.779684 
L 513.808018 50.389724 
L 516.387357 48.28904 
L 518.966697 46.449691 
L 521.546036 44.849431 
L 524.125375 43.470436 
L 526.704715 42.298404 
L 529.928889 41.107205 
L 533.153063 40.204454 
L 536.377237 39.577699 
L 539.601411 39.218557 
L 542.825586 39.122264 
L 546.04976 39.287428 
L 549.273934 39.715956 
L 552.498108 40.413161 
L 555.722282 41.388033 
L 558.301622 42.376538 
L 560.880961 43.560044 
L 563.4603 44.949877 
L 566.03964 46.560209 
L 568.618979 48.408701 
L 571.198318 50.517412 
L 573.777658 52.914038 
L 576.356997 55.633696 
L 578.936336 58.721497 
L 581.515676 62.236418 
L 583.45018 65.199332 
L 585.384685 68.489746 
L 587.319189 72.163874 
L 589.253694 76.296037 
L 591.188198 80.987289 
L 593.122703 86.379897 
L 595.057207 92.683184 
L 596.346877 97.54509 
L 597.636547 103.096998 
L 598.926216 109.551821 
L 600.215886 117.24227 
L 601.505556 126.731914 
L 602.795225 139.094998 
L 603.44006 147.014503 
L 604.084895 156.813612 
L 604.72973 169.663125 
L 605.374565 188.353534 
L 606.019399 223.160757 
L 606.664234 272.525521 
L 607.309069 203.27793 
L 607.953904 178.556913 
L 608.598739 163.154577 
L 609.243574 151.942663 
L 609.888408 143.125628 
L 611.178078 129.686721 
L 612.467748 119.574684 
L 613.757417 111.478426 
L 615.047087 104.738024 
L 616.336757 98.974175 
L 617.626426 93.948678 
L 619.560931 87.459629 
L 621.495435 81.928359 
L 623.42994 77.129439 
L 625.364444 72.91104 
L 627.298949 69.166059 
L 629.233453 65.816159 
L 631.812793 61.864269 
L 634.392132 58.407154 
L 636.971471 55.368648 
L 639.550811 52.691576 
L 642.13015 50.332075 
L 644.709489 48.255917 
L 647.288829 46.436041 
L 649.868168 44.850851 
L 652.447508 43.483011 
L 655.026847 42.318582 
L 658.251021 41.132293 
L 661.475195 40.229671 
L 664.699369 39.598477 
L 667.923544 39.230411 
L 671.147718 39.120678 
L 674.371892 39.267745 
L 677.596066 39.673261 
L 680.82024 40.342146 
L 684.044414 41.282844 
L 687.268589 42.507771 
L 689.847928 43.703657 
L 692.427267 45.103595 
L 695.006607 46.721704 
L 697.585946 48.575549 
L 700.165285 50.687031 
L 702.744625 53.083609 
L 705.323964 55.800054 
L 707.903303 58.880981 
L 710.482643 62.384635 
L 712.417147 65.335581 
L 714.351652 68.610301 
L 716.286156 72.264075 
L 718.220661 76.369877 
L 720.155165 81.026723 
L 720.8 82.723949 
L 720.8 82.723949 
" clip-path="url(#p1a4c619da5)" style="fill: none; stroke: #20b2aa; stroke-width: 1.5; stroke-linecap: square"/>
   </g>
   <g id="line2d_21">
    <path d="M 76.61 49.521897 
L 79.189339 51.868705 
L 81.768679 54.544895 
L 84.348018 57.595681 
L 86.927357 61.080293 
L 88.861862 64.025159 
L 90.796366 67.301895 
L 92.730871 70.967207 
L 94.665375 75.096165 
L 96.59988 79.790978 
L 98.534384 85.195765 
L 100.468889 91.522995 
L 101.758559 96.410047 
L 103.048228 101.997668 
L 104.337898 108.503656 
L 105.627568 116.269637 
L 106.917237 125.877349 
L 108.206907 138.444674 
L 108.851742 146.532515 
L 109.496577 156.591421 
L 110.141411 169.893164 
L 110.786246 189.565448 
L 111.431081 228.125658 
L 112.075916 255.121982 
L 112.720751 198.294897 
L 113.365586 175.119795 
L 114.01042 160.32361 
L 114.655255 149.435881 
L 115.30009 140.821181 
L 116.58976 127.622438 
L 117.879429 117.649839 
L 119.169099 109.646366 
L 120.458769 102.973618 
L 121.748438 97.262554 
L 123.038108 92.280491 
L 124.972613 85.845787 
L 126.907117 80.361163 
L 128.841622 75.604658 
L 130.776126 71.426507 
L 132.710631 67.720924 
L 134.645135 64.41046 
L 137.224474 60.512276 
L 139.803814 57.111111 
L 142.383153 54.131587 
L 144.962492 51.517141 
L 147.541832 49.224429 
L 150.121171 47.219695 
L 152.700511 45.476326 
L 155.27985 43.973174 
L 157.859189 42.693369 
L 160.438529 41.623471 
L 163.017868 40.752845 
L 165.597207 40.073221 
L 168.176547 39.578355 
L 171.400721 39.212981 
L 174.624895 39.124365 
L 177.849069 39.311141 
L 181.073243 39.775606 
L 183.652583 40.351072 
L 186.231922 41.113075 
L 188.811261 42.068477 
L 191.390601 43.226275 
L 193.96994 44.597959 
L 196.549279 46.198016 
L 199.128619 48.044619 
L 201.707958 50.160577 
L 204.287297 52.574664 
L 206.866637 55.323525 
L 209.445976 58.454456 
L 212.025315 62.029595 
L 213.95982 65.051634 
L 215.894324 68.416234 
L 217.828829 72.18364 
L 219.763333 76.434064 
L 221.697838 81.27749 
L 223.632342 86.870393 
L 225.566847 93.44614 
L 226.856517 98.550158 
L 228.146186 104.417505 
L 229.435856 111.299421 
L 230.725526 119.599716 
L 232.015195 130.030409 
L 232.66003 136.442318 
L 233.304865 144.03629 
L 233.9497 153.342924 
L 234.594535 165.358511 
L 235.239369 182.325919 
L 235.884204 211.446506 
L 236.529039 396.733083 
L 237.173874 210.483413 
L 237.818709 181.84736 
L 238.463544 165.042773 
L 239.108378 153.109582 
L 239.753213 143.853171 
L 241.042883 129.906363 
L 242.332553 119.510206 
L 243.622222 111.233271 
L 244.911892 104.368672 
L 246.201562 98.514992 
L 247.491231 93.422252 
L 249.425736 86.860453 
L 251.36024 81.279096 
L 253.294745 76.445553 
L 255.229249 72.20377 
L 257.163754 68.444016 
L 259.098258 65.086232 
L 261.677598 61.132586 
L 264.256937 57.682095 
L 266.836276 54.657432 
L 269.415616 52.000671 
L 271.994955 49.667474 
L 274.574294 47.623329 
L 277.153634 45.841027 
L 279.732973 44.298933 
L 282.312312 42.979762 
L 284.891652 41.869702 
L 287.470991 40.957779 
L 290.695165 40.083599 
L 293.919339 39.493315 
L 297.143514 39.178785 
L 300.367688 39.135678 
L 303.591862 39.363247 
L 306.816036 39.864289 
L 310.04021 40.645293 
L 312.61955 41.478603 
L 315.198889 42.505248 
L 317.778228 43.734916 
L 320.357568 45.179879 
L 322.936907 46.855535 
L 325.516246 48.781152 
L 328.095586 50.9809 
L 330.674925 53.485294 
L 333.254264 56.333282 
L 335.833604 59.575292 
L 338.412943 63.277885 
L 340.347447 66.41005 
L 342.281952 69.901478 
L 344.216456 73.817966 
L 346.150961 78.247867 
L 348.085465 83.31364 
L 350.01997 89.191892 
L 351.30964 93.688881 
L 352.599309 98.778572 
L 353.888979 104.626404 
L 355.178649 111.480937 
L 356.468318 119.740913 
L 357.757988 130.107509 
L 358.402823 136.471118 
L 359.047658 143.997361 
L 359.692492 153.202362 
L 360.337327 165.048714 
L 360.982162 181.678618 
L 361.626997 209.795079 
L 362.271832 348.098532 
L 362.916667 212.926424 
L 363.561502 183.246169 
L 364.206336 166.096378 
L 364.851171 153.990922 
L 365.496006 144.631108 
L 366.785676 130.565696 
L 368.075345 120.102966 
L 369.365015 111.782933 
L 370.654685 104.887745 
L 371.944354 99.010873 
L 373.234024 93.89963 
L 375.168529 87.315616 
L 377.103033 81.716164 
L 379.037538 76.867002 
L 380.972042 72.61111 
L 382.906547 68.838145 
L 384.841051 65.467644 
L 387.42039 61.497332 
L 389.99973 58.030089 
L 392.579069 54.988257 
L 395.158408 52.313664 
L 397.737748 49.961778 
L 400.317087 47.897918 
L 402.896426 46.094729 
L 405.475766 44.530432 
L 408.055105 43.187602 
L 410.634444 42.052282 
L 413.213784 41.113344 
L 416.437958 40.202673 
L 419.662132 39.572528 
L 422.886306 39.214343 
L 426.11048 39.123287 
L 429.334655 39.298011 
L 432.558829 39.740578 
L 435.783003 40.456574 
L 439.007177 41.455406 
L 441.586517 42.467188 
L 444.165856 43.678049 
L 446.745195 45.099833 
L 449.324535 46.747373 
L 451.903874 48.639191 
L 454.483213 50.79847 
L 457.062553 53.254405 
L 459.641892 56.044132 
L 462.221231 59.215565 
L 464.800571 62.831652 
L 466.735075 65.885361 
L 468.66958 69.283174 
L 470.604084 73.08626 
L 472.538589 77.376166 
L 474.473093 82.264891 
L 476.407598 87.912123 
L 477.697267 92.211484 
L 478.986937 97.052923 
L 480.276607 102.579351 
L 481.566276 109.00101 
L 482.855946 116.645758 
L 484.145616 126.067334 
L 485.435285 138.316593 
L 486.08012 146.144047 
L 486.724955 155.802934 
L 487.36979 168.412309 
L 488.014625 186.59566 
L 488.659459 219.622176 
L 489.304294 284.773983 
L 489.949129 205.05087 
L 490.593964 179.369948 
L 491.238799 163.607041 
L 491.883634 152.206151 
L 492.528468 143.272833 
L 493.818138 129.698436 
L 495.107808 119.510151 
L 496.397477 111.365282 
L 497.687147 104.591451 
L 498.976817 98.803456 
L 500.266486 93.75994 
L 502.200991 87.251525 
L 504.135495 81.707096 
L 506.07 76.899282 
L 508.004505 72.675111 
L 509.939009 68.926769 
L 511.873514 65.575452 
L 514.452853 61.624167 
L 517.032192 58.170068 
L 519.611532 55.136678 
L 522.190871 52.46662 
L 524.77021 50.115907 
L 527.34955 48.050239 
L 529.928889 46.242522 
L 532.508228 44.671156 
L 535.087568 43.318826 
L 537.666907 42.171637 
L 540.891081 41.00943 
L 544.115255 40.133871 
L 547.339429 39.532944 
L 550.563604 39.198641 
L 553.787778 39.126526 
L 557.011952 39.315515 
L 560.236126 39.767816 
L 563.4603 40.489048 
L 566.684474 41.488532 
L 569.263814 42.497397 
L 571.843153 43.702096 
L 574.422492 45.114219 
L 577.001832 46.748246 
L 579.581171 48.622231 
L 582.160511 50.758719 
L 584.73985 53.186041 
L 587.319189 55.940154 
L 589.898529 59.067319 
L 592.477868 62.628124 
L 594.412372 65.631106 
L 596.346877 68.967965 
L 598.281381 72.69689 
L 600.215886 76.89507 
L 602.15039 81.667884 
L 604.084895 87.164441 
L 606.019399 93.605577 
L 607.309069 98.587916 
L 608.598739 104.294878 
L 609.888408 110.957348 
L 611.178078 118.941033 
L 612.467748 128.877381 
L 613.757417 142.00609 
L 614.402252 150.559006 
L 615.047087 161.346167 
L 615.691922 175.954047 
L 616.336757 198.660329 
L 616.981592 252.41015 
L 617.626426 231.980438 
L 618.271261 191.97293 
L 618.916096 171.951442 
L 619.560931 158.492871 
L 620.205766 148.344915 
L 621.495435 133.398225 
L 622.785105 122.453134 
L 624.074775 113.827462 
L 625.364444 106.720196 
L 626.654114 100.686632 
L 627.943784 95.454104 
L 629.878288 88.730713 
L 631.812793 83.024592 
L 633.747297 78.089623 
L 635.681802 73.761864 
L 637.616306 69.926655 
L 639.550811 66.500693 
L 642.13015 62.463701 
L 644.709489 58.935274 
L 647.288829 55.83564 
L 649.868168 53.105134 
L 652.447508 50.698126 
L 655.026847 48.579086 
L 657.606186 46.719977 
L 660.185526 45.098443 
L 662.764865 43.696553 
L 665.344204 42.499883 
L 668.568378 41.275234 
L 671.792553 40.335809 
L 675.016727 39.668818 
L 678.240901 39.265477 
L 681.465075 39.120541 
L 684.689249 39.232043 
L 687.913423 39.601188 
L 691.137598 40.232421 
L 694.361772 41.133654 
L 697.585946 42.316682 
L 700.165285 43.4768 
L 702.744625 44.838469 
L 705.323964 46.415236 
L 707.903303 48.223959 
L 710.482643 50.285631 
L 713.061982 52.626541 
L 715.641321 55.279902 
L 718.220661 58.288207 
L 720.8 61.706729 
L 720.8 61.706729 
" clip-path="url(#p1a4c619da5)" style="fill: none; stroke: #0000ff; stroke-width: 1.5; stroke-linecap: square"/>
   </g>
   <g id="line2d_22">
    <path d="M 76.61 42.830758 
L 79.189339 44.143598 
L 81.768679 45.683549 
L 84.348018 47.467973 
L 86.927357 49.518685 
L 89.506697 51.863205 
L 92.086036 54.536535 
L 94.665375 57.58376 
L 97.244715 61.063925 
L 99.179219 64.004713 
L 101.113724 67.276558 
L 103.048228 70.935934 
L 104.982733 75.057576 
L 106.917237 79.743186 
L 108.851742 85.136084 
L 110.786246 91.447395 
L 112.075916 96.320469 
L 113.365586 101.890051 
L 114.655255 108.371864 
L 115.944925 116.103742 
L 117.234595 125.659687 
L 118.524264 138.138937 
L 119.169099 146.154586 
L 119.813934 156.102131 
L 120.458769 169.209494 
L 121.103604 188.456073 
L 122.393273 261.137493 
L 123.038108 199.775444 
L 123.682943 175.975132 
L 124.327778 160.93023 
L 124.972613 149.908831 
L 125.617447 141.210631 
L 126.907117 127.913151 
L 128.196787 117.883992 
L 129.486456 109.843768 
L 130.776126 103.145146 
L 132.065796 97.414816 
L 133.355465 92.417798 
L 135.28997 85.965943 
L 137.224474 80.468314 
L 139.158979 75.701512 
L 141.093483 71.514922 
L 143.027988 67.802224 
L 144.962492 64.485615 
L 147.541832 60.580335 
L 150.121171 57.172979 
L 152.700511 54.187903 
L 155.27985 51.568362 
L 157.859189 49.270879 
L 160.438529 47.261596 
L 163.017868 45.513823 
L 165.597207 44.00635 
L 168.176547 42.722255 
L 170.755886 41.648051 
L 173.335225 40.773066 
L 175.914565 40.088989 
L 178.493904 39.589542 
L 181.718078 39.218203 
L 184.942252 39.12329 
L 188.166426 39.303354 
L 191.390601 39.760598 
L 193.96994 40.329849 
L 196.549279 41.085175 
L 199.128619 42.03336 
L 201.707958 43.183305 
L 204.287297 44.546383 
L 206.866637 46.136936 
L 209.445976 47.972954 
L 212.025315 50.077005 
L 214.604655 52.477555 
L 217.183994 55.21083 
L 219.763333 58.323547 
L 222.342673 61.877029 
L 224.277177 64.879864 
L 226.211682 68.221937 
L 228.146186 71.962475 
L 230.080691 76.180198 
L 232.015195 80.982829 
L 233.9497 86.523227 
L 235.884204 93.028608 
L 237.173874 98.07054 
L 238.463544 103.85717 
L 239.753213 110.629662 
L 241.042883 118.77287 
L 242.332553 128.958443 
L 242.977387 135.187642 
L 243.622222 142.527237 
L 244.267057 151.455137 
L 244.911892 162.846504 
L 245.556727 178.589946 
L 246.201562 204.215759 
L 246.846396 283.234448 
L 247.491231 219.090099 
L 248.136066 185.969279 
L 248.780901 167.759947 
L 249.425736 155.139421 
L 250.070571 145.475067 
L 251.36024 131.065667 
L 252.64991 120.413783 
L 253.93958 111.974267 
L 255.229249 104.996953 
L 256.518919 99.060354 
L 257.808589 93.903913 
L 259.743093 87.269915 
L 261.677598 81.634576 
L 263.612102 76.758916 
L 265.546607 72.483168 
L 267.481111 68.695275 
L 269.415616 65.313658 
L 271.994955 61.333175 
L 274.574294 57.860001 
L 277.153634 54.815698 
L 279.732973 52.141574 
L 282.312312 49.792743 
L 284.891652 47.734291 
L 287.470991 45.938702 
L 290.05033 44.384104 
L 292.62967 43.053019 
L 295.209009 41.93148 
L 297.788348 41.008381 
L 301.012523 40.120482 
L 304.236697 39.516573 
L 307.460871 39.188328 
L 310.685045 39.131239 
L 313.909219 39.344379 
L 317.133393 39.830348 
L 320.357568 40.59542 
L 322.936907 41.415194 
L 325.516246 42.427436 
L 328.095586 43.641651 
L 330.674925 45.069886 
L 333.254264 46.727264 
L 335.833604 48.632705 
L 338.412943 50.809928 
L 340.992282 53.28886 
L 343.571622 56.107652 
L 346.150961 59.315635 
L 348.7303 62.977799 
L 350.664805 66.074088 
L 352.599309 69.523352 
L 354.533814 73.389381 
L 356.468318 77.757568 
L 358.402823 82.745813 
L 360.337327 88.523318 
L 361.626997 92.934248 
L 362.916667 97.91581 
L 364.206336 103.623415 
L 365.496006 110.288435 
L 366.785676 118.277483 
L 368.075345 128.223898 
L 369.365015 141.372082 
L 370.00985 149.94209 
L 370.654685 160.756913 
L 371.29952 175.416228 
L 371.944354 198.249326 
L 372.589189 252.803753 
L 373.234024 230.604553 
L 373.878859 191.005359 
L 374.523694 171.081361 
L 375.168529 157.666778 
L 375.813363 147.544089 
L 377.103033 132.625899 
L 378.392703 121.697238 
L 379.682372 113.083016 
L 380.972042 105.984816 
L 382.261712 99.959115 
L 383.551381 94.733858 
L 385.485886 88.020993 
L 387.42039 82.325508 
L 389.354895 77.401652 
L 391.289399 73.085706 
L 393.223904 69.263157 
L 395.158408 65.850807 
L 397.737748 61.833583 
L 400.317087 58.326915 
L 402.896426 55.251167 
L 405.475766 52.546803 
L 408.055105 50.168317 
L 410.634444 48.080317 
L 413.213784 46.254906 
L 415.793123 44.66989 
L 418.372462 43.307511 
L 420.951802 42.153543 
L 423.531141 41.196633 
L 426.755315 40.264157 
L 429.979489 39.612635 
L 433.203664 39.233209 
L 436.427838 39.120772 
L 439.652012 39.273704 
L 442.876186 39.693783 
L 446.10036 40.386285 
L 449.324535 41.360264 
L 451.903874 42.350905 
L 454.483213 43.539232 
L 457.062553 44.936776 
L 459.641892 46.557989 
L 462.221231 48.420915 
L 464.800571 50.548124 
L 467.37991 52.968008 
L 469.959249 55.716633 
L 472.538589 58.840438 
L 475.117928 62.400286 
L 477.052432 65.404375 
L 478.986937 68.744193 
L 480.921441 72.478309 
L 482.855946 76.684471 
L 484.79045 81.468911 
L 486.724955 86.982102 
L 488.659459 93.447193 
L 489.949129 98.451533 
L 491.238799 104.187728 
L 492.528468 110.890365 
L 493.818138 118.932023 
L 495.107808 128.958513 
L 495.752643 135.069463 
L 496.397477 142.245402 
L 497.042312 150.932204 
L 497.687147 161.933434 
L 498.331982 176.938204 
L 498.976817 200.632833 
L 499.621652 261.172992 
L 500.911321 189.757472 
L 501.556156 170.441841 
L 502.200991 157.303351 
L 502.845826 147.338263 
L 504.135495 132.593115 
L 505.425165 121.757216 
L 506.714835 113.200509 
L 508.004505 106.141159 
L 509.294174 100.143175 
L 510.583844 94.93842 
L 512.518348 88.247421 
L 514.452853 82.566693 
L 516.387357 77.652765 
L 518.321862 73.343244 
L 520.256366 69.524432 
L 522.190871 66.11366 
L 524.77021 62.095782 
L 527.34955 58.585802 
L 529.928889 55.504432 
L 532.508228 52.792358 
L 535.087568 50.404212 
L 537.666907 48.304681 
L 540.246246 46.465906 
L 542.825586 44.865694 
L 545.404925 43.486263 
L 547.984264 42.313337 
L 551.208438 41.120402 
L 554.432613 40.215241 
L 557.656787 39.585399 
L 560.880961 39.222476 
L 564.105135 39.121671 
L 567.329309 39.281538 
L 570.553483 39.703916 
L 573.777658 40.394017 
L 577.001832 41.360707 
L 579.581171 42.34178 
L 582.160511 43.51695 
L 584.73985 44.897411 
L 587.319189 46.497159 
L 589.898529 48.333644 
L 592.477868 50.428637 
L 595.057207 52.809466 
L 597.636547 55.510746 
L 600.215886 58.576907 
L 602.795225 62.065954 
L 604.72973 65.005859 
L 606.664234 68.269261 
L 608.598739 71.911186 
L 610.533243 76.004244 
L 612.467748 80.646918 
L 614.402252 85.977422 
L 616.336757 92.198315 
L 617.626426 96.988361 
L 618.916096 102.448057 
L 620.205766 108.780058 
L 621.495435 116.298516 
L 622.785105 125.529608 
L 624.074775 137.459349 
L 624.71961 145.029534 
L 625.364444 154.299787 
L 626.009279 166.253992 
L 626.654114 183.097753 
L 627.298949 211.84571 
L 627.943784 423.61609 
L 628.588619 212.36786 
L 629.233453 183.361567 
L 629.878288 166.432912 
L 630.523123 154.437171 
L 631.167958 145.142721 
L 632.457628 131.151027 
L 633.747297 120.728043 
L 635.036967 112.432065 
L 636.326637 105.55225 
L 637.616306 99.685334 
L 638.905976 94.580355 
L 640.84048 88.000882 
L 642.774985 82.401745 
L 644.709489 77.549698 
L 646.643994 73.288316 
L 648.578498 69.507617 
L 650.513003 66.127366 
L 653.092342 62.141161 
L 655.671682 58.654898 
L 658.251021 55.59102 
L 660.83036 52.891387 
L 663.4097 50.511446 
L 665.989039 48.41646 
L 668.568378 46.578982 
L 671.147718 44.977112 
L 673.727057 43.593271 
L 676.306396 42.41332 
L 679.530571 41.208045 
L 682.754745 40.286636 
L 685.978919 39.636598 
L 689.203093 39.249396 
L 692.427267 39.120004 
L 695.651441 39.246646 
L 698.875616 39.630718 
L 702.09979 40.276847 
L 705.323964 41.193138 
L 708.548138 42.391599 
L 711.127477 43.564497 
L 713.706817 44.939487 
L 716.286156 46.530293 
L 718.865495 48.353985 
L 720.8 49.887189 
L 720.8 49.887189 
" clip-path="url(#p1a4c619da5)" style="fill: none; stroke: #9932cc; stroke-width: 1.5; stroke-linecap: square"/>
   </g>
   <g id="patch_3">
    <path d="M 76.61 374.92 
L 76.61 39.12 
" style="fill: none; stroke: #000000; stroke-width: 0.8; stroke-linejoin: miter; stroke-linecap: square"/>
   </g>
   <g id="patch_4">
    <path d="M 720.8 374.92 
L 720.8 39.12 
" style="fill: none; stroke: #000000; stroke-width: 0.8; stroke-linejoin: miter; stroke-linecap: square"/>
   </g>
   <g id="patch_5">
    <path d="M 76.61 374.92 
L 720.8 374.92 
" style="fill: none; stroke: #000000; stroke-width: 0.8; stroke-linejoin: miter; stroke-linecap: square"/>
   </g>
   <g id="patch_6">
    <path d="M 76.61 39.12 
L 720.8 39.12 
" style="fill: none; stroke: #000000; stroke-width: 0.8; stroke-linejoin: miter; stroke-linecap: square"/>
   </g>
   <g id="text_19">
    <!-- dL=100µm, $\Delta \lambda_{FSR}=6.904$nm -->
    <g transform="translate(259.313 33.12) scale(0.192 -0.192)">
     <defs>
      <path id="DejaVuSans-4c" d="M 628 4666 
L 1259 4666 
L 1259 531 
L 3531 531 
L 3531 0 
L 628 0 
L 628 4666 
z
" transform="scale(0.015625)"/>
      <path id="DejaVuSans-3d" d="M 678 2906 
L 4684 2906 
L 4684 2381 
L 678 2381 
L 678 2906 
z
M 678 1631 
L 4684 1631 
L 4684 1100 
L 678 1100 
L 678 1631 
z
" transform="scale(0.015625)"/>
      <path id="DejaVuSans-b5" d="M 544 -1331 
L 544 3500 
L 1119 3500 
L 1119 1325 
Q 1119 872 1334 640 
Q 1550 409 1972 409 
Q 2434 409 2667 671 
Q 2900 934 2900 1459 
L 2900 3500 
L 3475 3500 
L 3475 806 
Q 3475 619 3529 530 
Q 3584 441 3700 441 
Q 3728 441 3778 458 
Q 3828 475 3916 513 
L 3916 50 
Q 3788 -22 3673 -56 
Q 3559 -91 3450 -91 
Q 3234 -91 3106 31 
Q 2978 153 2931 403 
Q 2775 156 2548 32 
Q 2322 -91 2016 -91 
Q 1697 -91 1473 31 
Q 1250 153 1119 397 
L 1119 -1331 
L 544 -1331 
z
" transform="scale(0.015625)"/>
      <path id="DejaVuSans-2c" d="M 750 794 
L 1409 794 
L 1409 256 
L 897 -744 
L 494 -744 
L 750 256 
L 750 794 
z
" transform="scale(0.015625)"/>
      <path id="DejaVuSans-394" d="M 2188 4044 
L 906 525 
L 3472 525 
L 2188 4044 
z
M 50 0 
L 1831 4666 
L 2547 4666 
L 4325 0 
L 50 0 
z
" transform="scale(0.015625)"/>
      <path id="DejaVuSans-Oblique-3bb" d="M 2350 4316 
L 3125 0 
L 2516 0 
L 2038 2588 
L 328 0 
L -281 0 
L 1903 3356 
L 1794 3975 
Q 1725 4369 1391 4369 
L 1091 4369 
L 1184 4863 
L 1550 4856 
Q 2253 4847 2350 4316 
z
" transform="scale(0.015625)"/>
      <path id="DejaVuSans-Oblique-46" d="M 1081 4666 
L 3756 4666 
L 3653 4134 
L 1606 4134 
L 1338 2759 
L 3188 2759 
L 3084 2228 
L 1234 2228 
L 800 0 
L 172 0 
L 1081 4666 
z
" transform="scale(0.015625)"/>
      <path id="DejaVuSans-Oblique-53" d="M 3859 4513 
L 3738 3897 
Q 3422 4066 3111 4152 
Q 2800 4238 2509 4238 
Q 1944 4238 1609 3991 
Q 1275 3744 1275 3334 
Q 1275 3109 1398 2989 
Q 1522 2869 2034 2731 
L 2413 2638 
Q 3053 2472 3303 2217 
Q 3553 1963 3553 1503 
Q 3553 797 2998 353 
Q 2444 -91 1538 -91 
Q 1166 -91 791 -17 
Q 416 56 38 206 
L 166 856 
Q 513 641 861 531 
Q 1209 422 1556 422 
Q 2147 422 2503 684 
Q 2859 947 2859 1369 
Q 2859 1650 2717 1795 
Q 2575 1941 2106 2059 
L 1728 2156 
Q 1081 2325 845 2545 
Q 609 2766 609 3163 
Q 609 3859 1145 4304 
Q 1681 4750 2541 4750 
Q 2875 4750 3203 4690 
Q 3531 4631 3859 4513 
z
" transform="scale(0.015625)"/>
      <path id="DejaVuSans-Oblique-52" d="M 1613 4147 
L 1294 2491 
L 2106 2491 
Q 2584 2491 2879 2755 
Q 3175 3019 3175 3444 
Q 3175 3784 2976 3965 
Q 2778 4147 2406 4147 
L 1613 4147 
z
M 2772 2241 
Q 2972 2194 3105 2009 
Q 3238 1825 3413 1275 
L 3809 0 
L 3144 0 
L 2778 1197 
Q 2638 1659 2453 1815 
Q 2269 1972 1888 1972 
L 1191 1972 
L 806 0 
L 172 0 
L 1081 4666 
L 2503 4666 
Q 3150 4666 3495 4373 
Q 3841 4081 3841 3531 
Q 3841 3044 3547 2687 
Q 3253 2331 2772 2241 
z
" transform="scale(0.015625)"/>
      <path id="DejaVuSans-2e" d="M 684 794 
L 1344 794 
L 1344 0 
L 684 0 
L 684 794 
z
" transform="scale(0.015625)"/>
      <path id="DejaVuSans-39" d="M 703 97 
L 703 672 
Q 941 559 1184 500 
Q 1428 441 1663 441 
Q 2288 441 2617 861 
Q 2947 1281 2994 2138 
Q 2813 1869 2534 1725 
Q 2256 1581 1919 1581 
Q 1219 1581 811 2004 
Q 403 2428 403 3163 
Q 403 3881 828 4315 
Q 1253 4750 1959 4750 
Q 2769 4750 3195 4129 
Q 3622 3509 3622 2328 
Q 3622 1225 3098 567 
Q 2575 -91 1691 -91 
Q 1453 -91 1209 -44 
Q 966 3 703 97 
z
M 1959 2075 
Q 2384 2075 2632 2365 
Q 2881 2656 2881 3163 
Q 2881 3666 2632 3958 
Q 2384 4250 1959 4250 
Q 1534 4250 1286 3958 
Q 1038 3666 1038 3163 
Q 1038 2656 1286 2365 
Q 1534 2075 1959 2075 
z
" transform="scale(0.015625)"/>
     </defs>
     <use xlink:href="#DejaVuSans-64" transform="translate(0 0.015625)"/>
     <use xlink:href="#DejaVuSans-4c" transform="translate(63.476562 0.015625)"/>
     <use xlink:href="#DejaVuSans-3d" transform="translate(119.189453 0.015625)"/>
     <use xlink:href="#DejaVuSans-31" transform="translate(202.978516 0.015625)"/>
     <use xlink:href="#DejaVuSans-30" transform="translate(266.601562 0.015625)"/>
     <use xlink:href="#DejaVuSans-30" transform="translate(330.224609 0.015625)"/>
     <use xlink:href="#DejaVuSans-b5" transform="translate(393.847656 0.015625)"/>
     <use xlink:href="#DejaVuSans-6d" transform="translate(457.470703 0.015625)"/>
     <use xlink:href="#DejaVuSans-2c" transform="translate(554.882812 0.015625)"/>
     <use xlink:href="#DejaVuSans-20" transform="translate(586.669922 0.015625)"/>
     <use xlink:href="#DejaVuSans-394" transform="translate(618.457031 0.015625)"/>
     <use xlink:href="#DejaVuSans-Oblique-3bb" transform="translate(686.865234 0.015625)"/>
     <use xlink:href="#DejaVuSans-Oblique-46" transform="translate(746.044922 -16.390625) scale(0.7)"/>
     <use xlink:href="#DejaVuSans-Oblique-53" transform="translate(786.308594 -16.390625) scale(0.7)"/>
     <use xlink:href="#DejaVuSans-Oblique-52" transform="translate(830.742188 -16.390625) scale(0.7)"/>
     <use xlink:href="#DejaVuSans-3d" transform="translate(901.59668 0.015625)"/>
     <use xlink:href="#DejaVuSans-36" transform="translate(1004.868164 0.015625)"/>
     <use xlink:href="#DejaVuSans-2e" transform="translate(1068.491211 0.015625)"/>
     <use xlink:href="#DejaVuSans-39" transform="translate(1100.27832 0.015625)"/>
     <use xlink:href="#DejaVuSans-30" transform="translate(1163.901367 0.015625)"/>
     <use xlink:href="#DejaVuSans-34" transform="translate(1227.524414 0.015625)"/>
     <use xlink:href="#DejaVuSans-6e" transform="translate(1291.147461 0.015625)"/>
     <use xlink:href="#DejaVuSans-6d" transform="translate(1354.526367 0.015625)"/>
    </g>
   </g>
   <g id="legend_1">
    <g id="patch_7">
     <path d="M 733.958 300.06 
L 838.438 300.06 
Q 841.638 300.06 841.638 296.86 
L 841.638 117.18 
Q 841.638 113.98 838.438 113.98 
L 733.958 113.98 
Q 730.758 113.98 730.758 117.18 
L 730.758 296.86 
Q 730.758 300.06 733.958 300.06 
z
" style="fill: #ffffff; opacity: 0.8; stroke: #cccccc; stroke-linejoin: miter"/>
    </g>
    <g id="line2d_23">
     <path d="M 737.158 130.46 
L 753.158 130.46 
L 769.158 130.46 
" style="fill: none; stroke: #cd5c5c; stroke-width: 1.5; stroke-linecap: square"/>
    </g>
    <g id="text_20">
     <!-- $\phi=\frac{0\pi}{6}$ -->
     <g transform="translate(781.958 136.06) scale(0.16 -0.16)">
      <defs>
       <path id="DejaVuSans-Oblique-3d5" d="M 2991 4863 
L 2738 3572 
Q 3363 3572 3684 3094 
Q 4016 2606 3850 1747 
Q 3681 888 3159 400 
Q 2653 -78 2028 -78 
L 1784 -1331 
L 1213 -1331 
L 1456 -78 
Q 834 -78 509 400 
Q 178 888 347 1747 
Q 513 2606 1034 3094 
Q 1544 3572 2166 3572 
L 2419 4863 
L 2991 4863 
z
M 2128 434 
Q 2481 434 2784 756 
Q 3116 1116 3244 1747 
Q 3369 2372 3169 2738 
Q 2991 3059 2638 3059 
L 2128 434 
z
M 1556 434 
L 2066 3059 
Q 1716 3059 1413 2738 
Q 1072 2372 953 1747 
Q 834 1116 1028 756 
Q 1203 434 1556 434 
z
" transform="scale(0.015625)"/>
       <path id="DejaVuSans-Oblique-3c0" d="M 584 3500 
L 3938 3500 
L 3825 2925 
L 3384 2925 
L 2966 775 
Q 2922 550 2981 450 
Q 3038 353 3209 353 
Q 3256 353 3325 363 
Q 3397 369 3419 372 
L 3338 -44 
Q 3222 -84 3103 -103 
Q 2981 -122 2866 -122 
Q 2491 -122 2388 81 
Q 2284 288 2391 838 
L 2797 2925 
L 1506 2925 
L 938 0 
L 350 0 
L 919 2925 
L 472 2925 
L 584 3500 
z
" transform="scale(0.015625)"/>
      </defs>
      <use xlink:href="#DejaVuSans-Oblique-3d5" transform="translate(0 0.915625)"/>
      <use xlink:href="#DejaVuSans-3d" transform="translate(85.449219 0.915625)"/>
      <use xlink:href="#DejaVuSans-30" transform="translate(188.720703 46.046875) scale(0.7)"/>
      <use xlink:href="#DejaVuSans-Oblique-3c0" transform="translate(233.256836 46.046875) scale(0.7)"/>
      <use xlink:href="#DejaVuSans-36" transform="translate(209.720703 -38.490625) scale(0.7)"/>
      <path d="M 188.720703 19.7125 
L 188.720703 25.9625 
L 275.400391 25.9625 
L 275.400391 19.7125 
L 188.720703 19.7125 
z
"/>
     </g>
    </g>
    <g id="line2d_24">
     <path d="M 737.158 160.7 
L 753.158 160.7 
L 769.158 160.7 
" style="fill: none; stroke: #f4a460; stroke-width: 1.5; stroke-linecap: square"/>
    </g>
    <g id="text_21">
     <!-- $\phi=\frac{2\pi}{6}$ -->
     <g transform="translate(781.958 166.3) scale(0.16 -0.16)">
      <use xlink:href="#DejaVuSans-Oblique-3d5" transform="translate(0 0.915625)"/>
      <use xlink:href="#DejaVuSans-3d" transform="translate(85.449219 0.915625)"/>
      <use xlink:href="#DejaVuSans-32" transform="translate(188.720703 46.046875) scale(0.7)"/>
      <use xlink:href="#DejaVuSans-Oblique-3c0" transform="translate(233.256836 46.046875) scale(0.7)"/>
      <use xlink:href="#DejaVuSans-36" transform="translate(209.720703 -38.490625) scale(0.7)"/>
      <path d="M 188.720703 19.7125 
L 188.720703 25.9625 
L 275.400391 25.9625 
L 275.400391 19.7125 
L 188.720703 19.7125 
z
"/>
     </g>
    </g>
    <g id="line2d_25">
     <path d="M 737.158 190.78 
L 753.158 190.78 
L 769.158 190.78 
" style="fill: none; stroke: #008000; stroke-width: 1.5; stroke-linecap: square"/>
    </g>
    <g id="text_22">
     <!-- $\phi=\frac{4\pi}{6}$ -->
     <g transform="translate(781.958 196.38) scale(0.16 -0.16)">
      <use xlink:href="#DejaVuSans-Oblique-3d5" transform="translate(0 0.834375)"/>
      <use xlink:href="#DejaVuSans-3d" transform="translate(85.449219 0.834375)"/>
      <use xlink:href="#DejaVuSans-34" transform="translate(188.720703 45.965625) scale(0.7)"/>
      <use xlink:href="#DejaVuSans-Oblique-3c0" transform="translate(233.256836 45.965625) scale(0.7)"/>
      <use xlink:href="#DejaVuSans-36" transform="translate(209.720703 -38.571875) scale(0.7)"/>
      <path d="M 188.720703 19.63125 
L 188.720703 25.88125 
L 275.400391 25.88125 
L 275.400391 19.63125 
L 188.720703 19.63125 
z
"/>
     </g>
    </g>
    <g id="line2d_26">
     <path d="M 737.158 221.02 
L 753.158 221.02 
L 769.158 221.02 
" style="fill: none; stroke: #20b2aa; stroke-width: 1.5; stroke-linecap: square"/>
    </g>
    <g id="text_23">
     <!-- $\phi=\frac{6\pi}{6}$ -->
     <g transform="translate(781.958 226.62) scale(0.16 -0.16)">
      <use xlink:href="#DejaVuSans-Oblique-3d5" transform="translate(0 0.915625)"/>
      <use xlink:href="#DejaVuSans-3d" transform="translate(85.449219 0.915625)"/>
      <use xlink:href="#DejaVuSans-36" transform="translate(188.720703 46.046875) scale(0.7)"/>
      <use xlink:href="#DejaVuSans-Oblique-3c0" transform="translate(233.256836 46.046875) scale(0.7)"/>
      <use xlink:href="#DejaVuSans-36" transform="translate(209.720703 -38.490625) scale(0.7)"/>
      <path d="M 188.720703 19.7125 
L 188.720703 25.9625 
L 275.400391 25.9625 
L 275.400391 19.7125 
L 188.720703 19.7125 
z
"/>
     </g>
    </g>
    <g id="line2d_27">
     <path d="M 737.158 251.26 
L 753.158 251.26 
L 769.158 251.26 
" style="fill: none; stroke: #0000ff; stroke-width: 1.5; stroke-linecap: square"/>
    </g>
    <g id="text_24">
     <!-- $\phi=\frac{8\pi}{6}$ -->
     <g transform="translate(781.958 256.86) scale(0.16 -0.16)">
      <defs>
       <path id="DejaVuSans-38" d="M 2034 2216 
Q 1584 2216 1326 1975 
Q 1069 1734 1069 1313 
Q 1069 891 1326 650 
Q 1584 409 2034 409 
Q 2484 409 2743 651 
Q 3003 894 3003 1313 
Q 3003 1734 2745 1975 
Q 2488 2216 2034 2216 
z
M 1403 2484 
Q 997 2584 770 2862 
Q 544 3141 544 3541 
Q 544 4100 942 4425 
Q 1341 4750 2034 4750 
Q 2731 4750 3128 4425 
Q 3525 4100 3525 3541 
Q 3525 3141 3298 2862 
Q 3072 2584 2669 2484 
Q 3125 2378 3379 2068 
Q 3634 1759 3634 1313 
Q 3634 634 3220 271 
Q 2806 -91 2034 -91 
Q 1263 -91 848 271 
Q 434 634 434 1313 
Q 434 1759 690 2068 
Q 947 2378 1403 2484 
z
M 1172 3481 
Q 1172 3119 1398 2916 
Q 1625 2713 2034 2713 
Q 2441 2713 2670 2916 
Q 2900 3119 2900 3481 
Q 2900 3844 2670 4047 
Q 2441 4250 2034 4250 
Q 1625 4250 1398 4047 
Q 1172 3844 1172 3481 
z
" transform="scale(0.015625)"/>
      </defs>
      <use xlink:href="#DejaVuSans-Oblique-3d5" transform="translate(0 0.915625)"/>
      <use xlink:href="#DejaVuSans-3d" transform="translate(85.449219 0.915625)"/>
      <use xlink:href="#DejaVuSans-38" transform="translate(188.720703 46.046875) scale(0.7)"/>
      <use xlink:href="#DejaVuSans-Oblique-3c0" transform="translate(233.256836 46.046875) scale(0.7)"/>
      <use xlink:href="#DejaVuSans-36" transform="translate(209.720703 -38.490625) scale(0.7)"/>
      <path d="M 188.720703 19.7125 
L 188.720703 25.9625 
L 275.400391 25.9625 
L 275.400391 19.7125 
L 188.720703 19.7125 
z
"/>
     </g>
    </g>
    <g id="line2d_28">
     <path d="M 737.158 281.5 
L 753.158 281.5 
L 769.158 281.5 
" style="fill: none; stroke: #9932cc; stroke-width: 1.5; stroke-linecap: square"/>
    </g>
    <g id="text_25">
     <!-- $\phi=\frac{10\pi}{6}$ -->
     <g transform="translate(781.958 287.1) scale(0.16 -0.16)">
      <use xlink:href="#DejaVuSans-Oblique-3d5" transform="translate(0 0.915625)"/>
      <use xlink:href="#DejaVuSans-3d" transform="translate(85.449219 0.915625)"/>
      <use xlink:href="#DejaVuSans-31" transform="translate(188.720703 46.046875) scale(0.7)"/>
      <use xlink:href="#DejaVuSans-30" transform="translate(233.256836 46.046875) scale(0.7)"/>
      <use xlink:href="#DejaVuSans-Oblique-3c0" transform="translate(277.792969 46.046875) scale(0.7)"/>
      <use xlink:href="#DejaVuSans-36" transform="translate(231.720703 -38.490625) scale(0.7)"/>
      <path d="M 188.720703 19.7125 
L 188.720703 25.9625 
L 319.936523 25.9625 
L 319.936523 19.7125 
L 188.720703 19.7125 
z
"/>
     </g>
    </g>
   </g>
  </g>
 </g>
 <defs>
  <clipPath id="p1a4c619da5">
   <rect x="76.61" y="39.12" width="644.19" height="335.8"/>
  </clipPath>
 </defs>
</svg>
